<?xml version="1.0" encoding="utf-8"?>
<!-- Generator: Adobe Illustrator 27.5.0, SVG Export Plug-In . SVG Version: 6.00 Build 0)  -->
<svg version="1.1" xmlns="http://www.w3.org/2000/svg" xmlns:xlink="http://www.w3.org/1999/xlink" x="0px" y="0px"
	 viewBox="0 0 2475 1650" style="enable-background:new 0 0 2475 1650;" xml:space="preserve">
<g id="Background">
	<rect style="fill:#FFFFFF;" width="2475" height="1650"/>
</g>
<g id="Illustration">
	<g>
		<linearGradient id="SVGID_1_" gradientUnits="userSpaceOnUse" x1="235.8215" y1="796.5895" x2="2259.3149" y2="796.5895">
			<stop  offset="0" style="stop-color:#DAE3FE"/>
			<stop  offset="1" style="stop-color:#E9EFFD"/>
		</linearGradient>
		<path style="fill:url(#SVGID_1_);" d="M2202.06,864.602c-35.083-38.461-76.57-75.973-87.389-128.193
			c-18.722-90.363,61.331-167.413,87.537-255.668c18.12-61.025,8.771-130.505-24.723-183.751
			c-33.495-53.245-90.456-89.174-150.641-95.019c-103.556-10.056-204.9,63.799-306.909,42.41
			c-81.679-17.126-146.224-92.676-229.138-100.769c-97.567-9.523-178.519,75.721-271.69,107.816
			c-111.443,38.389-232.268-1.731-341.834-45.757c-109.566-44.026-224.844-93.146-340.337-72.076
			c-128.558,23.455-236.346,142.017-253.54,278.884c-17.04,135.641,125.873,244.524,4.22,407.392
			c-38.017,50.896-63.304,121.759-46.498,184.153c16.329,60.624,85.818,98.967,86.323,162.004
			c0.399,49.764-43.933,89.359-47.504,138.982c-3.065,42.592,25.877,81.969,61.446,102.154
			c35.568,20.185,76.837,25.122,116.963,29.697l-11.828,13.458c202.114,19.201,405.487,14.928,608.374,10.637
			c319.954-6.767,639.908-13.533,959.863-20.299c32.883-0.695,66.565-1.551,97.204-14.207
			c30.639-12.656,58.119-39.746,62.785-74.203c7.942-58.642-49.972-109.534-44.62-168.505
			c6.834-75.301,107.018-104.351,126.081-177.258C2269.675,954.961,2237.143,903.063,2202.06,864.602z"/>
		<g>
			<path style="fill:#91B3FA;" d="M1731.124,865.662c0,0-67.972-124.355,3.108-242.968
				c65.949-110.053,237.692-363.654,227.451-509.542c-0.454-6.463,11.89-3.919,16.104,3.334
				c45.208,77.804,141.08,271.916,98.338,457.719C2021.006,813.808,1731.124,865.662,1731.124,865.662z"/>
			<path style="fill:#BDD0FB;" d="M1989.267,249.595c5.678,12.785,9.751,26.227,13.122,39.81c3.3,13.606,5.858,27.42,7.437,41.366
				c1.564,13.945,2.311,28.001,2.119,42.058c-0.202,14.057-1.266,28.109-3.133,42.065c-3.941,27.885-11.365,55.3-22.037,81.404
				l-4.22,9.695c-0.717,1.61-1.378,3.246-2.141,4.834l-2.323,4.748l-4.664,9.489l-5.067,9.278l-2.535,4.639
				c-0.876,1.528-1.813,3.021-2.726,4.527l-5.513,9.019c-3.75,5.936-7.592,11.759-11.43,17.613
				c-30.807,46.722-64.788,91.284-100.119,134.496c-17.548,21.697-35.263,43.237-51.594,65.704
				c-8.129,11.249-15.782,22.84-22.261,35.06c-3.16,6.144-6.033,12.432-8.433,18.904c-2.337,6.49-4.195,13.152-5.405,19.96
				l-0.003,0.018c-0.097,0.544-0.617,0.908-1.161,0.811c-0.53-0.094-0.888-0.591-0.817-1.12c0.945-6.985,2.561-13.871,4.677-20.602
				c2.19-6.709,4.974-13.196,7.993-19.559c6.219-12.637,13.628-24.617,21.492-36.219c7.86-11.614,16.332-22.76,24.808-33.868
				c8.507-11.088,17.128-22.066,25.717-33.056c8.596-10.985,17.149-21.989,25.603-33.061c8.511-11.028,16.926-22.124,25.178-33.335
				c16.531-22.402,32.523-45.185,47.892-68.383c3.806-5.815,7.644-11.643,11.339-17.503l5.394-8.841
				c0.888-1.479,1.823-2.933,2.69-4.424l2.511-4.527l5.026-9.054l4.628-9.261l2.308-4.634c0.759-1.55,1.415-3.147,2.127-4.718
				l4.197-9.464c1.309-3.192,2.53-6.42,3.801-9.629l1.889-4.82l1.688-4.893c1.115-3.265,2.302-6.509,3.361-9.793l2.978-9.918
				c3.731-13.29,6.842-26.774,8.97-40.436c4.301-27.304,5.43-55.16,3.212-82.818c-2.248-27.624-7.32-55.232-16.803-81.462
				c-0.027-0.063,0.002-0.136,0.065-0.163C1989.164,249.506,1989.237,249.538,1989.267,249.595z"/>
		</g>
		<g>
			<path style="fill:#91B3FA;" d="M555.534,1411.662c0,0,67.972-124.355-3.108-242.968
				c-65.949-110.053-237.692-363.654-227.451-509.542c0.454-6.463-11.89-3.919-16.104,3.334
				c-45.208,77.804-141.08,271.916-98.338,457.719C265.651,1359.808,555.534,1411.662,555.534,1411.662z"/>
			<path style="fill:#BDD0FB;" d="M297.618,795.695c-9.484,26.23-14.556,53.837-16.803,81.462
				c-2.219,27.658-1.089,55.514,3.211,82.818c2.129,13.661,5.239,27.146,8.97,40.436l2.978,9.918
				c1.059,3.285,2.245,6.528,3.361,9.793l1.688,4.893l1.889,4.82c1.27,3.208,2.492,6.437,3.801,9.629l4.197,9.464
				c0.712,1.571,1.368,3.168,2.127,4.718l2.308,4.634l4.628,9.261l5.026,9.054l2.512,4.527c0.868,1.491,1.802,2.945,2.69,4.424
				l5.394,8.841c3.695,5.86,7.533,11.688,11.339,17.503c15.369,23.198,31.361,45.981,47.892,68.383
				c8.252,11.211,16.667,22.306,25.178,33.334c8.455,11.073,17.008,22.076,25.603,33.062c8.589,10.99,17.21,21.969,25.717,33.056
				c8.477,11.108,16.949,22.255,24.809,33.868c7.864,11.602,15.273,23.583,21.492,36.219c3.019,6.363,5.802,12.85,7.993,19.559
				c2.116,6.731,3.733,13.617,4.677,20.602c0.074,0.548-0.31,1.053-0.858,1.127c-0.534,0.072-1.026-0.29-1.12-0.815l-0.004-0.02
				c-1.209-6.807-3.068-13.47-5.405-19.959c-2.4-6.472-5.273-12.76-8.433-18.904c-6.479-12.22-14.132-23.811-22.261-35.06
				c-16.331-22.468-34.045-44.008-51.594-65.704c-35.331-43.212-69.313-87.774-100.119-134.496
				c-3.838-5.854-7.68-11.677-11.43-17.613l-5.513-9.019c-0.913-1.507-1.85-2.999-2.726-4.527l-2.535-4.639l-5.067-9.278
				l-4.664-9.489l-2.323-4.749c-0.763-1.588-1.424-3.224-2.141-4.834l-4.22-9.695c-10.672-26.104-18.096-53.52-22.037-81.404
				c-1.867-13.956-2.932-28.008-3.133-42.065c-0.192-14.058,0.555-28.114,2.119-42.058c1.579-13.946,4.137-27.76,7.437-41.366
				c3.372-13.582,7.444-27.024,13.122-39.81c0.028-0.062,0.101-0.091,0.163-0.063C297.614,795.559,297.639,795.634,297.618,795.695z
				"/>
		</g>
		<g>
			<path style="fill:#BDD0FB;" d="M2226.884,281.642c-0.162-2.905-4.119-3.664-5.332-1.02
				c-11.73,25.563-44.588,91.629-84.077,123.203c-64.297,51.411-116.18,143.19-89.054,199.256
				C2048.421,603.081,2244.5,598.124,2226.884,281.642z"/>
			
				<linearGradient id="SVGID_00000056385917838437047100000002374340173308236204_" gradientUnits="userSpaceOnUse" x1="2064.981" y1="446.4473" x2="2216.1035" y2="446.4473">
				<stop  offset="0" style="stop-color:#DAE3FE"/>
				<stop  offset="1" style="stop-color:#E9EFFD"/>
			</linearGradient>
			<path style="fill:url(#SVGID_00000056385917838437047100000002374340173308236204_);" d="M2216.08,319.048
				c-0.217,0.98-0.438,1.636-0.653,2.416l-0.675,2.244l-1.396,4.464l-2.974,8.858c-2.036,5.885-4.145,11.745-6.309,17.586
				c-4.369,11.664-9.021,23.224-13.957,34.665c-9.838,22.896-20.749,45.349-32.78,67.208
				c-12.033,21.854-25.303,43.074-40.173,63.164c-7.505,9.99-15.307,19.766-23.711,29.023c-8.478,9.182-17.307,18.052-26.826,26.132
				c-0.421,0.357-1.053,0.306-1.41-0.115c-0.341-0.401-0.303-1,0.065-1.365c17.668-17.387,33.233-36.674,47.518-56.836
				c14.251-20.199,27.168-41.328,39.204-62.952c12.01-21.644,23.069-43.826,33.457-66.33c5.152-11.271,10.189-22.601,14.992-34.034
				c2.421-5.709,4.791-11.44,7.088-17.2l3.382-8.663l1.661-4.34l0.805-2.174l0.713-2.038l0.087-0.249
				c0.179-0.514,0.741-0.784,1.255-0.605C2215.92,318.071,2216.187,318.567,2216.08,319.048z"/>
		</g>
		<g>
			<path style="fill:#7D97F4;" d="M2296.281,517.312c-0.08-5.713-2.464-11.153-6.611-15.083c-4.148-3.93-9.708-6.017-15.418-5.789
				l-433.856,17.395c-7.447,0.298-13.278,6.514-13.101,13.964l22.023,927.486l438.69-5.353c5.624-0.068,10.989-2.371,14.914-6.399
				c3.925-4.028,6.087-9.452,6.008-15.075L2296.281,517.312z"/>
			<g>
				<g>
					<polygon style="fill:#91B3FA;" points="1945.673,661.87 1881.566,661.849 1878.376,569.183 1942.894,569.183 					"/>
					<polygon style="fill:#91B3FA;" points="2045.573,661.622 1984.587,661.594 1982.057,569.183 2043.433,569.183 					"/>
					<polygon style="fill:#91B3FA;" points="2147.692,661.37 2084.279,661.347 2082.385,569.183 2146.201,569.183 					"/>
					<polygon style="fill:#91B3FA;" points="2249.253,661.118 2186.186,661.095 2184.939,569.183 2248.404,569.183 					"/>
				</g>
				<g>
					<polygon style="fill:#91B3FA;" points="1950.199,812.617 1886.762,813.03 1883.638,722.45 1947.477,722.19 					"/>
					<polygon style="fill:#91B3FA;" points="2049.059,811.974 1988.707,812.367 1986.229,722.032 2046.963,721.784 					"/>
					<polygon style="fill:#91B3FA;" points="2150.121,811.317 2087.364,811.725 2085.509,721.626 2148.661,721.369 					"/>
					<polygon style="fill:#91B3FA;" points="2250.636,810.663 2188.218,811.069 2186.996,721.212 2249.804,720.956 					"/>
				</g>
				<g>
					<polygon style="fill:#91B3FA;" points="1954.632,959.936 1891.852,960.593 1888.791,871.861 1951.966,871.351 					"/>
					<polygon style="fill:#91B3FA;" points="2052.474,958.913 1992.743,959.537 1990.316,871.041 2050.42,870.555 					"/>
					<polygon style="fill:#91B3FA;" points="2152.501,957.867 2090.386,958.516 2088.568,870.247 2151.07,869.742 					"/>
					<polygon style="fill:#91B3FA;" points="2251.992,956.827 2190.209,957.473 2189.012,869.436 2251.177,868.933 					"/>
				</g>
				<g>
					<polygon style="fill:#91B3FA;" points="1958.976,1104.277 1896.838,1105.167 1893.84,1018.229 1956.364,1017.479 					"/>
					<polygon style="fill:#91B3FA;" points="2055.821,1102.89 1996.698,1103.737 1994.319,1017.023 2053.808,1016.31 					"/>
					<polygon style="fill:#91B3FA;" points="2154.833,1101.472 2093.347,1102.352 2091.566,1015.857 2153.431,1015.115 					"/>
					<polygon style="fill:#91B3FA;" points="2253.32,1100.061 2192.16,1100.937 2190.987,1014.664 2252.521,1013.926 					"/>
				</g>
				<g>
					<polygon style="fill:#91B3FA;" points="1963.233,1245.73 1901.725,1246.845 1898.786,1161.646 1960.673,1160.665 					"/>
					<polygon style="fill:#91B3FA;" points="2059.1,1243.993 2000.573,1245.054 1998.243,1160.07 2057.128,1159.138 					"/>
					<polygon style="fill:#91B3FA;" points="2157.119,1242.217 2096.249,1243.32 2094.504,1158.546 2155.744,1157.576 					"/>
					<polygon style="fill:#91B3FA;" points="2254.622,1240.45 2194.072,1241.547 2192.922,1156.987 2253.839,1156.022 					"/>
				</g>
				<g>
					<polygon style="fill:#91B3FA;" points="1967.405,1384.381 1906.515,1385.711 1903.634,1302.199 1964.896,1300.998 					"/>
					<polygon style="fill:#91B3FA;" points="2062.315,1382.308 2004.372,1383.574 2002.088,1300.269 2060.382,1299.126 					"/>
					<polygon style="fill:#91B3FA;" points="2159.359,1380.189 2099.094,1381.505 2097.383,1298.401 2158.011,1297.212 					"/>
					<polygon style="fill:#91B3FA;" points="2255.898,1378.08 2195.947,1379.39 2194.819,1296.491 2255.131,1295.308 					"/>
				</g>
			</g>
		</g>
		<g>
			<path style="fill:#91B3FA;" d="M817.605,1241.329c0,0-308.138-127.639-282.98-383.243
				c23.001-233.685,136.927-417.039,156.297-446.767c1.214-1.864,0.174-4.36-2.006-4.799c-10.782-2.174-34.292-12.584-12.372-62.417
				c27.709-62.997,99.695-160.42,137.768-155.501c38.073,4.919,2.025,82.297-41.508,141.561
				c-43.533,59.263-60.373,83.093-60.373,83.093S281.998,984.489,817.605,1241.329z"/>
			<path style="fill:#BDD0FB;" d="M691.935,388.921c-0.798,0-1.594-0.316-2.183-0.942c-5.849-6.204-8.278-15.907-6.5-25.956
				c1.522-8.599,5.541-16.207,9.878-23.889c20.724-36.707,45.472-71.259,73.555-102.696c10.204-11.423,24.047-24.217,40.591-21.803
				c1.639,0.24,2.773,1.764,2.534,3.403c-0.24,1.64-1.762,2.78-3.403,2.534c-13.73-2.01-26.044,9.561-35.247,19.863
				c-27.797,31.116-52.292,65.315-72.805,101.647c-4.07,7.212-7.837,14.319-9.194,21.985c-1.449,8.189,0.403,15.964,4.957,20.795
				c1.137,1.205,1.081,3.104-0.125,4.24C693.413,388.65,692.673,388.921,691.935,388.921z"/>
		</g>
		<g>
			<path style="fill:#91B3FA;" d="M825.082,307.26c0,0-12.858-40.735,60.15-95.709c64.225-48.36,113.559-71.957,132.287-41.54
				c18.728,30.417-119.67,127.653-182.193,143.902c0,0-519.012,575.762-17.722,927.415
				C817.605,1241.329,285.669,996.001,825.082,307.26z"/>
			<path style="fill:#BDD0FB;" d="M845.64,285.103c-0.166,0-0.333-0.014-0.502-0.042c-1.634-0.275-2.735-1.821-2.46-3.456
				c3.596-21.38,31.203-46.654,47.339-59.817c25.987-21.199,57.986-40.361,85.599-51.259c4.263-1.682,26.183-3.801,30.545,2.097
				c4.44,6.006-0.31,13.417-5.726,17.939c-12.727,10.622-27.063,18.914-42.614,24.646c-1.555,0.575-3.28-0.223-3.853-1.776
				c-0.573-1.555,0.223-3.28,1.776-3.853c14.905-5.495,28.648-13.443,40.846-23.623c2.974-2.483,6.692-7.133,4.746-9.766
				c-1.906-1.72-18.2-2.182-23.518-0.082c-59.055,23.306-124.271,77.049-129.224,106.49
				C848.348,284.066,847.077,285.103,845.64,285.103z"/>
		</g>
		<g>
			<path style="fill:#91B3FA;" d="M268.179,256.318c-4.47-8.183,7.156-14.069,16.79-8.551
				c97.834,56.025,342.454,225.273,378.006,533.012c44.606,386.105,188.204,523.104,342.402,604.637
				c0,0-190.462-34.74-342.553-173.56C289.406,871.021,347.651,401.822,268.179,256.318z"/>
			<path style="fill:#BDD0FB;" d="M367.571,372.615c13.333,14.415,24.959,30.001,35.996,46.055c2.715,4.037,5.575,7.987,8.175,12.1
				l7.822,12.329l3.907,6.171l3.685,6.3l7.373,12.607c19.161,33.913,35.602,69.304,50.168,105.425l10.545,27.254
				c3.213,9.192,6.235,18.452,9.362,27.677l4.653,13.853c1.422,4.656,2.73,9.347,4.101,14.02l8.135,28.069
				c0.714,2.331,1.314,4.69,1.87,7.06l1.733,7.096l3.467,14.193l3.466,14.196c1.162,4.731,2.361,9.455,3.229,14.248l5.705,28.659
				c1.902,9.561,3.839,19.139,5.56,28.525c14.081,75.566,39.792,148.679,71.638,218.688c3.938,8.781,8.142,17.439,12.278,26.13
				c4.281,8.621,8.52,17.263,12.984,25.793c8.841,17.103,18.108,33.987,27.719,50.673c9.582,16.702,19.571,33.172,29.963,49.374
				c5.177,8.114,10.505,16.125,15.905,24.077c5.377,7.927,10.924,15.9,16.537,23.438l0.088,0.118
				c2.283,3.066,1.649,7.403-1.418,9.686c-3.042,2.265-7.336,1.655-9.634-1.348c-12.025-15.728-23.002-31.697-33.695-48.057
				c-10.671-16.324-20.926-32.908-30.774-49.732c-9.82-16.84-19.168-33.953-28.155-51.254c-4.529-8.633-8.833-17.381-13.177-26.109
				c-4.201-8.799-8.468-17.566-12.469-26.461c-4.13-8.834-7.94-17.816-11.865-26.744c-3.739-9.011-7.537-17.997-11.006-27.118
				c-7.17-18.148-13.662-36.567-19.747-55.115l-4.44-13.954c-1.475-4.653-2.773-9.362-4.168-14.04
				c-2.845-9.341-5.227-18.819-7.768-28.248c-4.725-18.954-9.121-38.007-12.481-57.271l-10.426-57.022
				c-0.786-4.758-1.902-9.443-2.981-14.136l-3.217-14.087l-3.217-14.09l-1.608-7.046c-0.514-2.354-1.072-4.698-1.744-7.01
				l-7.629-27.877c-1.286-4.642-2.51-9.305-3.847-13.932l-4.396-13.764c-2.955-9.169-5.806-18.377-8.847-27.519l-9.817-27.187
				c-13.57-36.061-29.025-71.472-47.204-105.488l-6.906-12.706l-3.454-6.356l-3.675-6.225l-7.362-12.451
				c-2.448-4.157-5.152-8.146-7.716-12.23c-2.591-4.066-5.166-8.147-7.952-12.079c-2.764-3.945-5.393-7.999-8.271-11.859
				c-5.65-7.779-11.44-15.574-17.697-22.751l-0.059-0.068c-0.674-0.772-0.593-1.945,0.179-2.618
				C365.747,371.815,366.892,371.882,367.571,372.615z"/>
		</g>
		<g>
			
				<linearGradient id="SVGID_00000114763488610211200970000003856167930358806407_" gradientUnits="userSpaceOnUse" x1="1821.0958" y1="147.9986" x2="184.7944" y2="2384.9658">
				<stop  offset="0" style="stop-color:#FE7062"/>
				<stop  offset="1" style="stop-color:#FF928E"/>
			</linearGradient>
			<circle style="fill:url(#SVGID_00000114763488610211200970000003856167930358806407_);" cx="1327.035" cy="823.423" r="641"/>
			
				<linearGradient id="SVGID_00000037664768508204988690000007057369982365587356_" gradientUnits="userSpaceOnUse" x1="1776.1298" y1="-54.3517" x2="1688.1296" y2="117.6482">
				<stop  offset="0" style="stop-color:#FE7062"/>
				<stop  offset="1" style="stop-color:#FF928E"/>
			</linearGradient>
			
				<circle style="fill:url(#SVGID_00000037664768508204988690000007057369982365587356_);" cx="1327.035" cy="823.423" r="504.222"/>
			<g>
				<g style="opacity:0.56;">
					<path style="fill:#FFFFFF;" d="M1884.452,835.628c-0.044,0-0.087,0-0.131-0.001c-3.313-0.071-5.941-2.814-5.871-6.127
						c0.084-3.947,0.127-7.905,0.127-11.873c0-3.313,2.687-6,6-6s6,2.686,6,6c0,4.054-0.043,8.096-0.129,12.129
						C1890.378,833.026,1887.706,835.628,1884.452,835.628z"/>
					<path style="fill:#FFFFFF;" d="M1332.831,1375.375c-1.73,0-3.458-0.008-5.183-0.023c-3.313-0.03-5.976-2.741-5.945-6.055
						c0.03-3.295,2.711-5.945,5.999-5.945c0.019,0,0.037,0,0.056,0c7.861,0.072,15.82-0.026,23.632-0.287
						c3.281-0.103,6.087,2.483,6.197,5.797c0.11,3.312-2.485,6.086-5.797,6.197
						C1345.525,1375.267,1339.146,1375.374,1332.831,1375.375z M1375.431,1373.755c-3.106,0-5.735-2.395-5.976-5.543
						c-0.252-3.305,2.222-6.188,5.525-6.439c7.823-0.598,15.732-1.373,23.509-2.306c3.299-0.398,6.276,1.952,6.672,5.242
						c0.395,3.29-1.952,6.277-5.242,6.672c-7.948,0.954-16.031,1.746-24.024,2.356
						C1375.739,1373.749,1375.584,1373.755,1375.431,1373.755z M1422.843,1368.068c-2.887,0-5.432-2.089-5.914-5.03
						c-0.536-3.27,1.68-6.355,4.949-6.892c7.732-1.269,15.545-2.725,23.22-4.33c3.254-0.677,6.424,1.403,7.102,4.645
						c0.678,3.244-1.401,6.423-4.645,7.102c-7.846,1.641-15.831,3.13-23.734,4.426
						C1423.492,1368.042,1423.165,1368.068,1422.843,1368.068z M1469.587,1358.295c-2.678,0-5.118-1.805-5.81-4.519
						c-0.819-3.211,1.12-6.478,4.331-7.296c7.591-1.937,15.247-4.067,22.756-6.336c3.171-0.952,6.52,0.837,7.479,4.01
						c0.958,3.172-0.837,6.52-4.01,7.479c-7.675,2.317-15.5,4.496-23.26,6.475
						C1470.576,1358.234,1470.077,1358.295,1469.587,1358.295z M1515.307,1344.488c-2.479,0-4.797-1.547-5.663-4.019
						c-1.095-3.127,0.552-6.551,3.68-7.646c7.369-2.581,14.791-5.363,22.06-8.271c3.077-1.228,6.569,0.267,7.799,3.344
						c1.23,3.076-0.267,6.568-3.344,7.799c-7.429,2.971-15.016,5.815-22.548,8.454
						C1516.634,1344.379,1515.965,1344.488,1515.307,1344.488z M1559.541,1326.799c-2.287,0-4.471-1.314-5.473-3.533
						c-1.363-3.021-0.02-6.574,3-7.938c7.134-3.22,14.292-6.639,21.275-10.162c2.963-1.495,6.568-0.305,8.06,2.653
						c1.493,2.959,0.305,6.567-2.653,8.06c-7.139,3.602-14.454,7.097-21.744,10.387
						C1561.204,1326.628,1560.366,1326.799,1559.541,1326.799z M1602.103,1305.323c-2.102,0-4.141-1.105-5.24-3.068
						c-1.62-2.891-0.589-6.548,2.302-8.167c6.829-3.826,13.669-7.854,20.329-11.974c2.819-1.744,6.518-0.87,8.259,1.946
						c1.743,2.818,0.872,6.517-1.946,8.259c-6.808,4.21-13.797,8.327-20.776,12.237
						C1604.102,1305.076,1603.095,1305.323,1602.103,1305.323z M1642.67,1280.233c-1.921,0-3.807-0.92-4.968-2.627
						c-1.863-2.741-1.152-6.473,1.588-8.336c6.469-4.397,12.939-9.004,19.231-13.69c2.656-1.981,6.415-1.431,8.396,1.228
						c1.979,2.657,1.43,6.416-1.228,8.396c-6.43,4.789-13.041,9.496-19.651,13.991
						C1645.005,1279.896,1643.831,1280.233,1642.67,1280.233z M1680.941,1251.723c-1.743,0-3.471-0.755-4.656-2.212
						c-2.093-2.569-1.706-6.349,0.863-8.44c6.086-4.955,12.138-10.104,17.989-15.302c2.479-2.202,6.27-1.978,8.471,0.501
						c2.201,2.477,1.977,6.27-0.501,8.47c-5.979,5.313-12.164,10.573-18.382,15.636
						C1683.613,1251.282,1682.272,1251.723,1680.941,1251.723z M1716.631,1220.014c-1.568,0-3.134-0.61-4.311-1.825
						c-2.306-2.381-2.245-6.179,0.135-8.484c5.636-5.459,11.226-11.11,16.615-16.799c2.279-2.405,6.077-2.509,8.482-0.229
						c2.405,2.279,2.508,6.076,0.229,8.482c-5.507,5.812-11.219,11.587-16.977,17.164
						C1719.639,1219.453,1718.134,1220.014,1716.631,1220.014z M1749.476,1185.341c-1.396,0-2.797-0.483-3.933-1.471
						c-2.501-2.174-2.767-5.964-0.594-8.465c5.14-5.914,10.225-12.027,15.115-18.171c2.063-2.592,5.838-3.021,8.432-0.957
						c2.592,2.063,3.021,5.839,0.957,8.432c-4.997,6.277-10.194,12.524-15.446,18.567
						C1752.821,1184.642,1751.153,1185.341,1749.476,1185.341z M1779.23,1147.959c-1.225,0-2.46-0.373-3.525-1.148
						c-2.68-1.949-3.271-5.702-1.321-8.382c4.627-6.358,9.168-12.891,13.497-19.414c1.83-2.761,5.554-3.517,8.316-1.682
						c2.761,1.832,3.515,5.556,1.682,8.316c-4.424,6.667-9.064,13.343-13.792,19.84
						C1782.913,1147.102,1781.084,1147.959,1779.23,1147.959z M1805.661,1108.13c-1.055,0-2.123-0.278-3.092-0.862
						c-2.838-1.711-3.752-5.398-2.041-8.236c4.06-6.732,8.02-13.636,11.772-20.517c1.587-2.909,5.23-3.984,8.14-2.396
						c2.909,1.586,3.982,5.23,2.396,8.14c-3.835,7.033-7.883,14.088-12.03,20.968
						C1809.679,1107.096,1807.695,1108.13,1805.661,1108.13z M1828.556,1066.143c-0.886,0-1.786-0.197-2.636-0.613
						c-2.976-1.459-4.205-5.053-2.747-8.028c3.457-7.053,6.805-14.276,9.949-21.471c1.327-3.036,4.865-4.422,7.901-3.095
						c3.036,1.328,4.422,4.865,3.095,7.901c-3.215,7.354-6.637,14.736-10.17,21.945
						C1832.906,1064.909,1830.773,1066.143,1828.556,1066.143z M1847.725,1022.303c-0.719,0-1.45-0.131-2.16-0.405
						c-3.092-1.193-4.63-4.667-3.437-7.758c2.829-7.325,5.535-14.817,8.044-22.27c1.058-3.141,4.458-4.832,7.601-3.772
						c3.141,1.058,4.83,4.46,3.772,7.601c-2.564,7.618-5.331,15.276-8.223,22.764
						C1852.403,1020.843,1850.132,1022.303,1847.725,1022.303z M1863.005,976.928c-0.551,0-1.11-0.077-1.666-0.237
						c-3.184-0.918-5.021-4.244-4.102-7.428c2.175-7.54,4.212-15.223,6.054-22.834c0.78-3.221,4.023-5.195,7.243-4.421
						c3.221,0.779,5.2,4.022,4.421,7.243c-1.883,7.78-3.965,15.632-6.188,23.338
						C1868.009,975.217,1865.609,976.928,1863.005,976.928z M1874.239,930.511c-0.384,0-0.772-0.037-1.163-0.113
						c-3.251-0.639-5.37-3.792-4.731-7.044c1.508-7.68,2.869-15.51,4.045-23.272c0.497-3.277,3.564-5.524,6.832-5.033
						c3.276,0.497,5.529,3.556,5.033,6.832c-1.203,7.933-2.594,15.935-4.135,23.786
						C1879.559,928.527,1877.049,930.511,1874.239,930.511z M1881.396,883.297c-0.215,0-0.432-0.011-0.649-0.034
						c-3.295-0.355-5.679-3.313-5.324-6.607c0.838-7.787,1.517-15.706,2.02-23.535c0.212-3.307,3.05-5.815,6.371-5.604
						c3.308,0.212,5.816,3.065,5.604,6.371c-0.513,8.001-1.207,16.093-2.063,24.051
						C1887.023,881.014,1884.422,883.297,1881.396,883.297z"/>
					<path style="fill:#FFFFFF;" d="M1303.581,1374.613c-0.105,0-0.212-0.003-0.319-0.008c-4.047-0.213-8.082-0.467-12.104-0.765
						c-3.305-0.245-5.785-3.122-5.54-6.427c0.245-3.304,3.108-5.805,6.427-5.54c3.937,0.292,7.886,0.54,11.847,0.747
						c3.309,0.174,5.851,2.997,5.678,6.307C1309.4,1372.13,1306.751,1374.613,1303.581,1374.613z"/>
				</g>
				<g style="opacity:0.56;">
					<path style="fill:#FFFFFF;" d="M781.083,823.628c-3.314,0-6-2.687-6-6c0-4.053,0.043-8.096,0.129-12.129
						c0.072-3.314,2.831-5.9,6.127-5.871c3.313,0.071,5.941,2.813,5.871,6.127c-0.084,3.947-0.127,7.906-0.127,11.873
						C787.083,820.941,784.396,823.628,781.083,823.628z"/>
					<path style="fill:#FFFFFF;" d="M782.245,787.623c-0.13,0-0.26-0.004-0.392-0.013c-3.307-0.213-5.814-3.066-5.602-6.373
						c0.517-8.036,1.218-16.172,2.083-24.18c0.355-3.296,3.321-5.682,6.608-5.321c3.295,0.355,5.678,3.314,5.321,6.608
						c-0.846,7.838-1.531,15.799-2.038,23.664C788.023,785.184,785.383,787.623,782.245,787.623z M787.405,739.89
						c-0.301,0-0.604-0.023-0.911-0.069c-3.275-0.499-5.527-3.559-5.028-6.835c1.211-7.952,2.615-15.997,4.176-23.91
						c0.641-3.25,3.802-5.367,7.047-4.727c3.252,0.641,5.367,3.796,4.727,7.047c-1.526,7.744-2.901,15.615-4.086,23.396
						C792.877,737.762,790.319,739.89,787.405,739.89z M796.694,692.786c-0.47,0-0.946-0.055-1.423-0.171
						c-3.22-0.783-5.195-4.028-4.412-7.248c1.905-7.835,4.009-15.727,6.252-23.457c0.923-3.183,4.249-5.019,7.435-4.091
						c3.183,0.924,5.014,4.252,4.091,7.435c-2.195,7.564-4.253,15.284-6.117,22.949
						C801.852,690.946,799.398,692.786,796.694,692.786z M810.093,646.614c-0.639,0-1.287-0.102-1.925-0.318
						c-3.139-1.063-4.822-4.469-3.76-7.607c2.59-7.651,5.385-15.347,8.308-22.872c1.199-3.09,4.674-4.62,7.765-3.421
						c3.089,1.199,4.621,4.676,3.421,7.765c-2.858,7.362-5.593,14.891-8.126,22.376
						C814.929,645.037,812.594,646.614,810.093,646.614z M827.505,601.757c-0.807,0-1.626-0.164-2.412-0.51
						c-3.033-1.334-4.411-4.874-3.077-7.907c3.252-7.396,6.709-14.811,10.274-22.042c1.465-2.972,5.063-4.196,8.034-2.728
						c2.973,1.465,4.193,5.063,2.728,8.034c-3.488,7.074-6.87,14.329-10.052,21.565
						C832.012,600.418,829.813,601.757,827.505,601.757z M848.771,558.621c-0.976,0-1.965-0.238-2.881-0.74
						c-2.905-1.594-3.969-5.241-2.375-8.146c3.879-7.071,7.968-14.152,12.153-21.049c1.719-2.832,5.406-3.736,8.242-2.016
						c2.832,1.719,3.735,5.409,2.016,8.242c-4.094,6.746-8.095,13.676-11.89,20.594C852.944,557.495,850.89,558.621,848.771,558.621
						z M873.706,517.525c-1.146,0-2.303-0.328-3.327-1.012c-2.756-1.841-3.497-5.567-1.656-8.322
						c4.483-6.711,9.171-13.407,13.931-19.902c1.959-2.673,5.713-3.25,8.387-1.293c2.673,1.959,3.251,5.714,1.293,8.387
						c-4.658,6.355-9.244,12.907-13.632,19.475C877.544,516.589,875.644,517.525,873.706,517.525z M902.107,478.767
						c-1.316,0-2.642-0.431-3.749-1.318c-2.585-2.072-3.001-5.849-0.929-8.435c5.039-6.286,10.286-12.549,15.596-18.613
						c2.183-2.493,5.971-2.746,8.467-0.563c2.493,2.183,2.745,5.974,0.563,8.467c-5.196,5.935-10.331,12.064-15.262,18.215
						C905.607,477.999,903.865,478.767,902.107,478.767z M933.747,442.631c-1.489,0-2.98-0.551-4.143-1.661
						c-2.396-2.288-2.484-6.086-0.195-8.483c5.559-5.821,11.325-11.603,17.139-17.188c2.389-2.296,6.188-2.22,8.483,0.171
						c2.296,2.39,2.219,6.189-0.171,8.483c-5.69,5.465-11.333,11.124-16.773,16.82C936.908,442.008,935.329,442.631,933.747,442.631
						z M968.379,409.374c-1.664,0-3.319-0.689-4.505-2.035c-2.19-2.487-1.949-6.278,0.538-8.468
						c6.049-5.326,12.292-10.587,18.555-15.637c2.579-2.081,6.357-1.674,8.437,0.905c2.08,2.579,1.675,6.356-0.905,8.436
						c-6.128,4.941-12.236,10.089-18.156,15.301C971.202,408.881,969.787,409.374,968.379,409.374z M1005.739,379.249
						c-1.841,0-3.658-0.844-4.834-2.44c-1.967-2.667-1.398-6.424,1.269-8.39c6.475-4.773,13.145-9.473,19.829-13.966
						c2.75-1.85,6.478-1.118,8.326,1.631c1.85,2.749,1.119,6.477-1.631,8.327c-6.539,4.397-13.067,8.995-19.403,13.666
						C1008.224,378.868,1006.976,379.249,1005.739,379.249z M1045.548,352.483c-2.021,0-3.994-1.021-5.125-2.872
						c-1.729-2.827-0.837-6.52,1.99-8.248c6.871-4.2,13.922-8.301,20.956-12.189c2.9-1.604,6.55-0.552,8.153,2.349
						c1.604,2.899,0.552,6.551-2.349,8.153c-6.882,3.805-13.78,7.816-20.503,11.926
						C1047.694,352.199,1046.614,352.483,1045.548,352.483z M1087.505,329.289c-2.206,0-4.328-1.221-5.377-3.329
						c-1.476-2.968-0.267-6.569,2.7-8.044c7.207-3.584,14.584-7.053,21.926-10.311c3.025-1.342,6.573,0.021,7.918,3.051
						c1.344,3.028-0.021,6.573-3.051,7.918c-7.182,3.188-14.398,6.581-21.449,10.087
						C1089.313,329.087,1088.402,329.289,1087.505,329.289z M1131.291,309.85c-2.396,0-4.659-1.445-5.587-3.81
						c-1.211-3.084,0.308-6.566,3.393-7.777c7.51-2.948,15.177-5.766,22.786-8.373c3.134-1.071,6.547,0.596,7.621,3.73
						c1.074,3.135-0.596,6.547-3.73,7.621c-7.444,2.551-14.944,5.308-22.292,8.191
						C1132.762,309.716,1132.021,309.85,1131.291,309.85z M1530.412,308.315c-0.715,0-1.441-0.129-2.148-0.4
						c-7.367-2.826-14.891-5.525-22.362-8.021c-3.143-1.05-4.84-4.448-3.789-7.592c1.05-3.143,4.451-4.839,7.592-3.789
						c7.637,2.551,15.328,5.31,22.858,8.199c3.094,1.187,4.64,4.657,3.452,7.751
						C1535.099,306.849,1532.824,308.315,1530.412,308.315z M1176.707,294.281c-2.592,0-4.983-1.694-5.753-4.308
						c-0.936-3.179,0.883-6.514,4.062-7.45c7.738-2.278,15.622-4.413,23.432-6.344c3.215-0.803,6.47,1.167,7.265,4.384
						c0.796,3.217-1.167,6.47-4.384,7.265c-7.64,1.89-15.353,3.978-22.924,6.207
						C1177.839,294.201,1177.269,294.281,1176.707,294.281z M1484.863,293.092c-0.546,0-1.101-0.075-1.652-0.233
						c-7.589-2.169-15.321-4.198-22.981-6.031c-3.223-0.771-5.211-4.008-4.439-7.23c0.77-3.224,4.009-5.212,7.23-4.44
						c7.83,1.872,15.733,3.946,23.489,6.164c3.186,0.91,5.03,4.231,4.119,7.418C1489.876,291.375,1487.474,293.092,1484.863,293.092
						z M1223.31,282.75c-2.798,0-5.302-1.968-5.875-4.816c-0.654-3.248,1.448-6.412,4.697-7.066
						c7.887-1.589,15.927-3.025,23.895-4.271c3.277-0.518,6.343,1.727,6.854,5.001c0.512,3.274-1.728,6.343-5.001,6.854
						c-7.797,1.219-15.662,2.624-23.379,4.179C1224.102,282.711,1223.703,282.75,1223.31,282.75z M1438.15,281.921
						c-0.378,0-0.761-0.035-1.146-0.11c-7.737-1.495-15.617-2.841-23.421-3.997c-3.278-0.486-5.541-3.538-5.056-6.815
						c0.487-3.277,3.546-5.533,6.815-5.056c7.977,1.183,16.03,2.558,23.938,4.087c3.254,0.629,5.381,3.776,4.752,7.029
						C1443.479,279.927,1440.967,281.921,1438.15,281.921z M1270.745,275.335c-3.016,0-5.612-2.267-5.956-5.334
						c-0.368-3.293,2.002-6.261,5.296-6.63c8.005-0.896,16.137-1.629,24.171-2.178c3.337-0.21,6.17,2.273,6.396,5.577
						c0.226,3.307-2.271,6.169-5.577,6.396c-7.862,0.537-15.821,1.254-23.654,2.131
						C1271.193,275.322,1270.968,275.335,1270.745,275.335z M1390.636,274.871c-0.207,0-0.417-0.01-0.628-0.032
						c-7.83-0.815-15.8-1.47-23.685-1.947c-3.309-0.2-5.827-3.044-5.627-6.352c0.2-3.308,3.034-5.81,6.353-5.626
						c8.057,0.488,16.199,1.158,24.201,1.99c3.296,0.343,5.689,3.293,5.347,6.589
						C1396.275,272.577,1393.671,274.871,1390.636,274.871z M1318.65,272.059c-3.243,0-5.913-2.587-5.995-5.849
						c-0.084-3.313,2.534-6.065,5.847-6.149c8.045-0.203,16.226-0.235,24.282-0.094c3.313,0.059,5.952,2.791,5.894,6.104
						c-0.059,3.313-2.705,5.98-6.104,5.894c-7.887-0.137-15.895-0.107-23.769,0.092
						C1318.754,272.058,1318.702,272.059,1318.65,272.059z"/>
					<path style="fill:#FFFFFF;" d="M1563.763,322.39c-0.842,0-1.696-0.178-2.51-0.553c-3.588-1.656-7.195-3.273-10.824-4.853
						c-3.038-1.322-4.43-4.857-3.107-7.896c1.322-3.039,4.855-4.428,7.896-3.107c3.709,1.614,7.396,3.268,11.063,4.96
						c3.008,1.389,4.321,4.954,2.934,7.962C1568.202,321.098,1566.031,322.39,1563.763,322.39z"/>
				</g>
			</g>
			<g>
				<path style="fill:#7D97F4;" d="M1219.041,410.773h333.147c15.83,0,26.165,16.611,19.17,30.812L1441.701,704.83
					c-9.783,19.863,4.672,43.098,26.814,43.098h70.188c20.25,0,32.19,22.718,20.706,39.396l-368.245,534.832
					c-7.357,10.685-24.111,4.62-22.924-8.297l38.888-423.447c1.07-11.656-8.104-21.712-19.809-21.712h-68.137
					c-25.752,0-44.532-24.375-37.965-49.276l100.114-379.597C1185.847,422.704,1201.333,410.773,1219.041,410.773z"/>
				
					<linearGradient id="SVGID_00000073690424221547714450000013773945073457403314_" gradientUnits="userSpaceOnUse" x1="2009.1597" y1="-419.9008" x2="1801.1594" y2="-83.9006">
					<stop  offset="0" style="stop-color:#09005D"/>
					<stop  offset="1" style="stop-color:#1A0F91"/>
				</linearGradient>
				<path style="fill:url(#SVGID_00000073690424221547714450000013773945073457403314_);" d="M1180.952,1316.055
					c-0.374,0-0.825-0.187-1.052-0.435c-0.062-0.068-0.165-0.181-0.118-0.702l38.888-423.445c0.808-8.793-2.142-17.577-8.094-24.1
					c-5.951-6.523-14.428-10.265-23.259-10.265h-68.136c-8.651,0-16.641-3.93-21.921-10.783c-5.279-6.853-7.042-15.58-4.837-23.945
					l100.113-379.599c3.172-12.022,14.07-20.418,26.504-20.418h333.146c4.904,0,7.44,3.226,8.303,4.613
					c0.863,1.387,2.636,5.087,0.47,9.487l-129.659,263.244c-6.376,12.946-5.632,27.99,1.991,40.244
					c7.624,12.253,20.791,19.568,35.222,19.568h70.187c5.126,0,9.609,2.709,11.993,7.246c2.385,4.536,2.073,9.764-0.833,13.985
					l-368.245,534.832C1181.293,1316.055,1181.142,1316.055,1180.952,1316.055z"/>
			</g>
			<path style="fill:#7D97F4;" d="M1205.387,1247.65c-0.672,0-1.353-0.114-2.013-0.353c-2.528-0.917-4.121-3.427-3.874-6.103
				l9.922-108.042c0.233-2.55,2.48-4.428,5.042-4.193c2.549,0.234,4.427,2.491,4.193,5.042l-8.747,95.244l166.205-241.393
				c1.451-2.11,4.336-2.642,6.449-1.19c2.109,1.452,2.642,4.34,1.19,6.449l-173.495,251.98
				C1209.131,1246.728,1207.291,1247.65,1205.387,1247.65z"/>
			<path style="fill:#7D97F4;" d="M1155.226,679.813c-0.392,0-0.789-0.05-1.186-0.154c-2.476-0.653-3.953-3.19-3.301-5.667
				l59.732-226.481c1.027-3.887,4.55-6.602,8.571-6.602h60.076c2.561,0,4.637,2.076,4.637,4.637c0,2.56-2.076,4.636-4.637,4.636
				h-59.761l-59.65,226.176C1159.157,678.438,1157.28,679.813,1155.226,679.813z"/>
		</g>
		<g>
			
				<linearGradient id="SVGID_00000024680373170690563390000015036156678627675325_" gradientUnits="userSpaceOnUse" x1="818.7317" y1="589.3801" x2="782.7311" y2="1069.3821">
				<stop  offset="0" style="stop-color:#4042E2"/>
				<stop  offset="1" style="stop-color:#4F52FF"/>
			</linearGradient>
			<path style="fill:url(#SVGID_00000024680373170690563390000015036156678627675325_);" d="M950.883,891.828
				c0,110.82-69.402,165.349-155.015,165.349s-155.015-54.529-155.015-165.349c0-88.657,99.211-233.025,138.894-287.224
				c7.986-10.907,24.256-10.907,32.242,0C851.673,658.803,950.883,803.172,950.883,891.828z"/>
			<path style="fill:#91B3FA;" d="M797.847,1031.223c-74.628,0-135.343-57.529-135.343-128.243c0-16.473,3.25-32.512,9.659-47.671
				c0.646-1.526,2.407-2.245,3.932-1.595c1.526,0.645,2.24,2.405,1.595,3.931c-6.095,14.417-9.186,29.67-9.186,45.335
				c0,67.405,58.023,122.243,129.343,122.243c30.764,0,60.573-10.383,83.939-29.236c1.291-1.039,3.18-0.837,4.219,0.451
				c1.04,1.289,0.838,3.178-0.451,4.219C861.125,1020.368,829.977,1031.223,797.847,1031.223z"/>
		</g>
		<g>
			<path style="fill:#7D97F4;" d="M584.546,1166.245c-12.18-9.205-27.291-1.016-32.028,17.357l-8.097,31.404
				c-5.673,22-25.498,28.324-37.276,11.89l-63.885-89.138c-6.536-9.119-16.301-11.775-24.754-6.731l-86.931,51.869L199,1464.423
				h641.852l-111.182-188.497L584.546,1166.245z"/>
			<path style="fill:#BDD0FB;" d="M443.26,1137.758l63.885,89.138c11.778,16.434,31.603,10.109,37.276-11.89l8.097-31.404
				c4.737-18.373,19.848-26.562,32.028-17.357l145.124,109.682L532.063,940.904c-24.647-41.786-68.568-38.143-90.046,7.467
				l-110.442,234.525l86.931-51.869C426.959,1125.984,436.724,1128.639,443.26,1137.758z"/>
		</g>
		<g>
			<path style="fill:#7D97F4;" d="M1151.602,1358.491c-5.454-3.27-12.221-0.361-14.343,6.166l-3.626,11.157
				c-2.54,7.816-11.418,10.063-16.693,4.224l-28.609-31.667c-2.927-3.24-7.3-4.183-11.085-2.391l-38.929,18.427l-59.369,100.016
				h287.429l-49.789-66.966L1151.602,1358.491z"/>
			<path style="fill:#BDD0FB;" d="M1088.332,1348.371l28.609,31.667c5.274,5.838,14.152,3.592,16.693-4.224l3.626-11.157
				c2.122-6.527,8.888-9.436,14.343-6.166l64.988,38.966l-88.491-119.021c-11.037-14.845-30.705-13.551-40.324,2.653l-49.457,83.318
				l38.929-18.427C1081.033,1344.188,1085.405,1345.132,1088.332,1348.371z"/>
		</g>
		<g>
			<path style="fill:#91B3FA;" d="M2140.84,1007.299c-0.107-3.101-4.776-5.596-10.498-5.596H1783.27
				c-5.799,0-11.958,2.572-11.958,5.715v439.037c0,2.346,2.452,4.596,5.517,6.253c3.065,1.657,7.585,2.584,11.913,2.578
				l350.873-0.519c4.366-0.006,8.635-0.962,11.69-2.654c3.054-1.691,4.773-3.982,4.691-6.348L2140.84,1007.299z"/>
			<g>
				<polygon style="fill:#91B3FA;" points="1941.521,1032.817 1827.986,1032.604 1828.028,1024.904 1941.436,1025.098 				"/>
				<polygon style="fill:#91B3FA;" points="1941.832,1061.177 1827.83,1060.895 1827.873,1053.132 1941.747,1053.395 				"/>
				<polygon style="fill:#91B3FA;" points="1942.146,1089.771 1827.673,1089.42 1827.716,1081.592 1942.06,1081.925 				"/>
				<polygon style="fill:#91B3FA;" points="1942.463,1118.604 1827.515,1118.181 1827.559,1110.289 1942.376,1110.693 				"/>
				<polygon style="fill:#91B3FA;" points="1942.782,1147.676 1827.356,1147.181 1827.4,1139.223 1942.694,1139.699 				"/>
				<polygon style="fill:#91B3FA;" points="1943.428,1206.554 1827.033,1205.91 1827.077,1197.818 1943.339,1198.442 				"/>
				<polygon style="fill:#91B3FA;" points="1944.418,1296.75 1826.538,1295.873 1826.584,1287.574 1944.326,1288.429 				"/>
				<polygon style="fill:#91B3FA;" points="1943.103,1176.992 1827.195,1176.422 1827.239,1168.398 1943.015,1168.948 				"/>
				<polygon style="fill:#91B3FA;" points="1943.755,1236.366 1826.869,1235.645 1826.914,1227.485 1943.665,1228.185 				"/>
				<polygon style="fill:#91B3FA;" points="1944.085,1266.43 1826.704,1265.632 1826.75,1257.403 1943.995,1258.18 				"/>
				<polygon style="fill:#91B3FA;" points="1944.753,1327.329 1826.37,1326.372 1826.416,1318.002 1944.661,1318.937 				"/>
				<polygon style="fill:#91B3FA;" points="1945.092,1358.17 1826.201,1357.132 1826.248,1348.691 1944.999,1349.706 				"/>
				<polygon style="fill:#91B3FA;" points="1945.433,1389.278 1826.031,1388.157 1826.077,1379.643 1945.34,1380.741 				"/>
				<polygon style="fill:#91B3FA;" points="1945.778,1420.655 1825.859,1419.45 1825.906,1410.862 1945.683,1412.044 				"/>
				<polygon style="fill:#91B3FA;" points="2090.374,1033.096 1976.127,1032.881 1976.003,1025.157 2090.122,1025.353 				"/>
				<polygon style="fill:#91B3FA;" points="2091.301,1061.547 1976.581,1061.263 1976.456,1053.475 2091.047,1053.74 				"/>
				<polygon style="fill:#91B3FA;" points="2092.235,1090.233 1977.038,1089.879 1976.913,1082.026 2091.979,1082.361 				"/>
				<polygon style="fill:#91B3FA;" points="2093.177,1119.159 1977.5,1118.733 1977.373,1110.816 2092.919,1111.222 				"/>
				<polygon style="fill:#91B3FA;" points="2094.127,1148.327 1977.966,1147.828 1977.838,1139.844 2093.867,1140.323 				"/>
				<polygon style="fill:#91B3FA;" points="2096.052,1207.399 1978.908,1206.75 1978.778,1198.632 2095.787,1199.26 				"/>
				<polygon style="fill:#91B3FA;" points="2099,1297.899 1980.352,1297.017 1980.219,1288.69 2098.727,1289.55 				"/>
				<polygon style="fill:#91B3FA;" points="2095.086,1177.739 1978.435,1177.166 1978.306,1169.115 2094.823,1169.667 				"/>
				<polygon style="fill:#91B3FA;" points="2097.026,1237.311 1979.385,1236.585 1979.254,1228.398 2096.759,1229.102 				"/>
				<polygon style="fill:#91B3FA;" points="2098.009,1267.476 1979.867,1266.673 1979.734,1258.416 2097.739,1259.198 				"/>
				<polygon style="fill:#91B3FA;" points="2099.999,1328.583 1980.842,1327.62 1980.707,1319.222 2099.725,1320.162 				"/>
				<polygon style="fill:#91B3FA;" points="2101.007,1359.531 1981.335,1358.486 1981.2,1350.016 2100.73,1351.038 				"/>
				<polygon style="fill:#91B3FA;" points="2102.024,1390.748 1981.833,1389.62 1981.697,1381.076 2101.745,1382.181 				"/>
				<polygon style="fill:#91B3FA;" points="2103.05,1422.234 1982.336,1421.022 1982.198,1412.404 2102.768,1413.593 				"/>
			</g>
		</g>
		<g>
			
				<linearGradient id="SVGID_00000113350873929648866990000010885409445352018590_" gradientUnits="userSpaceOnUse" x1="726.0889" y1="1122.0278" x2="752.1889" y2="1613.0289">
				<stop  offset="0" style="stop-color:#09005D"/>
				<stop  offset="1" style="stop-color:#1A0F91"/>
			</linearGradient>
			
				<rect x="540.851" y="1131.875" style="fill:url(#SVGID_00000113350873929648866990000010885409445352018590_);" width="389.2" height="332.549"/>
			<g>
				
					<linearGradient id="SVGID_00000065768264081390171210000006981085978707184266_" gradientUnits="userSpaceOnUse" x1="304.7375" y1="944.249" x2="374.7374" y2="1066.2489">
					<stop  offset="0" style="stop-color:#09005D"/>
					<stop  offset="1" style="stop-color:#1A0F91"/>
				</linearGradient>
				<path style="fill:url(#SVGID_00000065768264081390171210000006981085978707184266_);" d="M545.362,1089.902h-78.317
					c-4.282,0-7.898,5.502-8.445,12.85l-21.363,286.685c-0.047,0.625-0.07,1.254-0.07,1.884v57.56
					c0,8.138,3.812,14.735,8.515,14.735h13.875h93.293h13.875c4.703,0,8.515-6.597,8.515-14.735v-57.56
					c0-0.63-0.023-1.259-0.07-1.884l-21.363-286.685C553.26,1095.404,549.644,1089.902,545.362,1089.902z"/>
				
					<linearGradient id="SVGID_00000041991188330406349160000011073422843719118491_" gradientUnits="userSpaceOnUse" x1="1277.5741" y1="1186.6315" x2="1163.5741" y2="1220.6316">
					<stop  offset="0" style="stop-color:#09005D"/>
					<stop  offset="1" style="stop-color:#1A0F91"/>
				</linearGradient>
				<path style="fill:url(#SVGID_00000041991188330406349160000011073422843719118491_);" d="M1003.857,1089.902H925.54
					c-4.282,0-7.898,5.502-8.445,12.85l-21.363,286.685c-0.047,0.625-0.07,1.254-0.07,1.884v57.56
					c0,8.138,3.812,14.735,8.515,14.735h13.875h93.293h13.875c4.703,0,8.515-6.597,8.515-14.735v-57.56
					c0-0.63-0.023-1.259-0.07-1.884l-21.363-286.685C1011.755,1095.404,1008.139,1089.902,1003.857,1089.902z"/>
			</g>
			<g>
				<g>
					<path style="fill:#BDD0FB;" d="M675.068,1464.423h-79.452V1265.23c0-21.94,17.786-39.726,39.726-39.726
						c21.94,0,39.726,17.786,39.726,39.726V1464.423z"/>
					
						<linearGradient id="SVGID_00000026866742221132459810000015316620365716776832_" gradientUnits="userSpaceOnUse" x1="628.4687" y1="1432.6005" x2="676.4689" y2="1208.6005">
						<stop  offset="0" style="stop-color:#4042E2"/>
						<stop  offset="1" style="stop-color:#4F52FF"/>
					</linearGradient>
					<path style="fill:url(#SVGID_00000026866742221132459810000015316620365716776832_);" d="M673.457,1292.986
						c0-31.92-12.735-57.796-28.445-57.796h-19.34c-15.71,0-28.445,25.876-28.445,57.796l-11.939,171.437h11.939h76.231h11.939
						L673.457,1292.986z"/>
				</g>
				<g>
					<path style="fill:#BDD0FB;" d="M775.177,1464.423h-79.452V1265.23c0-21.94,17.786-39.726,39.726-39.726
						s39.726,17.786,39.726,39.726V1464.423z"/>
					
						<linearGradient id="SVGID_00000178883466609622955650000011395690196016043672_" gradientUnits="userSpaceOnUse" x1="724.1829" y1="1453.1106" x2="772.183" y2="1229.1106">
						<stop  offset="0" style="stop-color:#4042E2"/>
						<stop  offset="1" style="stop-color:#4F52FF"/>
					</linearGradient>
					<path style="fill:url(#SVGID_00000178883466609622955650000011395690196016043672_);" d="M773.566,1292.986
						c0-31.92-12.735-57.796-28.445-57.796h-19.34c-15.71,0-28.445,25.876-28.445,57.796l-11.939,171.437h11.939h76.231h11.939
						L773.566,1292.986z"/>
				</g>
				<g>
					<path style="fill:#BDD0FB;" d="M875.286,1464.423h-79.452V1265.23c0-21.94,17.786-39.726,39.726-39.726
						s39.726,17.786,39.726,39.726V1464.423z"/>
					
						<linearGradient id="SVGID_00000012443792251188372900000002966333652619828108_" gradientUnits="userSpaceOnUse" x1="819.897" y1="1473.6207" x2="867.8972" y2="1249.6207">
						<stop  offset="0" style="stop-color:#4042E2"/>
						<stop  offset="1" style="stop-color:#4F52FF"/>
					</linearGradient>
					<path style="fill:url(#SVGID_00000012443792251188372900000002966333652619828108_);" d="M873.675,1292.986
						c0-31.92-12.735-57.796-28.445-57.796h-19.34c-15.71,0-28.445,25.876-28.445,57.796l-11.939,171.437h11.939h76.231h11.939
						L873.675,1292.986z"/>
				</g>
			</g>
		</g>
		<g>
			<g>
				
					<linearGradient id="SVGID_00000011719219302592763330000004989980686783664013_" gradientUnits="userSpaceOnUse" x1="-997.8022" y1="1056.0385" x2="-990.4356" y2="1056.0385" gradientTransform="matrix(-1 0 0 1 1352 0)">
					<stop  offset="0" style="stop-color:#09005D"/>
					<stop  offset="1" style="stop-color:#1A0F91"/>
				</linearGradient>
				<path style="fill:url(#SVGID_00000011719219302592763330000004989980686783664013_);" d="M2346.119,1073.074
					c2.034,0,3.683-1.649,3.683-3.683v-26.704c0-2.034-1.649-3.683-3.683-3.683c-2.034,0-3.683,1.649-3.683,3.683v26.704
					C2342.436,1071.425,2344.085,1073.074,2346.119,1073.074z"/>
				<g>
					
						<linearGradient id="SVGID_00000130621499374801475320000017180425620396676236_" gradientUnits="userSpaceOnUse" x1="-1005" y1="1054.1969" x2="-982.4604" y2="1054.1969" gradientTransform="matrix(-1 0 0 1 1352 0)">
						<stop  offset="0" style="stop-color:#09005D"/>
						<stop  offset="1" style="stop-color:#1A0F91"/>
					</linearGradient>
					<path style="fill:url(#SVGID_00000130621499374801475320000017180425620396676236_);" d="M2334.46,1054.197
						c0,1.78,1.218,3.223,2.72,3.223h17.099c1.502,0,2.72-1.443,2.72-3.223s-1.218-3.223-2.72-3.223h-17.099
						C2335.678,1050.974,2334.46,1052.417,2334.46,1054.197z"/>
					
						<linearGradient id="SVGID_00000163044438684478691080000004624500647641678500_" gradientUnits="userSpaceOnUse" x1="-1005" y1="1069.8508" x2="-982.4604" y2="1069.8508" gradientTransform="matrix(-1 0 0 1 1352 0)">
						<stop  offset="0" style="stop-color:#09005D"/>
						<stop  offset="1" style="stop-color:#1A0F91"/>
					</linearGradient>
					<path style="fill:url(#SVGID_00000163044438684478691080000004624500647641678500_);" d="M2334.46,1069.851
						c0,1.78,1.218,3.223,2.72,3.223h17.099c1.502,0,2.72-1.443,2.72-3.223c0-1.78-1.218-3.223-2.72-3.223h-17.099
						C2335.678,1066.628,2334.46,1068.071,2334.46,1069.851z"/>
				</g>
			</g>
			<g>
				
					<linearGradient id="SVGID_00000002357501581159127160000001833717715241559219_" gradientUnits="userSpaceOnUse" x1="-706.342" y1="1056.0385" x2="-698.9753" y2="1056.0385" gradientTransform="matrix(-1 0 0 1 1352 0)">
					<stop  offset="0" style="stop-color:#09005D"/>
					<stop  offset="1" style="stop-color:#1A0F91"/>
				</linearGradient>
				<path style="fill:url(#SVGID_00000002357501581159127160000001833717715241559219_);" d="M2054.658,1073.074
					c2.034,0,3.684-1.649,3.684-3.683v-26.704c0-2.034-1.649-3.683-3.684-3.683c-2.034,0-3.683,1.649-3.683,3.683v26.704
					C2050.975,1071.425,2052.625,1073.074,2054.658,1073.074z"/>
				<g>
					
						<linearGradient id="SVGID_00000080193323606606638830000014282900872247285664_" gradientUnits="userSpaceOnUse" x1="-713.5396" y1="1054.1969" x2="-691" y2="1054.1969" gradientTransform="matrix(-1 0 0 1 1352 0)">
						<stop  offset="0" style="stop-color:#09005D"/>
						<stop  offset="1" style="stop-color:#1A0F91"/>
					</linearGradient>
					<path style="fill:url(#SVGID_00000080193323606606638830000014282900872247285664_);" d="M2043,1054.197
						c0,1.78,1.218,3.223,2.72,3.223h17.099c1.502,0,2.72-1.443,2.72-3.223s-1.218-3.223-2.72-3.223h-17.099
						C2044.218,1050.974,2043,1052.417,2043,1054.197z"/>
					
						<linearGradient id="SVGID_00000125594900528477753040000018214231570744568716_" gradientUnits="userSpaceOnUse" x1="-713.5396" y1="1069.8508" x2="-691" y2="1069.8508" gradientTransform="matrix(-1 0 0 1 1352 0)">
						<stop  offset="0" style="stop-color:#09005D"/>
						<stop  offset="1" style="stop-color:#1A0F91"/>
					</linearGradient>
					<path style="fill:url(#SVGID_00000125594900528477753040000018214231570744568716_);" d="M2043,1069.851
						c0,1.78,1.218,3.223,2.72,3.223h17.099c1.502,0,2.72-1.443,2.72-3.223c0-1.78-1.218-3.223-2.72-3.223h-17.099
						C2044.218,1066.628,2043,1068.071,2043,1069.851z"/>
				</g>
			</g>
			<g>
				
					<linearGradient id="SVGID_00000078762968075990846950000005857462912665888177_" gradientUnits="userSpaceOnUse" x1="-710.228" y1="1185.8743" x2="-702.8613" y2="1185.8743" gradientTransform="matrix(-1 0 0 1 1352 0)">
					<stop  offset="0" style="stop-color:#09005D"/>
					<stop  offset="1" style="stop-color:#1A0F91"/>
				</linearGradient>
				<path style="fill:url(#SVGID_00000078762968075990846950000005857462912665888177_);" d="M2058.545,1202.91
					c2.034,0,3.683-1.649,3.683-3.683v-26.704c0-2.034-1.649-3.683-3.683-3.683c-2.034,0-3.683,1.649-3.683,3.683v26.704
					C2054.861,1201.26,2056.51,1202.91,2058.545,1202.91z"/>
				<g>
					
						<linearGradient id="SVGID_00000124128890889577129470000015901014382756787340_" gradientUnits="userSpaceOnUse" x1="-717.4258" y1="1184.0327" x2="-694.8861" y2="1184.0327" gradientTransform="matrix(-1 0 0 1 1352 0)">
						<stop  offset="0" style="stop-color:#09005D"/>
						<stop  offset="1" style="stop-color:#1A0F91"/>
					</linearGradient>
					<path style="fill:url(#SVGID_00000124128890889577129470000015901014382756787340_);" d="M2046.886,1184.033
						c0,1.78,1.218,3.223,2.72,3.223h17.099c1.502,0,2.72-1.443,2.72-3.223s-1.218-3.223-2.72-3.223h-17.099
						C2048.104,1180.81,2046.886,1182.253,2046.886,1184.033z"/>
					
						<linearGradient id="SVGID_00000044150978304556929730000014819667849114776717_" gradientUnits="userSpaceOnUse" x1="-717.4258" y1="1199.6866" x2="-694.8861" y2="1199.6866" gradientTransform="matrix(-1 0 0 1 1352 0)">
						<stop  offset="0" style="stop-color:#09005D"/>
						<stop  offset="1" style="stop-color:#1A0F91"/>
					</linearGradient>
					<path style="fill:url(#SVGID_00000044150978304556929730000014819667849114776717_);" d="M2046.886,1199.687
						c0,1.78,1.218,3.223,2.72,3.223h17.099c1.502,0,2.72-1.443,2.72-3.223c0-1.78-1.218-3.223-2.72-3.223h-17.099
						C2048.104,1196.464,2046.886,1197.907,2046.886,1199.687z"/>
				</g>
			</g>
			<g>
				
					<linearGradient id="SVGID_00000061464085396707378140000018406567419411377037_" gradientUnits="userSpaceOnUse" x1="-997.8022" y1="1185.8743" x2="-990.4356" y2="1185.8743" gradientTransform="matrix(-1 0 0 1 1352 0)">
					<stop  offset="0" style="stop-color:#09005D"/>
					<stop  offset="1" style="stop-color:#1A0F91"/>
				</linearGradient>
				<path style="fill:url(#SVGID_00000061464085396707378140000018406567419411377037_);" d="M2346.119,1202.91
					c2.034,0,3.683-1.649,3.683-3.683v-26.704c0-2.034-1.649-3.683-3.683-3.683c-2.034,0-3.683,1.649-3.683,3.683v26.704
					C2342.436,1201.26,2344.085,1202.91,2346.119,1202.91z"/>
				<g>
					
						<linearGradient id="SVGID_00000093894577569679647490000006378643989973254284_" gradientUnits="userSpaceOnUse" x1="-1005" y1="1184.0327" x2="-982.4604" y2="1184.0327" gradientTransform="matrix(-1 0 0 1 1352 0)">
						<stop  offset="0" style="stop-color:#09005D"/>
						<stop  offset="1" style="stop-color:#1A0F91"/>
					</linearGradient>
					<path style="fill:url(#SVGID_00000093894577569679647490000006378643989973254284_);" d="M2334.46,1184.033
						c0,1.78,1.218,3.223,2.72,3.223h17.099c1.502,0,2.72-1.443,2.72-3.223s-1.218-3.223-2.72-3.223h-17.099
						C2335.678,1180.81,2334.46,1182.253,2334.46,1184.033z"/>
					
						<linearGradient id="SVGID_00000026877577738449781230000017883782930666434960_" gradientUnits="userSpaceOnUse" x1="-1005" y1="1199.6866" x2="-982.4604" y2="1199.6866" gradientTransform="matrix(-1 0 0 1 1352 0)">
						<stop  offset="0" style="stop-color:#09005D"/>
						<stop  offset="1" style="stop-color:#1A0F91"/>
					</linearGradient>
					<path style="fill:url(#SVGID_00000026877577738449781230000017883782930666434960_);" d="M2334.46,1199.687
						c0,1.78,1.218,3.223,2.72,3.223h17.099c1.502,0,2.72-1.443,2.72-3.223c0-1.78-1.218-3.223-2.72-3.223h-17.099
						C2335.678,1196.464,2334.46,1197.907,2334.46,1199.687z"/>
				</g>
			</g>
			<g>
				
					<linearGradient id="SVGID_00000152257852073718067750000007621691715041341364_" gradientUnits="userSpaceOnUse" x1="-947.1249" y1="1201.0812" x2="-747.0618" y2="1201.0812" gradientTransform="matrix(-1 0 0 1 1352 0)">
					<stop  offset="0" style="stop-color:#09005D"/>
					<stop  offset="1" style="stop-color:#1A0F91"/>
				</linearGradient>
				<path style="fill:url(#SVGID_00000152257852073718067750000007621691715041341364_);" d="M2102.75,1464.423
					c1.827,0,3.412-1.358,3.649-3.217l65.776-515.65l56.667,7.435l62.944,508.202c0.25,2.019,2.089,3.454,4.108,3.203
					c2.019-0.25,3.453-2.089,3.203-4.108l-63.294-511.03c-0.206-1.665-1.512-2.981-3.176-3.199l-63.158-8.287
					c-0.972-0.129-1.952,0.136-2.728,0.735c-0.776,0.598-1.281,1.48-1.405,2.451l-66.244,519.317
					c-0.258,2.018,1.17,3.863,3.188,4.12C2102.438,1464.413,2102.595,1464.423,2102.75,1464.423z"/>
				
					<linearGradient id="SVGID_00000003819860747856708210000003521553902611899292_" gradientUnits="userSpaceOnUse" x1="-999.2435" y1="1003.1168" x2="-694.3116" y2="1003.1168" gradientTransform="matrix(-1 0 0 1 1352 0)">
					<stop  offset="0" style="stop-color:#09005D"/>
					<stop  offset="1" style="stop-color:#1A0F91"/>
				</linearGradient>
				<path style="fill:url(#SVGID_00000003819860747856708210000003521553902611899292_);" d="M2049.995,1047.291h297.565
					c1.629,0,3.064-1.07,3.53-2.632c0.465-1.561-0.151-3.243-1.514-4.134l-113.07-73.949c-1.704-1.113-3.985-0.635-5.099,1.066
					c-1.113,1.703-0.635,3.985,1.067,5.099l102.725,67.183h-273.467l106.679-74.275c1.669-1.162,2.08-3.458,0.918-5.128
					c-1.162-1.67-3.458-2.08-5.127-0.918l-116.311,80.981c-1.321,0.919-1.892,2.59-1.41,4.126
					C2046.963,1046.246,2048.386,1047.291,2049.995,1047.291z"/>
				
					<linearGradient id="SVGID_00000036941523354999763990000007854104026199049911_" gradientUnits="userSpaceOnUse" x1="-999.2431" y1="1108.1187" x2="-698.9753" y2="1108.1187" gradientTransform="matrix(-1 0 0 1 1352 0)">
					<stop  offset="0" style="stop-color:#09005D"/>
					<stop  offset="1" style="stop-color:#1A0F91"/>
				</linearGradient>
				<path style="fill:url(#SVGID_00000036941523354999763990000007854104026199049911_);" d="M2054.658,1176.206h292.901
					c1.419,0,2.712-0.815,3.323-2.095c0.612-1.28,0.434-2.798-0.457-3.902l-103.956-128.751c-1.278-1.583-3.597-1.829-5.18-0.552
					c-1.583,1.278-1.83,3.597-0.552,5.18l99.114,122.754h-277.611l96.609-122.847c1.258-1.599,0.981-3.915-0.618-5.172
					c-1.599-1.258-3.915-0.98-5.172,0.618l-101.297,128.807c-0.872,1.109-1.034,2.618-0.418,3.886
					C2051.962,1175.401,2053.248,1176.206,2054.658,1176.206z"/>
				
					<linearGradient id="SVGID_00000147213874114657245470000003339701276136163490_" gradientUnits="userSpaceOnUse" x1="-883.8308" y1="993.8629" x2="-800.9845" y2="993.8629" gradientTransform="matrix(-1 0 0 1 1352 0)">
					<stop  offset="0" style="stop-color:#09005D"/>
					<stop  offset="1" style="stop-color:#1A0F91"/>
				</linearGradient>
				<path style="fill:url(#SVGID_00000147213874114657245470000003339701276136163490_);" d="M2156.666,1041.699
					c1.04,0,2.073-0.438,2.802-1.29l75.479-88.307c1.322-1.547,1.14-3.872-0.406-5.193c-1.548-1.321-3.872-1.139-5.193,0.407
					l-75.479,88.307c-1.322,1.547-1.14,3.872,0.406,5.193C2154.969,1041.409,2155.82,1041.699,2156.666,1041.699z"/>
				
					<linearGradient id="SVGID_00000019664230522493666100000004327503978035363973_" gradientUnits="userSpaceOnUse" x1="-894.7684" y1="989.7192" x2="-813.3058" y2="989.7192" gradientTransform="matrix(-1 0 0 1 1352 0)">
					<stop  offset="0" style="stop-color:#09005D"/>
					<stop  offset="1" style="stop-color:#1A0F91"/>
				</linearGradient>
				<path style="fill:url(#SVGID_00000019664230522493666100000004327503978035363973_);" d="M2243.088,1041.699
					c0.782,0,1.57-0.248,2.239-0.761c1.614-1.238,1.919-3.55,0.681-5.164l-74.095-96.594c-1.239-1.614-3.552-1.918-5.164-0.681
					c-1.614,1.238-1.919,3.55-0.681,5.164l74.095,96.594C2240.888,1041.203,2241.981,1041.699,2243.088,1041.699z"/>
				
					<linearGradient id="SVGID_00000159433812081252542880000013840767312077465510_" gradientUnits="userSpaceOnUse" x1="-932.1827" y1="1189.293" x2="-784.6329" y2="1189.293" gradientTransform="matrix(-1 0 0 1 1352 0)">
					<stop  offset="0" style="stop-color:#09005D"/>
					<stop  offset="1" style="stop-color:#1A0F91"/>
				</linearGradient>
				<path style="fill:url(#SVGID_00000159433812081252542880000013840767312077465510_);" d="M2280.501,1338.428
					c0.856,0,1.716-0.296,2.413-0.902c1.536-1.334,1.701-3.659,0.368-5.196l-138.165-159.201l102.222-126.977
					c1.275-1.585,1.025-3.903-0.56-5.179c-1.584-1.276-3.903-1.026-5.179,0.559l-104.153,129.375
					c-1.118,1.388-1.081,3.377,0.087,4.724l140.183,161.527C2278.446,1337.998,2279.471,1338.428,2280.501,1338.428z"/>
				
					<linearGradient id="SVGID_00000178884927513809874400000016817751138544101527_" gradientUnits="userSpaceOnUse" x1="1389.6436" y1="1188.3723" x2="1537.1929" y2="1188.3723" gradientTransform="matrix(1 0 0 1 726.7818 0)">
					<stop  offset="0" style="stop-color:#09005D"/>
					<stop  offset="1" style="stop-color:#1A0F91"/>
				</linearGradient>
				<path style="fill:url(#SVGID_00000178884927513809874400000016817751138544101527_);" d="M2120.107,1337.507
					c1.031,0,2.055-0.43,2.783-1.269l140.183-161.527c1.168-1.346,1.205-3.335,0.087-4.724l-104.153-129.375
					c-1.275-1.585-3.594-1.835-5.179-0.559c-1.584,1.276-1.835,3.594-0.559,5.179l102.222,126.977l-138.165,159.201
					c-1.333,1.536-1.168,3.862,0.368,5.196C2118.391,1337.21,2119.251,1337.507,2120.107,1337.507z"/>
			</g>
			
				<linearGradient id="SVGID_00000054256156667121425220000004168351947172984200_" gradientUnits="userSpaceOnUse" x1="-932.515" y1="1340.1119" x2="-762.7076" y2="1340.1119" gradientTransform="matrix(-1 0 0 1 1352 0)">
				<stop  offset="0" style="stop-color:#09005D"/>
				<stop  offset="1" style="stop-color:#1A0F91"/>
			</linearGradient>
			<path style="fill:url(#SVGID_00000054256156667121425220000004168351947172984200_);" d="M2118.391,1343.795h162.441
				c2.034,0,3.683-1.649,3.683-3.683c0-2.034-1.649-3.683-3.683-3.683h-162.441c-2.034,0-3.684,1.649-3.684,3.683
				C2114.708,1342.146,2116.357,1343.795,2118.391,1343.795z"/>
			
				<linearGradient id="SVGID_00000170993972534718904330000018013909691607258290_" gradientUnits="userSpaceOnUse" x1="-946.4709" y1="1397.9006" x2="-872.2965" y2="1397.9006" gradientTransform="matrix(-1 0 0 1 1352 0)">
				<stop  offset="0" style="stop-color:#09005D"/>
				<stop  offset="1" style="stop-color:#1A0F91"/>
			</linearGradient>
			<path style="fill:url(#SVGID_00000170993972534718904330000018013909691607258290_);" d="M2294.791,1459.139
				c0.628,0,1.264-0.161,1.845-0.498c1.759-1.021,2.358-3.275,1.337-5.034l-66.807-115.109c-1.021-1.76-3.274-2.358-5.034-1.337
				c-1.759,1.021-2.358,3.275-1.337,5.034l66.807,115.108C2292.285,1458.481,2293.521,1459.139,2294.791,1459.139z"/>
			
				<linearGradient id="SVGID_00000137114011778248924890000016165932825119244963_" gradientUnits="userSpaceOnUse" x1="1095.2078" y1="1397.9008" x2="1169.3821" y2="1397.9008" gradientTransform="matrix(1 0 0 1 1003.9551 0)">
				<stop  offset="0" style="stop-color:#09005D"/>
				<stop  offset="1" style="stop-color:#1A0F91"/>
			</linearGradient>
			<path style="fill:url(#SVGID_00000137114011778248924890000016165932825119244963_);" d="M2102.843,1459.139
				c1.27,0,2.506-0.657,3.189-1.835l66.807-115.108c1.021-1.759,0.422-4.013-1.337-5.034c-1.76-1.022-4.014-0.422-5.034,1.337
				l-66.807,115.109c-1.021,1.759-0.423,4.013,1.337,5.034C2101.58,1458.978,2102.216,1459.139,2102.843,1459.139z"/>
		</g>
		<g>
			<g>
				
					<linearGradient id="SVGID_00000135676658276088798930000008123656357614440869_" gradientUnits="userSpaceOnUse" x1="-540.57" y1="1214.7487" x2="-536.0664" y2="1214.7487" gradientTransform="matrix(-1 0 0 1 1352 0)">
					<stop  offset="0" style="stop-color:#09005D"/>
					<stop  offset="1" style="stop-color:#1A0F91"/>
				</linearGradient>
				<path style="fill:url(#SVGID_00000135676658276088798930000008123656357614440869_);" d="M1890.318,1225.163
					c1.244,0,2.252-1.008,2.252-2.252v-16.326c0-1.244-1.008-2.252-2.252-2.252c-1.244,0-2.252,1.008-2.252,2.252v16.326
					C1888.066,1224.155,1889.075,1225.163,1890.318,1225.163z"/>
				<g>
					
						<linearGradient id="SVGID_00000047747272379361337630000011781604999040858277_" gradientUnits="userSpaceOnUse" x1="-544.9706" y1="1213.6227" x2="-531.1906" y2="1213.6227" gradientTransform="matrix(-1 0 0 1 1352 0)">
						<stop  offset="0" style="stop-color:#09005D"/>
						<stop  offset="1" style="stop-color:#1A0F91"/>
					</linearGradient>
					<path style="fill:url(#SVGID_00000047747272379361337630000011781604999040858277_);" d="M1883.191,1213.623
						c0,1.088,0.745,1.97,1.663,1.97h10.454c0.918,0,1.663-0.882,1.663-1.97c0-1.088-0.745-1.97-1.663-1.97h-10.454
						C1883.935,1211.652,1883.191,1212.535,1883.191,1213.623z"/>
					
						<linearGradient id="SVGID_00000121251413819732891730000012162094687409229457_" gradientUnits="userSpaceOnUse" x1="-544.9706" y1="1223.1931" x2="-531.1906" y2="1223.1931" gradientTransform="matrix(-1 0 0 1 1352 0)">
						<stop  offset="0" style="stop-color:#09005D"/>
						<stop  offset="1" style="stop-color:#1A0F91"/>
					</linearGradient>
					<path style="fill:url(#SVGID_00000121251413819732891730000012162094687409229457_);" d="M1883.191,1223.193
						c0,1.088,0.745,1.97,1.663,1.97h10.454c0.918,0,1.663-0.882,1.663-1.97c0-1.088-0.745-1.97-1.663-1.97h-10.454
						C1883.935,1221.223,1883.191,1222.105,1883.191,1223.193z"/>
				</g>
			</g>
			<g>
				
					<linearGradient id="SVGID_00000018926855764236620540000013596454145696889734_" gradientUnits="userSpaceOnUse" x1="-362.3796" y1="1214.7487" x2="-357.876" y2="1214.7487" gradientTransform="matrix(-1 0 0 1 1352 0)">
					<stop  offset="0" style="stop-color:#09005D"/>
					<stop  offset="1" style="stop-color:#1A0F91"/>
				</linearGradient>
				<path style="fill:url(#SVGID_00000018926855764236620540000013596454145696889734_);" d="M1712.128,1225.163
					c1.244,0,2.252-1.008,2.252-2.252v-16.326c0-1.244-1.008-2.252-2.252-2.252s-2.252,1.008-2.252,2.252v16.326
					C1709.876,1224.155,1710.884,1225.163,1712.128,1225.163z"/>
				<g>
					
						<linearGradient id="SVGID_00000167393500679207200890000002733756953119317415_" gradientUnits="userSpaceOnUse" x1="-366.7802" y1="1213.6227" x2="-353" y2="1213.6227" gradientTransform="matrix(-1 0 0 1 1352 0)">
						<stop  offset="0" style="stop-color:#09005D"/>
						<stop  offset="1" style="stop-color:#1A0F91"/>
					</linearGradient>
					<path style="fill:url(#SVGID_00000167393500679207200890000002733756953119317415_);" d="M1705,1213.623
						c0,1.088,0.745,1.97,1.663,1.97h10.454c0.919,0,1.663-0.882,1.663-1.97c0-1.088-0.745-1.97-1.663-1.97h-10.454
						C1705.745,1211.652,1705,1212.535,1705,1213.623z"/>
					
						<linearGradient id="SVGID_00000170965366256201066960000000307575060267009209_" gradientUnits="userSpaceOnUse" x1="-366.7802" y1="1223.1931" x2="-353" y2="1223.1931" gradientTransform="matrix(-1 0 0 1 1352 0)">
						<stop  offset="0" style="stop-color:#09005D"/>
						<stop  offset="1" style="stop-color:#1A0F91"/>
					</linearGradient>
					<path style="fill:url(#SVGID_00000170965366256201066960000000307575060267009209_);" d="M1705,1223.193
						c0,1.088,0.745,1.97,1.663,1.97h10.454c0.919,0,1.663-0.882,1.663-1.97c0-1.088-0.745-1.97-1.663-1.97h-10.454
						C1705.745,1221.223,1705,1222.105,1705,1223.193z"/>
				</g>
			</g>
			<g>
				
					<linearGradient id="SVGID_00000015314647742255018610000015980733670951635897_" gradientUnits="userSpaceOnUse" x1="-364.7554" y1="1294.1265" x2="-360.2518" y2="1294.1265" gradientTransform="matrix(-1 0 0 1 1352 0)">
					<stop  offset="0" style="stop-color:#09005D"/>
					<stop  offset="1" style="stop-color:#1A0F91"/>
				</linearGradient>
				<path style="fill:url(#SVGID_00000015314647742255018610000015980733670951635897_);" d="M1714.504,1304.541
					c1.244,0,2.252-1.008,2.252-2.252v-16.326c0-1.244-1.008-2.252-2.252-2.252c-1.244,0-2.252,1.008-2.252,2.252v16.326
					C1712.252,1303.533,1713.26,1304.541,1714.504,1304.541z"/>
				<g>
					
						<linearGradient id="SVGID_00000152953005674197013080000016669073137808021423_" gradientUnits="userSpaceOnUse" x1="-369.156" y1="1293.0006" x2="-355.376" y2="1293.0006" gradientTransform="matrix(-1 0 0 1 1352 0)">
						<stop  offset="0" style="stop-color:#09005D"/>
						<stop  offset="1" style="stop-color:#1A0F91"/>
					</linearGradient>
					<path style="fill:url(#SVGID_00000152953005674197013080000016669073137808021423_);" d="M1707.376,1293
						c0,1.088,0.745,1.97,1.663,1.97h10.454c0.919,0,1.663-0.882,1.663-1.97c0-1.088-0.745-1.97-1.663-1.97h-10.454
						C1708.121,1291.03,1707.376,1291.912,1707.376,1293z"/>
					
						<linearGradient id="SVGID_00000112592314949776199810000012668586356324847496_" gradientUnits="userSpaceOnUse" x1="-369.156" y1="1302.571" x2="-355.376" y2="1302.571" gradientTransform="matrix(-1 0 0 1 1352 0)">
						<stop  offset="0" style="stop-color:#09005D"/>
						<stop  offset="1" style="stop-color:#1A0F91"/>
					</linearGradient>
					<path style="fill:url(#SVGID_00000112592314949776199810000012668586356324847496_);" d="M1707.376,1302.571
						c0,1.088,0.745,1.97,1.663,1.97h10.454c0.919,0,1.663-0.882,1.663-1.97c0-1.088-0.745-1.97-1.663-1.97h-10.454
						C1708.121,1300.601,1707.376,1301.483,1707.376,1302.571z"/>
				</g>
			</g>
			<g>
				
					<linearGradient id="SVGID_00000000918649068723974350000008878001941329904318_" gradientUnits="userSpaceOnUse" x1="-540.57" y1="1294.1265" x2="-536.0664" y2="1294.1265" gradientTransform="matrix(-1 0 0 1 1352 0)">
					<stop  offset="0" style="stop-color:#09005D"/>
					<stop  offset="1" style="stop-color:#1A0F91"/>
				</linearGradient>
				<path style="fill:url(#SVGID_00000000918649068723974350000008878001941329904318_);" d="M1890.318,1304.541
					c1.244,0,2.252-1.008,2.252-2.252v-16.326c0-1.244-1.008-2.252-2.252-2.252c-1.244,0-2.252,1.008-2.252,2.252v16.326
					C1888.066,1303.533,1889.075,1304.541,1890.318,1304.541z"/>
				<g>
					
						<linearGradient id="SVGID_00000159451062054091381960000015943738264063598237_" gradientUnits="userSpaceOnUse" x1="-544.9706" y1="1293.0006" x2="-531.1906" y2="1293.0006" gradientTransform="matrix(-1 0 0 1 1352 0)">
						<stop  offset="0" style="stop-color:#09005D"/>
						<stop  offset="1" style="stop-color:#1A0F91"/>
					</linearGradient>
					<path style="fill:url(#SVGID_00000159451062054091381960000015943738264063598237_);" d="M1883.191,1293
						c0,1.088,0.745,1.97,1.663,1.97h10.454c0.918,0,1.663-0.882,1.663-1.97c0-1.088-0.745-1.97-1.663-1.97h-10.454
						C1883.935,1291.03,1883.191,1291.912,1883.191,1293z"/>
					
						<linearGradient id="SVGID_00000065058529349972470520000010460538100213562274_" gradientUnits="userSpaceOnUse" x1="-544.9706" y1="1302.571" x2="-531.1906" y2="1302.571" gradientTransform="matrix(-1 0 0 1 1352 0)">
						<stop  offset="0" style="stop-color:#09005D"/>
						<stop  offset="1" style="stop-color:#1A0F91"/>
					</linearGradient>
					<path style="fill:url(#SVGID_00000065058529349972470520000010460538100213562274_);" d="M1883.191,1302.571
						c0,1.088,0.745,1.97,1.663,1.97h10.454c0.918,0,1.663-0.882,1.663-1.97c0-1.088-0.745-1.97-1.663-1.97h-10.454
						C1883.935,1300.601,1883.191,1301.483,1883.191,1302.571z"/>
				</g>
			</g>
			<g>
				
					<linearGradient id="SVGID_00000116196483642199389670000006266409841439192223_" gradientUnits="userSpaceOnUse" x1="-509.5875" y1="1303.4236" x2="-387.2746" y2="1303.4236" gradientTransform="matrix(-1 0 0 1 1352 0)">
					<stop  offset="0" style="stop-color:#09005D"/>
					<stop  offset="1" style="stop-color:#1A0F91"/>
				</linearGradient>
				<path style="fill:url(#SVGID_00000116196483642199389670000006266409841439192223_);" d="M1741.529,1464.423
					c1.117,0,2.086-0.83,2.231-1.967l40.214-315.254l34.644,4.546l38.482,310.7c0.153,1.234,1.277,2.112,2.512,1.958
					c1.234-0.153,2.111-1.277,1.958-2.512l-38.696-312.429c-0.126-1.018-0.925-1.822-1.942-1.956l-38.613-5.066
					c-0.594-0.079-1.194,0.083-1.668,0.449c-0.474,0.366-0.783,0.905-0.859,1.498l-40.5,317.496
					c-0.158,1.234,0.715,2.362,1.949,2.519C1741.338,1464.417,1741.435,1464.423,1741.529,1464.423z"/>
				
					<linearGradient id="SVGID_00000090994762499186331060000009636898279073164972_" gradientUnits="userSpaceOnUse" x1="-541.4513" y1="1182.3938" x2="-355.0247" y2="1182.3938" gradientTransform="matrix(-1 0 0 1 1352 0)">
					<stop  offset="0" style="stop-color:#09005D"/>
					<stop  offset="1" style="stop-color:#1A0F91"/>
				</linearGradient>
				<path style="fill:url(#SVGID_00000090994762499186331060000009636898279073164972_);" d="M1709.277,1209.401h181.922
					c0.996,0,1.874-0.654,2.158-1.609c0.284-0.954-0.092-1.982-0.926-2.527l-69.128-45.211c-1.042-0.68-2.437-0.388-3.117,0.652
					c-0.681,1.041-0.389,2.437,0.652,3.117l62.803,41.074h-167.19l65.221-45.409c1.021-0.711,1.272-2.114,0.561-3.135
					c-0.711-1.021-2.114-1.272-3.135-0.561l-71.109,49.509c-0.807,0.562-1.156,1.584-0.862,2.522
					C1707.423,1208.762,1708.293,1209.401,1709.277,1209.401z"/>
				
					<linearGradient id="SVGID_00000025439352879253427450000005725506224761714876_" gradientUnits="userSpaceOnUse" x1="-541.451" y1="1246.589" x2="-357.8759" y2="1246.589" gradientTransform="matrix(-1 0 0 1 1352 0)">
					<stop  offset="0" style="stop-color:#09005D"/>
					<stop  offset="1" style="stop-color:#1A0F91"/>
				</linearGradient>
				<path style="fill:url(#SVGID_00000025439352879253427450000005725506224761714876_);" d="M1712.128,1288.215h179.071
					c0.868,0,1.658-0.498,2.032-1.281c0.374-0.783,0.265-1.711-0.279-2.385l-63.556-78.715c-0.782-0.968-2.199-1.118-3.167-0.338
					c-0.968,0.781-1.119,2.199-0.338,3.167l60.595,75.048h-169.723l59.064-75.105c0.769-0.977,0.6-2.393-0.378-3.162
					c-0.977-0.769-2.393-0.599-3.162,0.378l-61.93,78.749c-0.533,0.678-0.632,1.6-0.256,2.376
					C1710.479,1287.723,1711.265,1288.215,1712.128,1288.215z"/>
				
					<linearGradient id="SVGID_00000132807585744889685180000006555843949899837624_" gradientUnits="userSpaceOnUse" x1="-470.8912" y1="1176.7362" x2="-420.2414" y2="1176.7362" gradientTransform="matrix(-1 0 0 1 1352 0)">
					<stop  offset="0" style="stop-color:#09005D"/>
					<stop  offset="1" style="stop-color:#1A0F91"/>
				</linearGradient>
				<path style="fill:url(#SVGID_00000132807585744889685180000006555843949899837624_);" d="M1774.492,1205.982
					c0.636,0,1.268-0.268,1.713-0.789l46.146-53.988c0.808-0.946,0.697-2.367-0.248-3.175c-0.946-0.808-2.367-0.696-3.175,0.248
					l-46.146,53.988c-0.808,0.946-0.697,2.367,0.249,3.175C1773.455,1205.804,1773.975,1205.982,1774.492,1205.982z"/>
				
					<linearGradient id="SVGID_00000114052002490452533670000002245631554577972921_" gradientUnits="userSpaceOnUse" x1="-477.5782" y1="1174.2029" x2="-427.7743" y2="1174.2029" gradientTransform="matrix(-1 0 0 1 1352 0)">
					<stop  offset="0" style="stop-color:#09005D"/>
					<stop  offset="1" style="stop-color:#1A0F91"/>
				</linearGradient>
				<path style="fill:url(#SVGID_00000114052002490452533670000002245631554577972921_);" d="M1827.328,1205.982
					c0.478,0,0.96-0.152,1.369-0.465c0.987-0.757,1.173-2.17,0.416-3.157l-45.3-59.054c-0.758-0.987-2.171-1.173-3.157-0.416
					c-0.987,0.757-1.173,2.17-0.416,3.157l45.3,59.055C1825.983,1205.679,1826.652,1205.982,1827.328,1205.982z"/>
				
					<linearGradient id="SVGID_00000068669649970578829510000001020572267272388252_" gradientUnits="userSpaceOnUse" x1="-500.4522" y1="1296.2167" x2="-410.2445" y2="1296.2167" gradientTransform="matrix(-1 0 0 1 1352 0)">
					<stop  offset="0" style="stop-color:#09005D"/>
					<stop  offset="1" style="stop-color:#1A0F91"/>
				</linearGradient>
				<path style="fill:url(#SVGID_00000068669649970578829510000001020572267272388252_);" d="M1850.201,1387.393
					c0.523,0,1.049-0.181,1.475-0.551c0.939-0.815,1.04-2.237,0.225-3.177l-84.47-97.331l62.496-77.63
					c0.78-0.969,0.627-2.386-0.342-3.166c-0.969-0.78-2.386-0.627-3.166,0.342l-63.676,79.096c-0.683,0.849-0.661,2.065,0.053,2.888
					l85.704,98.753C1848.945,1387.13,1849.572,1387.393,1850.201,1387.393z"/>
				
					<linearGradient id="SVGID_00000010274840737290321220000017546529148066182581_" gradientUnits="userSpaceOnUse" x1="1023.1083" y1="1295.6537" x2="1113.3158" y2="1295.6537" gradientTransform="matrix(1 0 0 1 726.7818 0)">
					<stop  offset="0" style="stop-color:#09005D"/>
					<stop  offset="1" style="stop-color:#1A0F91"/>
				</linearGradient>
				<path style="fill:url(#SVGID_00000010274840737290321220000017546529148066182581_);" d="M1752.141,1386.83
					c0.63,0,1.257-0.263,1.702-0.776l85.704-98.753c0.714-0.823,0.737-2.039,0.053-2.888l-63.676-79.096
					c-0.78-0.969-2.197-1.122-3.166-0.342c-0.969,0.78-1.122,2.197-0.342,3.166l62.495,77.63l-84.47,97.331
					c-0.815,0.939-0.714,2.361,0.225,3.177C1751.092,1386.649,1751.618,1386.83,1752.141,1386.83z"/>
			</g>
			
				<linearGradient id="SVGID_00000117671058086089540500000015877669628290593186_" gradientUnits="userSpaceOnUse" x1="-500.6554" y1="1388.423" x2="-396.84" y2="1388.423" gradientTransform="matrix(-1 0 0 1 1352 0)">
				<stop  offset="0" style="stop-color:#09005D"/>
				<stop  offset="1" style="stop-color:#1A0F91"/>
			</linearGradient>
			<path style="fill:url(#SVGID_00000117671058086089540500000015877669628290593186_);" d="M1751.092,1390.675h99.312
				c1.244,0,2.252-1.008,2.252-2.252c0-1.244-1.008-2.252-2.252-2.252h-99.312c-1.243,0-2.252,1.008-2.252,2.252
				C1748.84,1389.667,1749.848,1390.675,1751.092,1390.675z"/>
			
				<linearGradient id="SVGID_00000039105605659733703350000011665089300321601934_" gradientUnits="userSpaceOnUse" x1="-509.1876" y1="1423.7534" x2="-463.8395" y2="1423.7534" gradientTransform="matrix(-1 0 0 1 1352 0)">
				<stop  offset="0" style="stop-color:#09005D"/>
				<stop  offset="1" style="stop-color:#1A0F91"/>
			</linearGradient>
			<path style="fill:url(#SVGID_00000039105605659733703350000011665089300321601934_);" d="M1858.938,1461.193
				c0.384,0,0.772-0.098,1.128-0.305c1.076-0.624,1.441-2.002,0.817-3.078l-40.844-70.374c-0.624-1.076-2.002-1.442-3.078-0.817
				c-1.076,0.624-1.442,2.002-0.817,3.078l40.844,70.374C1857.406,1460.791,1858.161,1461.193,1858.938,1461.193z"/>
			
				<linearGradient id="SVGID_00000144326837761637768490000017757889521403397506_" gradientUnits="userSpaceOnUse" x1="735.3813" y1="1423.7534" x2="780.7294" y2="1423.7534" gradientTransform="matrix(1 0 0 1 1003.9551 0)">
				<stop  offset="0" style="stop-color:#09005D"/>
				<stop  offset="1" style="stop-color:#1A0F91"/>
			</linearGradient>
			<path style="fill:url(#SVGID_00000144326837761637768490000017757889521403397506_);" d="M1741.586,1461.193
				c0.777,0,1.532-0.402,1.95-1.122l40.844-70.374c0.624-1.076,0.258-2.454-0.817-3.078c-1.076-0.625-2.454-0.258-3.078,0.817
				l-40.844,70.374c-0.624,1.076-0.258,2.454,0.817,3.078C1740.814,1461.094,1741.203,1461.193,1741.586,1461.193z"/>
		</g>
		<g>
			
				<linearGradient id="SVGID_00000001656414797695281380000011880390087057010354_" gradientUnits="userSpaceOnUse" x1="-517.8224" y1="1566.0908" x2="-548.8224" y2="1715.0908" gradientTransform="matrix(-1 0 0 1 1401.3553 0)">
				<stop  offset="0" style="stop-color:#4042E2"/>
				<stop  offset="1" style="stop-color:#4F52FF"/>
			</linearGradient>
			<path style="fill:url(#SVGID_00000001656414797695281380000011880390087057010354_);" d="M1930.602,1427.802
				c0,0,2.253,12.759,3.359,25.389c0.432,4.936-3.374,9.222-8.324,9.428c-16.819,0.701-52.796,2.063-65.706,1.487
				c-1.941-0.087-3.21-2.074-2.491-3.879c0.602-1.512,1.763-2.735,3.242-3.415l59.427-27.313L1930.602,1427.802z"/>
			
				<linearGradient id="SVGID_00000029031854222266740940000004933176036975585721_" gradientUnits="userSpaceOnUse" x1="-531.0927" y1="1427.7498" x2="-511.7627" y2="1427.7498" gradientTransform="matrix(-1 0 0 1 1401.3553 0)">
				<stop  offset="0" style="stop-color:#FF928E"/>
				<stop  offset="1" style="stop-color:#FEB3B1"/>
			</linearGradient>
			<path style="fill:url(#SVGID_00000029031854222266740940000004933176036975585721_);" d="M1932.448,1420.306l-1.81,15.261
				c0,0-10.41,4.846-17.52-0.611l4.311-17.007L1932.448,1420.306z"/>
			
				<linearGradient id="SVGID_00000115514874558807027210000001046408426986360967_" gradientUnits="userSpaceOnUse" x1="-576.9291" y1="1279.9445" x2="-513.014" y2="1279.9445" gradientTransform="matrix(-1 0 0 1 1401.3553 0)">
				<stop  offset="0" style="stop-color:#09005D"/>
				<stop  offset="1" style="stop-color:#1A0F91"/>
			</linearGradient>
			<path style="fill:url(#SVGID_00000115514874558807027210000001046408426986360967_);" d="M1931.087,1133.389
				c0.782,3.986,4.198,198.88-16.634,286.219c-0.34,1.425,0.382,2.894,1.739,3.448c3.195,1.305,9.46,3.196,16.967,3.448
				c2.325,0.078,4.409-1.433,5.065-3.665c5.955-20.264,34.49-121.792,38.213-218.779c4.159-108.373,0-3.69,0-3.69l-2.439-66.99
				L1931.087,1133.389z"/>
			
				<linearGradient id="SVGID_00000065065824770669324630000004209089152387413429_" gradientUnits="userSpaceOnUse" x1="-607.5266" y1="1547.4274" x2="-638.5266" y2="1696.4274" gradientTransform="matrix(-1 0 0 1 1401.3553 0)">
				<stop  offset="0" style="stop-color:#4042E2"/>
				<stop  offset="1" style="stop-color:#4F52FF"/>
			</linearGradient>
			<path style="fill:url(#SVGID_00000065065824770669324630000004209089152387413429_);" d="M1998.963,1434.458
				c0,0,3.587,6.441,7.061,23.557c0.627,3.091-1.533,6.049-4.672,6.358c-5.554,0.546-14.103,1.248-20.952,1.201
				c-3.157-0.022-5.621-2.771-5.24-5.905c0.758-6.248,3.122-16.497,10.423-24.486L1998.963,1434.458z"/>
			
				<linearGradient id="SVGID_00000124882648319359798200000017845415493393708970_" gradientUnits="userSpaceOnUse" x1="-600.7587" y1="1426.7583" x2="-584.0687" y2="1426.7583" gradientTransform="matrix(-1 0 0 1 1401.3553 0)">
				<stop  offset="0" style="stop-color:#FF928E"/>
				<stop  offset="1" style="stop-color:#FEB3B1"/>
			</linearGradient>
			<path style="fill:url(#SVGID_00000124882648319359798200000017845415493393708970_);" d="M2002.114,1414.829l-4.231,23.079
				c0,0-4.183,3.111-12.459,0.856l2.02-24.832L2002.114,1414.829z"/>
			
				<linearGradient id="SVGID_00000041978029133142139590000001472847434786427786_" gradientUnits="userSpaceOnUse" x1="-618.7478" y1="1277.8531" x2="-528.0085" y2="1277.8531" gradientTransform="matrix(-1 0 0 1 1401.3553 0)">
				<stop  offset="0" style="stop-color:#09005D"/>
				<stop  offset="1" style="stop-color:#1A0F91"/>
			</linearGradient>
			<path style="fill:url(#SVGID_00000041978029133142139590000001472847434786427786_);" d="M2013.544,1139.37
				c17.038,102.828-3.696,254.148-10.689,283.765c-0.428,1.813-1.891,3.202-3.729,3.507c-3.122,0.517-8.26,0.94-13.327-0.532
				c-1.746-0.507-2.972-2.082-3.043-3.898c-0.938-23.945,0.751-170.94-15.125-229.033c-0.804-2.944-2.602-5.512-5.09-7.28
				l-30.814-21.906l-2.363-35.409L2013.544,1139.37z"/>
			<g>
				
					<linearGradient id="SVGID_00000173856057370824547110000003126673437348210575_" gradientUnits="userSpaceOnUse" x1="-1170.6919" y1="1625.3519" x2="-1288.6919" y2="1738.3518" gradientTransform="matrix(-1 0 0 1 1401.3553 0)">
					<stop  offset="0" style="stop-color:#4042E2"/>
					<stop  offset="1" style="stop-color:#4F52FF"/>
				</linearGradient>
				<path style="fill:url(#SVGID_00000173856057370824547110000003126673437348210575_);" d="M1904.975,944.531
					c51.061-0.844,107.401,13.407,107.401,13.407c15.22,88.809,2.662,191.245,2.662,191.245
					c-39.53,10.367-84.123-6.338-84.123-6.338c-5.419-30.616-42.269-137.768-41.972-177.221
					C1889.005,957.241,1902.215,944.576,1904.975,944.531z"/>
			</g>
			
				<linearGradient id="SVGID_00000136387816203756620030000005945282795293635738_" gradientUnits="userSpaceOnUse" x1="2045.9962" y1="989.0801" x2="1927.9962" y2="1102.08">
				<stop  offset="0" style="stop-color:#4042E2"/>
				<stop  offset="1" style="stop-color:#4F52FF"/>
			</linearGradient>
			<path style="fill:url(#SVGID_00000136387816203756620030000005945282795293635738_);" d="M1992.791,1007.38l19.585-49.442
				c0,0,47.693,32.406,55.537,73.493c-9.012,0.664-25.41,3.008-41.461,11.112C2022.925,1023.143,1992.791,1007.38,1992.791,1007.38z
				"/>
			
				<linearGradient id="SVGID_00000126311536947258960640000001802101174990407849_" gradientUnits="userSpaceOnUse" x1="1993.0554" y1="1107.8279" x2="2030.1404" y2="972.2354">
				<stop  offset="0" style="stop-color:#FF928E"/>
				<stop  offset="1" style="stop-color:#FEB3B1"/>
			</linearGradient>
			<path style="fill:url(#SVGID_00000126311536947258960640000001802101174990407849_);" d="M1951.112,1053.903
				c0,0,53.548,30.263,71.616,4.422c3.751-5.366,4.648-10.698,3.724-15.782c16.051-8.105,32.449-10.449,41.461-11.112
				c2.365,12.386,1.115,25.56-6.164,38.875c-31.649,57.895-117.724-3.2-117.724-3.2L1951.112,1053.903z"/>
			<g>
				<path style="fill:#BDD0FB;" d="M1957.546,1092.189l-29.225-102.059c-0.332-1.159-1.32-2.003-2.517-2.143
					c-5.295-0.618-20.638-2.352-38.353-3.851c-21.338-1.805-46.118-3.267-60.926-2.023c-2.105,0.177-3.377,2.403-2.441,4.297
					c8.421,17.036,43.057,86.333,60.402,109.034c0.575,0.752,1.463,1.192,2.41,1.183l67.806-0.631
					C1956.676,1095.978,1958.088,1094.085,1957.546,1092.189z"/>
				<path style="fill:#7D97F4;" d="M1884.42,975.289l-21.188-3.531c-1.128-0.188-2.053,0.89-1.694,1.977l2.098,6.356
					c0.182,0.554,0.665,0.954,1.243,1.031l20.39,2.723c1.055,0.141,1.925-0.818,1.682-1.854l-1.298-5.549
					C1885.511,975.844,1885.026,975.389,1884.42,975.289z"/>
				<path style="fill:#7D97F4;" d="M1900.285,993.226l-1.745-9.092c-0.175-0.912-0.928-1.601-1.852-1.695l-42.796-4.343
					c-1.44-0.146-2.594,1.174-2.256,2.582l2.721,11.33c0.218,0.907,1.007,1.561,1.938,1.608l41.82,2.105
					C1899.477,995.789,1900.542,994.564,1900.285,993.226z"/>
				
					<linearGradient id="SVGID_00000062883774964726499920000005225204061791230881_" gradientUnits="userSpaceOnUse" x1="1969.4279" y1="1012.5392" x2="1949.9279" y2="1034.0392">
					<stop  offset="0" style="stop-color:#FF928E"/>
					<stop  offset="1" style="stop-color:#FEB3B1"/>
				</linearGradient>
				<path style="fill:url(#SVGID_00000062883774964726499920000005225204061791230881_);" d="M1950.485,1067.531
					c0,0,4.071-16.74,2.429-22.679c-1.642-5.939-4.824-13.575-15.429-11.878c-10.605,1.697-23.115,6.164-23.115,6.164
					s0.632,7.736,8.692,5.24l-4.998,3.867c0,0,0.714,6.194,7.522,2.885l-4.649,5.129c0,0,2.924,5.087,7.933,1.824
					C1933.879,1054.822,1936.28,1069.547,1950.485,1067.531z"/>
			</g>
			
				<linearGradient id="SVGID_00000096769558225964838790000018015050759862561708_" gradientUnits="userSpaceOnUse" x1="1940.7169" y1="888.2232" x2="1952.717" y2="957.2233">
				<stop  offset="0" style="stop-color:#FF928E"/>
				<stop  offset="1" style="stop-color:#FEB3B1"/>
			</linearGradient>
			<path style="fill:url(#SVGID_00000096769558225964838790000018015050759862561708_);" d="M1956.695,903.077l16.247,46.985
				c0.269,0.778-0.051,1.64-0.771,2.039c-4.429,2.448-20.385,9.526-39.613-2.665c-2.003-1.27-3.366-3.341-3.671-5.693l-5.261-40.665
				H1956.695z"/>
			<g>
				
					<linearGradient id="SVGID_00000114788931616856774610000003237587009349210271_" gradientUnits="userSpaceOnUse" x1="-6107.0024" y1="-2529.2146" x2="-6147.0024" y2="-2446.7148" gradientTransform="matrix(-0.746 -0.6659 -0.6659 0.746 -4253.8853 -1476.3188)">
					<stop  offset="0" style="stop-color:#FF928E"/>
					<stop  offset="1" style="stop-color:#FEB3B1"/>
				</linearGradient>
				<path style="fill:url(#SVGID_00000114788931616856774610000003237587009349210271_);" d="M1921.344,859.568
					c0,0-17.841,33.583-15.554,47.149c2.287,13.566,24.397,12.592,43.705,1.574l13.492-36.262L1921.344,859.568z"/>
				
					<linearGradient id="SVGID_00000145020592947519713570000010854964235189552016_" gradientUnits="userSpaceOnUse" x1="-6199.647" y1="-2440.2729" x2="-6184.2017" y2="-2352.1777" gradientTransform="matrix(-0.746 -0.6659 -0.6659 0.746 -4253.8853 -1476.3188)">
					<stop  offset="0" style="stop-color:#09005D"/>
					<stop  offset="1" style="stop-color:#1A0F91"/>
				</linearGradient>
				<path style="fill:url(#SVGID_00000145020592947519713570000010854964235189552016_);" d="M1948.643,890.483
					c-0.785-0.348-1.074-1.308-0.604-2.026c1.429-2.183,4.109-6.639,4.964-10.538c0,0,3.207-2.054-8.163-4.776
					c-11.37-2.721-28.326-6.946-31.89-16.624c-3.475-9.436,15.162-21.684,29.728-2.776c0.554,0.719-7.867-10.746-7.314-11.466
					c2.388-3.108,8.666-9.559,17.381-5.648c8.156,3.66,9.075,9.636,8.963,12.649c-0.033,0.886,0.759,1.575,1.63,1.409
					c4.124-0.786,14.02-1.462,18.638,8.69c3.805,8.361,1.332,13.095-0.92,15.41c-0.73,0.75-0.41,1.985,0.59,2.291
					c2.711,0.83,1.799-0.493,1.449,5.856c-0.484,8.778-5.888,11.626-8.682,11.226c-0.458-0.066-0.919,0.091-1.229,0.434
					c-2.396,2.651-13.191,13.909-24.874,15.266c-1.011,0.117-1.795-0.882-1.464-1.844l5.056-14.698
					c0.235-0.683-0.092-1.431-0.752-1.724L1948.643,890.483z"/>
				
					<linearGradient id="SVGID_00000026876360954081556510000007580027066613292174_" gradientUnits="userSpaceOnUse" x1="-6124.394" y1="-2537.647" x2="-6164.394" y2="-2455.147" gradientTransform="matrix(-0.746 -0.6659 -0.6659 0.746 -4253.8853 -1476.3188)">
					<stop  offset="0" style="stop-color:#FF928E"/>
					<stop  offset="1" style="stop-color:#FEB3B1"/>
				</linearGradient>
				<path style="fill:url(#SVGID_00000026876360954081556510000007580027066613292174_);" d="M1946.61,892.569
					c0,0,12.703-8.715,13.631-1.376c0.928,7.339-11.439,10.631-17.564,7.895L1946.61,892.569z"/>
			</g>
			
				<linearGradient id="SVGID_00000013915937815162752780000011575278680467392385_" gradientUnits="userSpaceOnUse" x1="2105.4077" y1="745.1467" x2="1929.2377" y2="886.0828">
				<stop  offset="0" style="stop-color:#4042E2"/>
				<stop  offset="1" style="stop-color:#4F52FF"/>
			</linearGradient>
			<path style="fill:url(#SVGID_00000013915937815162752780000011575278680467392385_);" d="M1905.588,846.639l75.36,56.438
				l-1.288-5.12c0,0,30.693-32.377,0.429-58.15c-30.263-25.772-64.819,4.723-64.819,4.723L1905.588,846.639z"/>
		</g>
		<g>
			
				<linearGradient id="SVGID_00000079478569914895873660000012909702996685368466_" gradientUnits="userSpaceOnUse" x1="2280.3557" y1="1122.0603" x2="2343.2729" y2="1122.0603" gradientTransform="matrix(1 0 0 1 -767.7686 0)">
				<stop  offset="0" style="stop-color:#A22B25"/>
				<stop  offset="1" style="stop-color:#C0423C"/>
			</linearGradient>
			<path style="fill:url(#SVGID_00000079478569914895873660000012909702996685368466_);" d="M1535.233,1089.875
				c-6.455,6.838-15.958,12.747-22.646,16.432c9.987,12.253,23.501,24.524,41.392,36.534l5.12,11.404l16.405-19.516
				C1575.504,1134.73,1546.067,1120.189,1535.233,1089.875z"/>
			
				<linearGradient id="SVGID_00000008838835747755693530000012827370511020415382_" gradientUnits="userSpaceOnUse" x1="2372.6538" y1="1425.9308" x2="2361.6538" y2="1480.9309" gradientTransform="matrix(1 0 0 1 -767.7686 0)">
				<stop  offset="0" style="stop-color:#09005D"/>
				<stop  offset="1" style="stop-color:#1A0F91"/>
			</linearGradient>
			<path style="fill:url(#SVGID_00000008838835747755693530000012827370511020415382_);" d="M1623.027,1460.021
				c0.006-0.349-0.018-0.702-0.108-1.058c-5.314-20.91-31.686-33.933-31.686-33.933l-10.451,0.813
				c-6.009,18.43-5.237,29.733-4.272,34.767c0.026,0.141,0.069,0.275,0.107,0.412
				C1585.238,1461.786,1602.982,1462.285,1623.027,1460.021z"/>
			
				<linearGradient id="SVGID_00000136384427541733652700000010430258501167805586_" gradientUnits="userSpaceOnUse" x1="2366.5137" y1="1433.9828" x2="2355.5134" y2="1162.9825" gradientTransform="matrix(1 0 0 1 -767.7686 0)">
				<stop  offset="0" style="stop-color:#4042E2"/>
				<stop  offset="1" style="stop-color:#4F52FF"/>
			</linearGradient>
			<path style="fill:url(#SVGID_00000136384427541733652700000010430258501167805586_);" d="M1576.617,1461.021
				c0.465,1.681,1.716,2.99,3.316,3.324c12.263,2.56,31.755,0.5,39.938-0.562c1.806-0.234,3.125-1.891,3.155-3.762
				C1602.982,1462.285,1585.238,1461.786,1576.617,1461.021z"/>
			
				<linearGradient id="SVGID_00000014614535581897009400000014401709503114478494_" gradientUnits="userSpaceOnUse" x1="2356.7129" y1="1390.0267" x2="2347.7659" y2="1468.1107" gradientTransform="matrix(1 0 0 1 -767.7686 0)">
				<stop  offset="0" style="stop-color:#A22B25"/>
				<stop  offset="1" style="stop-color:#C0423C"/>
			</linearGradient>
			<path style="fill:url(#SVGID_00000014614535581897009400000014401709503114478494_);" d="M1576.579,1410.393l4.426,21.149
				c0.324,1.55,1.524,2.71,2.977,2.846c1.779,0.166,4.311,0.263,6.857-0.108c2.284-0.333,3.874-2.636,3.469-5.108l-3.076-18.779
				H1576.579z"/>
			
				<linearGradient id="SVGID_00000101067707607748248090000012897407821814052519_" gradientUnits="userSpaceOnUse" x1="2448.3525" y1="1430.661" x2="2437.3525" y2="1159.6606" gradientTransform="matrix(1 0 0 1 -767.7686 0)">
				<stop  offset="0" style="stop-color:#4042E2"/>
				<stop  offset="1" style="stop-color:#4F52FF"/>
			</linearGradient>
			<path style="fill:url(#SVGID_00000101067707607748248090000012897407821814052519_);" d="M1668.287,1460.809
				c-11.542-0.321-17.512-1.67-20.598-2.922c-0.007,1.139-0.001,2.298,0.036,3.499c0.04,1.283,0.997,2.308,2.175,2.3l63.373-0.406
				c2.022-0.013,3.204-2.341,2.328-4.182C1707.292,1459.78,1686.129,1461.304,1668.287,1460.809z"/>
			
				<linearGradient id="SVGID_00000119085286580894806600000012890801712493826439_" gradientUnits="userSpaceOnUse" x1="2451.9512" y1="1441.7903" x2="2440.9512" y2="1496.7902" gradientTransform="matrix(1 0 0 1 -767.7686 0)">
				<stop  offset="0" style="stop-color:#09005D"/>
				<stop  offset="1" style="stop-color:#1A0F91"/>
			</linearGradient>
			<path style="fill:url(#SVGID_00000119085286580894806600000012890801712493826439_);" d="M1715.601,1459.099
				c-0.076-0.16-0.142-0.323-0.251-0.474c-5.597-7.762-19.851-23.218-48.018-29.922l-13.513-0.423c0,0-6.017,10.38-6.13,29.608
				c3.086,1.252,9.056,2.601,20.598,2.922C1686.129,1461.304,1707.292,1459.78,1715.601,1459.099z"/>
			
				<linearGradient id="SVGID_00000124839824182559483300000012871239294414378139_" gradientUnits="userSpaceOnUse" x1="2430.1296" y1="1398.3762" x2="2421.1819" y2="1476.467" gradientTransform="matrix(1 0 0 1 -767.7686 0)">
				<stop  offset="0" style="stop-color:#A22B25"/>
				<stop  offset="1" style="stop-color:#C0423C"/>
			</linearGradient>
			<path style="fill:url(#SVGID_00000124839824182559483300000012871239294414378139_);" d="M1651.314,1407.953
				c0.15,1,2.002,16.194,2.719,22.086c0.17,1.4,1.192,2.483,2.48,2.636c2.301,0.273,6.024,0.521,9.282-0.141
				c1.757-0.358,3.029-2.033,3.029-3.982V1404.7L1651.314,1407.953z"/>
			
				<linearGradient id="SVGID_00000011001123189082234200000009478742327021229753_" gradientUnits="userSpaceOnUse" x1="2536.2285" y1="1041.2338" x2="2249.8779" y2="1485.5715" gradientTransform="matrix(1 0 0 1 -767.7686 0)">
				<stop  offset="0" style="stop-color:#09005D"/>
				<stop  offset="1" style="stop-color:#1A0F91"/>
			</linearGradient>
			<path style="fill:url(#SVGID_00000011001123189082234200000009478742327021229753_);" d="M1640.473,1130.664
				c0,0,32.591,122.937,32.002,277.641c-0.011,2.82-2.006,5.255-4.787,5.836c-4.098,0.857-10.121,1.874-15.108,1.735
				c-2.662-0.074-4.887-2.034-5.335-4.639c-4.57-26.599-30.795-176.448-45.737-200.776c0,0-9.831,133.462-6.688,202.703
				c0.078,1.722-1.192,3.215-2.917,3.413c-2.616,0.3-6.802,0.528-12.129-0.034c-2.022-0.213-3.654-1.73-3.942-3.728
				c-3.255-22.512-21.99-156.512-21.194-253.04c0.045-5.443,14.504-29.112,14.504-29.112H1640.473z"/>
			
				<linearGradient id="SVGID_00000147199227867414405620000002374706317773568695_" gradientUnits="userSpaceOnUse" x1="1592.5695" y1="954.1362" x2="1546.6222" y2="1404.0337">
				<stop  offset="0" style="stop-color:#4042E2"/>
				<stop  offset="1" style="stop-color:#4F52FF"/>
			</linearGradient>
			<path style="fill:url(#SVGID_00000147199227867414405620000002374706317773568695_);" d="M1685.8,981.88
				c-5.289-6.581-9.923-13.635-13.799-20.903c-5.414-10.152-0.435,6.572-1.914-4.892c-40.54-29.037-101.586-14.34-125.199-11.387
				c-7.743,0.968-14.824,4.757-19.926,10.618c-20.234,23.242-64.635,86.874-12.374,150.992c6.688-3.685,16.191-9.594,22.646-16.432
				c-5.782-16.177-6.255-36.851,5.862-62.202c0.414,2.01,0.926,3.999,1.548,5.956c16.701,52.516,17.592,96.219,17.555,106.291
				c-0.005,1.368,0.822,2.599,2.101,3.108c21.981,8.742,64.292,3.539,78.495,1.439c2.604-0.385,4.356-2.792,3.996-5.381
				c-6.971-50.126,28.804-132.586,38.253-153.239C1683.723,984.36,1684.663,983.023,1685.8,981.88z"/>
			
				<linearGradient id="SVGID_00000091004427432192922910000003209595850620128387_" gradientUnits="userSpaceOnUse" x1="1591.496" y1="951.5737" x2="1612.1219" y2="891.1183">
				<stop  offset="0" style="stop-color:#A22B25"/>
				<stop  offset="1" style="stop-color:#C0423C"/>
			</linearGradient>
			<path style="fill:url(#SVGID_00000091004427432192922910000003209595850620128387_);" d="M1582.878,902.489l-4.236,42.959
				c0,0,24.348,7.279,42.057-5.123l-12.449-39.043L1582.878,902.489z"/>
			<g>
				
					<linearGradient id="SVGID_00000083049034425244391630000017760448463900977049_" gradientUnits="userSpaceOnUse" x1="87.0736" y1="555.9347" x2="26.4774" y2="636.0985" gradientTransform="matrix(0.6854 -0.7281 0.7281 0.6854 1138.7507 544.7815)">
					<stop  offset="0" style="stop-color:#A22B25"/>
					<stop  offset="1" style="stop-color:#C0423C"/>
				</linearGradient>
				<path style="fill:url(#SVGID_00000083049034425244391630000017760448463900977049_);" d="M1611.13,853.526
					c0.586,0.547,24.731,47.611,24.731,47.611l-27.367,13.113l-29.562-41.231C1578.933,873.018,1601.319,844.359,1611.13,853.526z"
					/>
				
					<linearGradient id="SVGID_00000013157053164911368030000008465135216783015089_" gradientUnits="userSpaceOnUse" x1="40.6095" y1="575.1712" x2="111.8367" y2="575.1712" gradientTransform="matrix(0.6854 -0.7281 0.7281 0.6854 1138.7507 544.7815)">
					<stop  offset="0" style="stop-color:#09005D"/>
					<stop  offset="1" style="stop-color:#1A0F91"/>
				</linearGradient>
				<path style="fill:url(#SVGID_00000013157053164911368030000008465135216783015089_);" d="M1591.041,874.159
					c-0.488,1.253-0.368,2.653,0.328,3.805l13.649,22.583c0.207,0.342,0.454,0.652,0.748,0.925
					c1.625,1.501,7.184,5.867,11.482-0.077c3.663-5.066,7.1-9.673,10.783-11.572c2.15-1.11,4.797-0.224,5.889,1.924
					c2.249,4.424,6.605,13.442,9.341,21.993c0.686,2.143-0.429,4.444-2.529,5.289c-5.541,2.228-16.493,6.258-26.212,7.59
					c-1.596,0.219-3.177-0.45-4.127-1.742c-4.181-5.685-15.966-21.574-19.989-25.551c-3.737-3.695-10.633-2.301-13.741-1.415
					c-1.179,0.336-2.436,0.174-3.487-0.454c-3.153-1.885-8.655-6.579-3.622-14.526c1.252-1.976,0.613-4.608-1.351-5.891
					c-3.52-2.298-7.34-6.613-3.701-13.599c3.684-7.073,10.263-7.708,14.744-7.164c1.983,0.241,3.996-0.792,4.756-2.624
					c0.338-0.816,1.007-1.51,2.252-1.761c2.348-0.473,3.89-2.605,3.429-4.939c-0.79-4.002-2.153-2.888,4.285-6.401
					c11.808-6.444,24.11-2.258,26.74,6.605c2.63,8.864-10.572,15.127-18.877,16.173
					C1595.732,864.097,1592.387,870.706,1591.041,874.159z"/>
				
					<linearGradient id="SVGID_00000008121095592364306640000017771152149589939615_" gradientUnits="userSpaceOnUse" x1="1608.4441" y1="916.0281" x2="1544.1648" y2="877.4604">
					<stop  offset="0" style="stop-color:#A22B25"/>
					<stop  offset="1" style="stop-color:#C0423C"/>
				</linearGradient>
				<path style="fill:url(#SVGID_00000008121095592364306640000017771152149589939615_);" d="M1595.532,907.62
					c0,0-5.251-15.249-11.972-14.689c-6.721,0.56-12.011,7.205-3.681,14.676C1590.24,916.9,1595.532,907.62,1595.532,907.62z"/>
			</g>
			
				<linearGradient id="SVGID_00000127753265936164820040000003316100436178383774_" gradientUnits="userSpaceOnUse" x1="1708.16" y1="922.658" x2="1604.1598" y2="967.6582">
				<stop  offset="0" style="stop-color:#4042E2"/>
				<stop  offset="1" style="stop-color:#4F52FF"/>
			</linearGradient>
			<path style="fill:url(#SVGID_00000127753265936164820040000003316100436178383774_);" d="M1538.878,1023.745
				c-8.867-24.313-5.652-53.345-5.612-53.414l2.441,0.277c-0.032,0.285-3.178,28.786,5.48,52.299L1538.878,1023.745z"/>
			
				<linearGradient id="SVGID_00000071542079301901226420000005069551561325036705_" gradientUnits="userSpaceOnUse" x1="2375.2822" y1="1160.8783" x2="2351.4792" y2="1203.2395" gradientTransform="matrix(1 0 0 1 -767.7686 0)">
				<stop  offset="0" style="stop-color:#09005D"/>
				<stop  offset="1" style="stop-color:#1A0F91"/>
			</linearGradient>
			<path style="fill:url(#SVGID_00000071542079301901226420000005069551561325036705_);" d="M1600.311,1207.327
				c-0.546,0-1.045-0.364-1.188-0.914c-2.703-10.346-22.941-21.717-23.145-21.83c-0.591-0.329-0.803-1.073-0.47-1.66
				c0.332-0.587,1.077-0.798,1.673-0.467c0.87,0.484,21.357,11.995,24.321,23.346c0.17,0.652-0.224,1.318-0.881,1.486
				C1600.517,1207.315,1600.413,1207.327,1600.311,1207.327z"/>
			<g>
				
					<linearGradient id="SVGID_00000005253572448836679370000011947370253897075384_" gradientUnits="userSpaceOnUse" x1="1698.0477" y1="964.1796" x2="1648.9049" y2="1445.3665">
					<stop  offset="0" style="stop-color:#4042E2"/>
					<stop  offset="1" style="stop-color:#4F52FF"/>
				</linearGradient>
				<path style="fill:url(#SVGID_00000005253572448836679370000011947370253897075384_);" d="M1768.09,995.39
					c-45.851,6.829-75.736-21.887-98.005-39.306c-29.401-22.998-52.28-11.809-52.28-11.809l31.355,59.396
					c46.824,43.82,94.833,34.088,125.099,19.889C1774.724,1012.086,1771.636,1002.485,1768.09,995.39z"/>
				
					<linearGradient id="SVGID_00000168107883679913580150000010796439442091198091_" gradientUnits="userSpaceOnUse" x1="1878.804" y1="887.0191" x2="1669.1017" y2="1155.3147">
					<stop  offset="0" style="stop-color:#A22B25"/>
					<stop  offset="1" style="stop-color:#C0423C"/>
				</linearGradient>
				<path style="fill:url(#SVGID_00000168107883679913580150000010796439442091198091_);" d="M1832.534,968.239l-15.205,8.122
					c-18.236,11.02-34.554,16.843-49.238,19.03c3.545,7.095,6.634,16.696,6.168,28.169c19.267-9.039,31.346-19.889,31.346-19.889
					C1840.05,983.284,1832.534,968.239,1832.534,968.239z"/>
			</g>
			
				<linearGradient id="SVGID_00000114058407817920878640000012172853880939209364_" gradientUnits="userSpaceOnUse" x1="1906.9933" y1="909.0835" x2="1697.3922" y2="1177.2498">
				<stop  offset="0" style="stop-color:#A22B25"/>
				<stop  offset="1" style="stop-color:#C0423C"/>
			</linearGradient>
			<path style="fill:url(#SVGID_00000114058407817920878640000012172853880939209364_);" d="M1877.328,989.506
				c-0.982-3.239-3.394-5.859-6.556-7.121l-30.859-12.317c0,0-0.466-3.928,6.52-6.597c6.986-2.669,5.353-10.435,5.353-10.435
				s-9.544,4.321-23.516,11.175c-7.99,3.92-12.474,10.84-14.851,16.049l7.944,10.369c19.019,5.671,38.264,6.756,57.673,4.506
				L1877.328,989.506z"/>
			
				<linearGradient id="SVGID_00000101816442895727374930000009783970264330760629_" gradientUnits="userSpaceOnUse" x1="1592.4232" y1="904.8342" x2="1589.4231" y2="1168.8342">
				<stop  offset="0" style="stop-color:#4042E2"/>
				<stop  offset="1" style="stop-color:#4F52FF"/>
			</linearGradient>
			<path style="fill:url(#SVGID_00000101816442895727374930000009783970264330760629_);" d="M1635.285,846.836l-72.592,53.96
				l1.241-4.895c0,0-29.566-30.956-0.414-55.597c29.152-24.641,62.438,4.516,62.438,4.516L1635.285,846.836z"/>
		</g>
	</g>
</g>
</svg>
