<?xml version="1.0" encoding="utf-8"?>
<!-- Generator: Adobe Illustrator 27.5.0, SVG Export Plug-In . SVG Version: 6.00 Build 0)  -->
<svg version="1.1" id="Layer_1" xmlns="http://www.w3.org/2000/svg" xmlns:xlink="http://www.w3.org/1999/xlink" x="0px" y="0px"
	 viewBox="0 0 3000 1800" style="enable-background:new 0 0 3000 1800;" xml:space="preserve">
<rect style="fill:#FFFFFF;" width="3000" height="1800"/>
<g>
	<g>
		<defs>
			<path id="XMLID_00000124842071124330850970000012691664579935795876_" d="M336.274,1603.846h2410.147
				C2638.863,910.73,2253.719,299.001,1469.375,389.612C758.922,422.694,355.066,911.52,336.274,1603.846z"/>
		</defs>
		<use xlink:href="#XMLID_00000124842071124330850970000012691664579935795876_"  style="overflow:visible;fill:#DCECFD;"/>
		<clipPath id="XMLID_00000140009148737519971200000010817375709581158833_">
			<use xlink:href="#XMLID_00000124842071124330850970000012691664579935795876_"  style="overflow:visible;"/>
		</clipPath>
		<path style="clip-path:url(#XMLID_00000140009148737519971200000010817375709581158833_);fill:#BEDBFA;" d="M358.457,1283.183
			c0,0,49.06,91.462,53.504,160.126c4.444,68.664,0,0,0,0s45.861-121.842,136.096-176.533c0,0-1.274,137.613-37.556,199.153
			c-36.282,61.54,0,0,0,0s46.511-56.358,169.642-78.078c123.132-21.72,0,0,0,0s-57.004,119.127-116.383,145.246
			c0,0,46.274-11.647,148.363,0.933c0,0-109.371,69.455-164.067,69.816c-54.696,0.361,0,0,0,0H313.793L358.457,1283.183z"/>
		<path style="clip-path:url(#XMLID_00000140009148737519971200000010817375709581158833_);fill:#BEDBFA;" d="M2652.116,1210.931
			c0,0-51.099,116.027-29.738,212.57c0,0-60.617-58.159-160.745-83.046c0,0,39.54,125.6,128.583,157.394
			c0,0-39.814-37.324-175.061-21.004c0,0,48.011,70.394,140.653,72.361c0,0-140.543-3.154-178.943,54.64c-38.399,57.794,0,0,0,0
			h404.985L2652.116,1210.931z"/>
	</g>
	<g>
		<g>
			<path style="fill:#152E60;" d="M1419.946,1518.88c-17.223,2.634-32.294-11.708-30.518-29.04l30.52-297.756l54.394-8.318
				l-31.929,311.505C1441.176,1507.339,1431.938,1517.046,1419.946,1518.88z"/>
			<path style="fill:#152E60;" d="M1266.941,1603.846c-20.491,1.479-30.08-25.12-25.215-33.369
				c2.389-8.596,121.969-438.454,121.969-438.454h54.415l-125.915,452.636C1289.04,1596,1278.712,1603.846,1266.941,1603.846z"/>
			<path style="fill:#152E60;" d="M1743.768,1603.846c17.339,0,29.9-16.533,25.254-33.237l-122.007-438.586h-54.415l125.916,452.636
				C1721.669,1596,1731.997,1603.846,1743.768,1603.846z"/>
		</g>
		<g>
			<path style="fill:#F08F3C;" d="M1916.51,987.453c-49.638-469.734-849.342-534.505-810.339,4.647
				C1155.816,1461.814,1955.519,1526.584,1916.51,987.453z"/>
			<g>
				<path style="fill:#F9CE68;" d="M1579.423,1339.605c-495.192,10.448-660.149-738.158-95.288-768.331
					C1979.309,560.835,2144.27,1309.442,1579.423,1339.605z"/>
				<path style="fill:#FFFFFF;" d="M1568.948,1255.161c-386.341,8.151-515.038-575.9-74.343-599.44
					C1880.933,647.577,2009.634,1231.628,1568.948,1255.161z"/>
				<path style="fill:#F9CE68;" d="M1558.474,1170.717c-277.491,5.856-369.928-413.642-53.397-430.55
					C1782.558,734.317,1874.998,1153.815,1558.474,1170.717z"/>
				<path style="fill:#FFFFFF;" d="M1547.999,1086.273c-168.641,3.558-224.817-251.383-32.451-261.66
					C1684.182,821.059,1740.362,1076.001,1547.999,1086.273z"/>
				<path style="fill:#F9CE68;" d="M1580.692,955.166c4.763,65.112-91.907,57.284-97.839,0.557
					C1478.088,890.612,1574.759,898.44,1580.692,955.166z"/>
			</g>
		</g>
		<path style="fill:#F08F3C;" d="M1531.771,573.623c0,0,130.268,442.526,405.593,465.58
			C1963.754,952.311,1860.527,599.646,1531.771,573.623z"/>
	</g>
	<path style="fill:#F3F5FB;" d="M1937.364,563.763"/>
	<g>
		<path style="fill:#F4D2C6;" d="M1461.685,550.476c4.494-2.047,8.128-5.587,10.291-10.026c7.084-14.54,23.667-47.344,29.764-48.771
			c7.844-1.836-19.158,67.538-10.532,64.382c6.358-2.326,15.776-15.078,22.952-14.076c7.176,1.001,0.931,13.921-7.599,25.708
			c-5.469,7.558-40.76,24.641-40.76,24.641l-14.085-37.317L1461.685,550.476z"/>
		<g>
			<g>
				<path style="fill:#F4D2C6;" d="M631.927,375.751c0,0-2.824-40.614-11.391-46.066c-8.568-5.452-43.228-10.904-49.459-1.947
					c-6.231,8.957-10.515,36.997-7.01,40.892c3.505,3.895,39.963,31.541,39.963,31.541L631.927,375.751z"/>
			</g>
			<g>
				<path style="fill:#152E60;" d="M1063.682,1603.841c1.289-16.546-23.779-21.181-34.61-26.938c0,0-21.792-15.685-21.792-15.685
					l-1.107-18.745l-37.933-8.443l-16.972,56.151l61.394,13.665l0.169-0.24L1063.682,1603.841z"/>
				<g>
					<defs>
						<polygon id="XMLID_00000088825765919465577010000016697189805084433078_" points="849.739,850.825 862.992,1545.35 
							909.705,1545.35 1007.608,849.263 						"/>
					</defs>
					<use xlink:href="#XMLID_00000088825765919465577010000016697189805084433078_"  style="overflow:visible;fill:#324D90;"/>
					<clipPath id="XMLID_00000053535125579321073720000003750125176994578820_">
						<use xlink:href="#XMLID_00000088825765919465577010000016697189805084433078_"  style="overflow:visible;"/>
					</clipPath>
					<path style="clip-path:url(#XMLID_00000053535125579321073720000003750125176994578820_);fill:#2A437D;" d="M981.371,1035.809
						c-67.878,90.161-88.316,389.195-93.677,518.967h40.98l50.687-318.188L981.371,1035.809"/>
				</g>
				<g>
					<defs>
						<path id="XMLID_00000059309193724670461280000016612682094555823003_" d="M955.729,849.263l56.123,408.307l0.479,0.079
							l-48.109,278.617l46.641,14.81l78.348-231.253c28.996-63.515,18.444-396.405,24.387-468.997L955.729,849.263z"/>
					</defs>
					<use xlink:href="#XMLID_00000059309193724670461280000016612682094555823003_"  style="overflow:visible;fill:#324D90;"/>
					<clipPath id="XMLID_00000029749177727745589630000016221009640913880192_">
						<use xlink:href="#XMLID_00000059309193724670461280000016612682094555823003_"  style="overflow:visible;"/>
					</clipPath>
					<path style="clip-path:url(#XMLID_00000029749177727745589630000016221009640913880192_);fill:#2A437D;" d="M981.371,1035.809
						c105.567,283.476,72.177,234.09,0.213,509.54l-36.775-11.32l44.822-290.869L981.371,1035.809"/>
				</g>
				<path style="fill:#152E60;" d="M870.844,1545.35l-5.155,18.057l-55.685,23.86c-6.633,2.842-10.935,9.364-10.935,16.579l0,0
					h114.998l-4.362-58.497H870.844z"/>
				<polygon style="fill:#2A437D;" points="850.886,919.893 1112.282,919.893 852.021,970.459 				"/>
				<g>
					<path style="fill:#4292F3;" d="M986.789,578.513l-192.021-35.79L635.843,360.144l-43.47,38.051L726.98,614.588
						c7.749,12.457,19.715,21.718,33.719,26.097l170.342,36.636L986.789,578.513z"/>
					<g>
						<path style="fill:#1A1949;" d="M1055.328,416.999c3.831,3.808,18.517,33.967,7.338,51.49l-18.775-41.358L1055.328,416.999z"/>
						<g>
							<g>
								<defs>
									<path id="XMLID_00000165945805699934529050000011463225596532770972_" d="M953.783,468.489
										c1.355,87.114,107.538,87.104,108.884-0.002C1061.311,381.374,955.128,381.385,953.783,468.489z"/>
								</defs>
								<use xlink:href="#XMLID_00000165945805699934529050000011463225596532770972_"  style="overflow:visible;fill:#F4D2C6;"/>
								<clipPath id="XMLID_00000083069393396609320520000017611574804697422726_">
									<use xlink:href="#XMLID_00000165945805699934529050000011463225596532770972_"  style="overflow:visible;"/>
								</clipPath>
								<path style="clip-path:url(#XMLID_00000083069393396609320520000017611574804697422726_);fill:#EDA19D;" d="
									M1062.666,446.787c0,0-61.312,19.627-82.315-9.691c-21.003-29.317,0,0,0,0l70.527-16.155L1062.666,446.787z"/>
							</g>
							<path style="fill:#F4D2C6;" d="M953.903,464.125c0,0,5.328,102.242-5.456,132.536c0,0,33.895,10.269,67.276,0
								c0,0-21.056-87.288-16.947-107.313L953.903,464.125z"/>
						</g>
						<path style="fill:#EDA19D;" d="M1002.724,534.372c0,0-11.562-0.167-26.788-12.566c0,0,3.305,27.6,29.867,29.187
							L1002.724,534.372z"/>
						<path style="fill:#59445A;" d="M1052.074,429.24c-12.592,5.591-75.679,18.915-94.606-2.69c0,0.003-12.76-24.67,2.994-33.779
							c15.754-9.109,97.228-16.229,97.228-16.229S1066.545,416.616,1052.074,429.24z"/>
						<path style="fill:#59445A;" d="M978.464,420.941c10.309,42.291-0.531,52.591-23.344,83.35
							c-15.456-31.649-41.924-57.435-2.531-92.563L978.464,420.941z"/>
						<path style="fill:#F4D2C6;" d="M952.589,472.787c0.082,18.15,27.683,18.148,27.762-0.001
							C980.27,454.637,952.668,454.638,952.589,472.787z"/>
					</g>
					<path id="XMLID_00000054954174314072660770000011900592659235859118_" style="fill:#4292F3;" d="M1090.84,662.528
						c-10.497-69.826-63.818-104.831-123.588-97.08c-47.46-0.004-88.134,40.854-96.646,97.08L831.65,919.835h298.146
						L1090.84,662.528z"/>
					<path style="fill:#F4D2C6;" d="M949.717,567.334c10.761,31.908,51.381,31.896,62.135,0
						C1011.852,567.334,985.276,552.953,949.717,567.334z"/>
					<path style="fill:#FFFFFF;" d="M949.717,567.334l29.643,24.021l-12.272,7.758c-19.738,10.212-22.662-16.725-27.512-28.892
						C939.577,570.221,944.734,567.965,949.717,567.334z"/>
					<path style="fill:#FFFFFF;" d="M986.789,590.782l11.543,7.16c8.099,5.024,18.721,0.378,20.526-8.979l3.578-18.539
						c0,0-8.09-2.682-10.584-3.091L986.789,590.782z"/>
					<polygon style="fill:#2A437D;" points="979.36,591.355 959.696,767.084 986.774,816.955 1009.079,766.917 986.789,590.782 
											"/>
					<path style="fill:#4292F3;" d="M1038.525,578.19l186.224,58.93l226.239-86.128l20.399,54.045l-220.735,127.41
						c-12.707,7.335-27.627,9.863-42.042,7.125l-120.618-22.913L1038.525,578.19z"/>
					<polygon style="fill:#3C7ED7;" points="1099.363,718.818 1090.687,657.599 1208.611,739.571 					"/>
					<polygon style="fill:#3C7ED7;" points="870.606,662.528 877.728,619.769 760.7,640.685 					"/>
				</g>
			</g>
			<path style="fill:#EDA19D;" d="M580.65,331.524c0,0,33.707,4.048,30.81,16.291c-5.162,21.812-23.138,23.601-30.81,22.987
				c0,0,8.707,8.286,21.48,7.978c12.773-0.307,20.416-29.694,15.657-36.127C608.796,330.498,580.65,331.524,580.65,331.524z"/>
		</g>
	</g>
	<g>
		<path style="fill:#DCECFD;" d="M2450.789,439.182c-89.534,20.229-105.933,36.628-126.162,126.162
			c-20.229-89.534-36.628-105.933-126.162-126.162c89.534-20.229,105.933-36.628,126.162-126.162
			C2344.855,402.555,2361.254,418.953,2450.789,439.182z"/>
		<path style="fill:#DCECFD;" d="M2223.378,381.318c-41.065,9.278-48.587,16.799-57.865,57.865
			c-9.278-41.065-16.8-48.587-57.865-57.865c41.065-9.278,48.587-16.799,57.865-57.865
			C2174.791,364.518,2182.313,372.04,2223.378,381.318z"/>
	</g>
	<g>
		<path style="fill:#DCECFD;" d="M396.829,804.21c22.582-81.618,16.397-102.1-47.584-157.578
			c81.618,22.582,102.1,16.397,157.578-47.584c-22.582,81.618-16.397,102.1,47.584,157.578
			C472.789,734.044,452.307,740.229,396.829,804.21z"/>
		<path style="fill:#DCECFD;" d="M543.012,644.529c10.357-37.434,7.521-46.829-21.825-72.274
			c37.434,10.357,46.828,7.521,72.274-21.825c-10.357,37.434-7.521,46.829,21.825,72.274
			C577.851,612.347,568.457,615.184,543.012,644.529z"/>
	</g>
	<g>
		<g>
			<path style="fill:#F4D2C6;" d="M2454.335,1282.499l-28.329-2.448l4.52-43.92l35.279,6.33
				C2499.768,1263.374,2477.692,1276.33,2454.335,1282.499z"/>
			<path style="fill:#152E60;" d="M2485.16,1348.862l16.142-111.048c-17.165-5.312-35.462-3.353-52.282,2.31
				c29.256,3.623,21.37,30.982,4.717,41.38C2453.737,1281.505,2457.084,1343.472,2485.16,1348.862z"/>
		</g>
		<path style="fill:#324D90;" d="M2172.736,1182.247l-38.701-357.776l-156.799,18.42l97.655,357.631
			c5.764,21.109,18.527,39.635,36.198,52.541h0c26.883,32.222,282.278,22.541,321.853,29.519l8.394-45.953L2172.736,1182.247z"/>
		<g>
			<defs>
				<path id="XMLID_00000061447044840697587290000008318881590855460261_" d="M2050.65,831.561l-25.977,416.894l-0.466,0.139
					l82.966,270.293l-44.393,20.591l-106.971-219.485c-42.231-59.476-47.096-383.148-57.913-455.254L2050.65,831.561z"/>
			</defs>
			<use xlink:href="#XMLID_00000061447044840697587290000008318881590855460261_"  style="overflow:visible;fill:#324D90;"/>
			<clipPath id="XMLID_00000113342289091771934700000000553942765120060604_">
				<use xlink:href="#XMLID_00000061447044840697587290000008318881590855460261_"  style="overflow:visible;"/>
			</clipPath>
			<path style="clip-path:url(#XMLID_00000113342289091771934700000000553942765120060604_);fill:#2A437D;" d="M2093.824,1528.86
				c-1.699,0.77-2.724,1.234-2.724,1.234s-101.919-241.21-107.262-258.389c-5.343-17.179,52.528-210.908,52.528-210.908
				l8.528,170.554l81.255,282.863C2126.149,1514.214,2102.062,1525.128,2093.824,1528.86z"/>
		</g>
		<g>
			<g>
				<g>
					<g>
						<defs>
							<path id="XMLID_00000075125928859645995870000003070773464043594143_" d="M1815.883,646.89l-60.918,24.311l-159.42-110.273
								l-18.781,34.918l135.558,138.863c8.483,8.345,19.204,14.051,30.864,16.426c24.812,8.138,87.451-25.352,110.853-31.911
								L1815.883,646.89z"/>
						</defs>
						<use xlink:href="#XMLID_00000075125928859645995870000003070773464043594143_"  style="overflow:visible;fill:#F4D2C6;"/>
						<clipPath id="XMLID_00000142135294637150553770000008732133697856224422_">
							<use xlink:href="#XMLID_00000075125928859645995870000003070773464043594143_"  style="overflow:visible;"/>
						</clipPath>
						<polygon style="clip-path:url(#XMLID_00000142135294637150553770000008732133697856224422_);fill:#EDA19D;" points="
							1771.292,656.651 1784.053,769.674 1860.062,728.063 1807.355,635.163 						"/>
					</g>
				</g>
				<g>
					<g>
						<path style="fill:#59445A;" d="M1971.109,389.134c-0.648,37.95-57.098,37.944-57.741-0.001
							C1914.016,351.184,1970.466,351.19,1971.109,389.134z"/>
						<path style="fill:#59445A;" d="M1894.299,414.467c-47.452,18.123-53.283,67.214-12.119,96.138
							C1895.53,494.998,1936.911,438.293,1894.299,414.467z"/>
						<g>
							<g>
								<defs>
									<path id="XMLID_00000063622260332028107910000008534203779136970164_" d="M1982.432,470.025
										c15.269,85.777-88.97,105.999-106.889,20.745C1860.275,404.995,1964.514,384.773,1982.432,470.025z"/>
								</defs>
								<use xlink:href="#XMLID_00000063622260332028107910000008534203779136970164_"  style="overflow:visible;fill:#F4D2C6;"/>
								<clipPath id="XMLID_00000158735774664761678430000008586486621953379986_">
									<use xlink:href="#XMLID_00000063622260332028107910000008534203779136970164_"  style="overflow:visible;"/>
								</clipPath>
								<path style="clip-path:url(#XMLID_00000158735774664761678430000008586486621953379986_);fill:#EDA19D;" d="
									M1869.104,462.809c77.899,37.216,117.838-19.672,42.948-69.895C1894.08,412.852,1874.472,435.786,1869.104,462.809z"/>
							</g>
							<path style="fill:#F4D2C6;" d="M1981.483,465.764c0,0,14.251,101.384,30.61,129.068c0,0-31.317,16.54-66.043,12.819
								c0,0,4.038-89.701-3.811-108.576L1981.483,465.764z"/>
						</g>
						<path style="fill:#EDA19D;" d="M1946.941,544.026c0,0,11.319-2.368,23.903-17.44c0,0,2.015,27.724-23.758,34.343
							L1946.941,544.026z"/>
						<path style="fill:#59445A;" d="M1888.755,432.165c0,0,3.326,32.189,43.61,36.642l-15.765-15.327
							c0,0,26.713,22.086,48.608,26.917c21.896,4.831,22.742,25.081,22.742,25.081
							C2052.404,420.204,1899.846,354.002,1888.755,432.165z"/>
					</g>
					<path style="fill:#4292F3;" d="M2156.656,690.438l-97.958-93.076c-26.645-28.421-72.917-38.299-109.563-21.725v0
						c-3.222,1.469-152.785,69.836-156.342,71.459l48.746,92.409l45.362-18.565l-9.031,176.447
						c153.417,80.628,275.455-35.125,275.455-35.125l-42.581-134.828L2156.656,690.438z"/>
					<polygon style="fill:#3C7ED7;" points="2110.743,727.435 2077.885,754.766 2025.498,699.103 2139.359,873.688 
						2153.324,862.262 					"/>
					<path style="fill:#3C7ED7;" d="M1886.094,721.27c0,0,1.573-46.211,10.833-86.107c0,0-48.101,39.937-55.389,104.342
						L1886.094,721.27z"/>
					<path style="fill:#F4D2C6;" d="M1928.988,584.845c24.73-18.657,68.872-24.99,96.51-9.937
						C2006.897,586.254,1945.759,622.549,1928.988,584.845z"/>
				</g>
			</g>
			<path style="fill:#F4D2C6;" d="M1597.951,562.854c-4.002-2.892-6.868-7.079-8.113-11.858c-4.08-15.651-13.874-51.079-19.57-53.68
				c-7.328-3.345,5.474,69.989-2.361,65.195c-5.775-3.534-12.496-17.891-19.729-18.323c-7.233-0.432-3.655,13.465,2.385,26.701
				c3.873,8.487,35.106,32.19,35.106,32.19l21.162-33.81L1597.951,562.854z"/>
		</g>
		<g>
			<path style="fill:#F4D2C6;" d="M2079.505,1563.061l-12.385-25.595l40.053-18.578l12.604,33.553
				C2119.175,1592.321,2096.751,1579.976,2079.505,1563.061z"/>
			<path style="fill:#152E60;" d="M2017.368,1603.846h110.798c6.388,0,10.701-6.522,8.201-12.401l-16.591-39.005
				c0.623,29.473-27.586,25.604-40.272,10.62C2079.505,1563.061,2018.664,1575.287,2017.368,1603.846z"/>
		</g>
		<g>
			<defs>
				<path id="XMLID_00000167356116167242223450000005732633850829021617_" d="M2436.474,895.141c0,0,23.686-0.993,26.665-5.959
					c2.979-4.966-53.444-8.339-53.444-8.339c-35.907-24.448-243.334-146.547-263.615-181.883l-60.788,49.703l59.669,51.861
					c47.847,18.472,250.66,118.128,296.373,132.861c19.914,1.483,29.751-10.435,31.737-12.918
					C2475.057,917.984,2436.474,895.141,2436.474,895.141z"/>
			</defs>
			<use xlink:href="#XMLID_00000167356116167242223450000005732633850829021617_"  style="overflow:visible;fill:#F4D2C6;"/>
			<clipPath id="XMLID_00000116927063487568756660000016603670549268775327_">
				<use xlink:href="#XMLID_00000167356116167242223450000005732633850829021617_"  style="overflow:visible;"/>
			</clipPath>
			<polygon style="clip-path:url(#XMLID_00000116927063487568756660000016603670549268775327_);fill:#EDA19D;" points="
				2160.928,707.587 2116.901,788.384 2068.078,744.346 2142.059,686.783 			"/>
		</g>
		<path style="fill:#2A437D;" d="M2002.535,925.938c0,0,74.413-4.671,136.824-52.25l7.583,70.097
			C2146.942,943.785,2054.902,964.258,2002.535,925.938z"/>
	</g>
	<g>
		<polygon style="fill:#4292F3;" points="1667.213,822.698 1741.589,752.052 1725.517,689.45 1649.96,761.218 		"/>
		<polygon style="fill:#4292F3;" points="1671.873,827.605 1746.25,756.959 1807.942,776.228 1732.385,847.996 		"/>
		
			<rect x="1629.436" y="708.688" transform="matrix(0.6887 0.7251 -0.7251 0.6887 1130.2216 -920.6265)" style="fill:#152E60;" width="15.545" height="294.352"/>
	</g>
	<g>
		<g>
			<path style="fill:#324D90;" d="M2717.702,1598.53c-4.181-1.448-175.709-57.855-303.726-147.995l0.807-1.141
				c120.251,85.057,284.528,141.489,300.776,146.956c-4.982-15.78-54.308-170.093-109.474-272.01l1.229-0.664
				C2666.023,1432.653,2716.414,1594.493,2717.702,1598.53z"/>
			<path style="fill:#324D90;" d="M2662.939,1577.83c0,0,8.281-52.909-30.961-82.209
				C2631.978,1495.621,2618.032,1545.977,2662.939,1577.83z"/>
			<path style="fill:#324D90;" d="M2710.117,1574.499c0,0,33.571-41.725,14.177-86.695
				C2724.294,1487.804,2687.087,1524.49,2710.117,1574.499z"/>
			<path style="fill:#324D90;" d="M2697.087,1542.582c0,0-39.478-36.186-85.603-19.725
				C2611.484,1522.856,2645.701,1562.347,2697.087,1542.582z"/>
			<path style="fill:#324D90;" d="M2680.877,1491.747c0,0-33.336-30.555-72.284-16.656
				C2608.593,1475.09,2637.486,1508.436,2680.877,1491.747z"/>
			<path style="fill:#324D90;" d="M2686.515,1510.245c0,0,36.011-27.351,29.282-68.154
				C2715.796,1442.092,2677.832,1464.573,2686.515,1510.245z"/>
			<path style="fill:#324D90;" d="M2666.542,1458.746c0,0,29.582-22.469,24.054-55.987
				C2690.596,1402.759,2659.409,1421.227,2666.542,1458.746z"/>
			<path style="fill:#324D90;" d="M2650.255,1415.3c0,0,24.697-18.758,20.082-46.741
				C2670.336,1368.559,2644.3,1383.977,2650.255,1415.3z"/>
			<path style="fill:#324D90;" d="M2602.199,1387.939c0,0,18.498,18.145,41.072,10.941
				C2643.271,1398.88,2627.371,1379.223,2602.199,1387.939z"/>
			<path style="fill:#324D90;" d="M2641.38,1344.756c0,0-14.282,16.737-6.851,35.435
				C2634.529,1380.191,2650.244,1365.567,2641.38,1344.756z"/>
			<path style="fill:#324D90;" d="M2627.149,1365.364c0,0-13.004-13.889-29.79-9.309
				C2597.359,1356.055,2608.41,1370.972,2627.149,1365.364z"/>
			<path style="fill:#324D90;" d="M2622.153,1353.498c0,0,10.119-12.56,4.287-26.107
				C2626.44,1327.391,2615.227,1338.433,2622.153,1353.498z"/>
			<path style="fill:#324D90;" d="M2610.928,1331.214c0,0,1.044-16.095-11.524-23.815
				C2599.404,1307.399,2596.592,1322.883,2610.928,1331.214z"/>
			<path style="fill:#324D90;" d="M2611.284,1423.853c0,0,20.704,24.15,49.075,17.728
				C2660.359,1441.581,2642.993,1415.857,2611.284,1423.853z"/>
			<path style="fill:#324D90;" d="M2617.407,1560.229c0,0,7.295-46.612-27.276-72.425
				C2590.131,1487.804,2577.845,1532.167,2617.407,1560.229z"/>
			<path style="fill:#324D90;" d="M2639.465,1567.984c0,0-43.142-19.097-77.014,7.626
				C2562.451,1575.61,2602.13,1598.947,2639.465,1567.984z"/>
			<path style="fill:#324D90;" d="M2581.575,1543.462c0,0-44.469-15.761-76.211,13.461
				C2505.364,1556.923,2546.703,1577.174,2581.575,1543.462z"/>
			<path style="fill:#324D90;" d="M2534.767,1520.857c0,0-37.327-10.859-62.055,14.683
				C2472.713,1535.54,2507.678,1550.241,2534.767,1520.857z"/>
			<path style="fill:#324D90;" d="M2491.542,1497.802c0,0-29.393-8.551-48.864,11.562
				C2442.677,1509.364,2470.21,1520.94,2491.542,1497.802z"/>
			<path style="fill:#324D90;" d="M2453.357,1475.929c0,0-20.844-6.064-34.653,8.199
				C2418.705,1484.128,2438.23,1492.338,2453.357,1475.929z"/>
			<path style="fill:#324D90;" d="M2567.57,1538.787c0,0,6.308-40.301-23.583-62.619
				C2543.987,1476.168,2533.365,1514.525,2567.57,1538.787z"/>
			<path style="fill:#324D90;" d="M2521.889,1515.425c0,0,5.365-34.278-20.058-53.261
				C2501.831,1462.164,2492.796,1494.789,2521.889,1515.425z"/>
			<path style="fill:#324D90;" d="M2474.208,1488.795c0,0,3.816-24.381-14.267-37.883
				C2459.94,1450.912,2453.514,1474.117,2474.208,1488.795z"/>
			<path style="fill:#324D90;" d="M2436.097,1464.91c0,0-6.887-23.697-28.99-28.253
				C2407.107,1436.657,2411.131,1460.396,2436.097,1464.91z"/>
		</g>
		<path style="fill:#2A437D;" d="M2641.241,1604.207c-10.247-36.754,140.945-102.859,120.058-0.538L2641.241,1604.207z"/>
	</g>
	<g>
		<path style="fill:#324D90;" d="M563.459,1391.559c-24.684,42.5-11.685,71.076-11.685,71.076
			C584.383,1425.555,563.459,1391.559,563.459,1391.559z"/>
		<path style="fill:#324D90;" d="M603.193,1376.471c-20.759,35.741-9.827,59.773-9.827,59.773
			C620.789,1405.061,603.193,1376.471,603.193,1376.471z"/>
		<path style="fill:#324D90;" d="M712.722,1375.505c-33.84,2.423-45.096,20.941-45.096,20.941c0.284,0.035,0.554,0.052,0.835,0.083
			c-11.67,5.355-23.147,11.025-34.393,16.932c20.388-24.911,6.613-47.328,6.613-47.328c-15.039,25.893-9.817,44.289-8.383,48.254
			c-39.994,21.064-76.796,45.235-109.187,68.444c0.019,0.015,0.038,0.029,0.057,0.045c-3.986,2.887-7.897,5.762-11.734,8.621
			c32.348-42.021,9.437-79.264,9.437-79.264c-25.682,44.218-17.146,75.787-14.559,83.103
			c-16.445,12.401-31.407,24.405-44.614,35.449c33.617-42.667,22.445-81.686,16.106-96.457c1.763-2.616,3.464-5.408,5.069-8.431
			c0,0-41.643-8.112-62.819,37.474c0.822-6.938,1.609-13.985,2.34-21.108c0.025,0.004,0.047,0.009,0.072,0.012
			c0.489-6.818,1.349-13.731,1.867-20.643c6.584-0.38,34.145-3.803,50.33-34.277c0,0-33.243-6.468-49.979,30.095
			c0.979-12.024,1.76-24.086,2.268-35.973c6.846-0.538,29.873-4.278,43.601-30.127c0,0-28.505-5.532-43.412,25.276
			c0.148-4.053,0.263-8.081,0.342-12.076c0.222,0.034,0.431,0.078,0.656,0.109c-1.32-4.75-0.187-11.126-0.542-16.091
			c4.286-0.218,23.895-2.4,35.357-23.982c0,0-23.808-4.628-35.369,21.985c-0.057-5.888-0.206-11.669-0.46-17.313
			c0.017,0.002,0.033,0.006,0.049,0.008c-0.292-3.532-0.37-7.092-0.659-10.529c4.487-1.757,18.132-8.555,21.979-27.37
			c0,0-17.681,1.675-22.435,21.6c-1.176-13.393-3.076-25.719-5.847-36.523c1.583-4.721,3.943-16.246-4.869-28.433
			c-10.992,15.809,4.434,24.829,6.118,46.994c-1.8-4.688-7.305-15.009-21.775-18.82c0,0,0.691,17.888,22.119,21.128
			c1.131,7.816,1.949,16.134,2.496,24.832c-3.473-6.456-10.76-15.524-25.273-19.347c0,0,0.809,21.235,25.638,26.05
			c0.425,9.166,0.572,18.704,0.486,28.481c-3.518-6.441-10.803-15.356-25.16-19.138c0,0,0.81,20.89,25.065,25.924
			c-0.197,10.254-0.633,20.731-1.259,31.283c-3.217-8.072-12.559-24.757-36.266-31.001c0,0,1.144,29.366,36.006,35.211
			c-0.785,12.282-1.816,24.636-3.016,36.831c-4.098-10.166-15.814-30.789-45.248-38.541c0,0,1.423,36.539,44.703,43.966
			c-1.559,15.179-3.361,30.05-5.253,44.157c-3.823-10.864-17.26-39.204-55.758-49.344c0,0,1.716,44.871,55.21,53.387
			c-2.131,15.591-4.354,30.173-6.455,43.105c-4.232-11.459-17.97-38.582-55.438-48.451c0,0,1.698,44.561,54.643,53.3
			c-1.569,9.49-3.049,17.969-4.35,25.184c-52.766-27.561-73.674,10.388-78.815,41.006c2.607,0,135.08,0,137.682,0
			c0,0-18.876-17.77-42.695-32.226c4.972-4.652,10.837-10.037,17.552-16.028c58.48,47.193,108.928,13.275,108.928,13.275
			c-60.776-32.099-101.784-16.695-108.257-13.875c21.713-19.338,51.971-44.693,88.208-70.904
			c39.851,30.323,73.262,8.419,73.262,8.419c-32.048-16.95-55.98-15.159-67.567-12.509c12.664-9.033,26.012-18.132,39.955-27.094
			c33.988,26.555,62.653,7.789,62.653,7.789c-29.275-15.484-50.528-12.426-59.209-9.988c11.931-7.595,24.281-15.074,36.986-22.314
			c23.52,18.191,43.312,5.237,43.312,5.237c-18.818-9.953-32.862-8.881-39.64-7.324c12.16-6.847,24.641-13.457,37.38-19.731
			c18.548,14.495,34.193,4.253,34.193,4.253c-14.803-7.829-25.843-6.97-31.153-5.744
			C684.318,1390.208,699.958,1399.835,712.722,1375.505z M419.361,1469.13c5.946-0.338,25.783-2.675,44.052-18.467
			c-4.593,10.965-7.547,21.111-9.346,30.303c-13.294,3.146-29.993,12.015-41.22,35.447
			C415.062,1501.873,417.309,1485.881,419.361,1469.13z M416.56,1570.668c-3.8-2.244-7.713-4.388-11.683-6.353
			c1.332-7.376,2.859-16.113,4.48-25.927c0.001,0,0.001,0,0.002,0c0.793-4.833,1.618-9.921,2.447-15.233
			c5.631-0.334,22.932-2.427,39.871-15.177c0.36,14.464,3.417,24.003,4.661,27.316
			C439.839,1549.262,426.388,1561.458,416.56,1570.668z"/>
		<path style="fill:#324D90;" d="M481.75,1517.741c47.357,38.005,87.533,11.662,87.533,11.662
			C515.814,1501.123,481.75,1517.741,481.75,1517.741z"/>
	</g>
</g>
<path style="fill:#152E60;" d="M141.58,1603.846c913.878-6.83,1841.757-6.884,2755.636-0.001
	C1983.338,1610.73,1055.459,1610.676,141.58,1603.846L141.58,1603.846z"/>
</svg>
