<?xml version="1.0" encoding="utf-8"?>
<!-- Generator: Adobe Illustrator 27.5.0, SVG Export Plug-In . SVG Version: 6.00 Build 0)  -->
<svg version="1.1" xmlns="http://www.w3.org/2000/svg" xmlns:xlink="http://www.w3.org/1999/xlink" x="0px" y="0px"
	 viewBox="0 0 3710 3710" style="enable-background:new 0 0 3710 3710;" xml:space="preserve">
<g id="Background">
	<g>
		<g>
			<rect style="fill:#FFFFFF;" width="3710" height="3710"/>
		</g>
	</g>
</g>
<g id="Illustration">
	<g>
		<linearGradient id="SVGID_1_" gradientUnits="userSpaceOnUse" x1="3569.366" y1="4072.8496" x2="1103.7039" y2="1010.6519">
			<stop  offset="0" style="stop-color:#DAE3FE"/>
			<stop  offset="1" style="stop-color:#E9EFFD"/>
		</linearGradient>
		<path style="fill:url(#SVGID_1_);" d="M2891.047,2865.229c-56.635,59.623-110.223,98.073-152.562,128.452
			c-497.683,357.093-1086.573,253.002-1211.729,227.582c-184.816-37.537-542.061-110.096-800.343-413.83
			C335.654,2347.909,396.501,1623.941,699.6,1146.04c55.442-87.416,348.3-572.597,943.533-650.405
			c360.229-47.088,780.14,47.883,1084.228,302.649C3365.669,1333.06,3320.229,2413.401,2891.047,2865.229z"/>
		<g>
			<path style="fill:#91B3FA;" d="M982.406,475.679c-3.231-16.615,17.007-27.477,29.251-15.791
				c124.334,118.666,422.508,473.419,342.511,1088.517c-100.369,771.732,58.27,1054.909,257.182,1228.467
				c0,0-274.427-83.08-445.184-370.503C746.92,1700.68,1039.848,771.09,982.406,475.679z"/>
			<path style="fill:#FFFFFF;" d="M1075.799,717.73c14.978,86.124,28.25,172.498,38.344,259.234
				c10.548,86.667,18.465,173.615,23.66,260.685c4.86,87.082,8.086,174.241,7.605,261.409
				c-0.089,87.165-3.923,174.229-8.077,261.629c-3.664,87.373-7.852,175.371-3.043,264.066
				c4.717,88.513,20.076,177.886,51.31,261.803c7.808,20.914,16.028,41.768,25.395,61.929c8.997,20.344,18.897,40.294,29.15,60.059
				c20.708,39.437,44.069,77.567,70.152,113.79c52.359,72.324,115.693,136.618,185.594,191.164
				c7.357,5.741,17.975,4.43,23.717-2.927c5.637-7.224,4.475-17.593-2.535-23.401l-0.05-0.041
				c-16.626-13.748-33.075-27.669-48.846-42.276c-8.004-7.179-15.673-14.698-23.48-22.069c-7.518-7.657-15.336-15.026-22.61-22.908
				c-29.618-31.027-57.023-64.097-81.845-99.029c-49.935-69.544-89.735-146.91-119.714-227.024
				c-14.542-40.239-26.093-81.479-34.431-123.465c-8.307-41.997-13.399-84.697-16.059-127.719
				c-5.327-86.094-1.902-173.228,1.134-260.621c2.923-87.417,5.259-175.282,3.977-263.107c-0.523-43.908-1.834-87.802-3.932-131.651
				c-0.922-21.929-2.269-43.837-3.576-65.743c-1.517-21.894-3.156-43.777-4.972-65.641c-7.427-87.449-17.518-174.63-30.348-261.369
				c-13.247-86.677-28.79-172.975-47.63-258.527c-0.539-2.446-2.957-3.991-5.402-3.452
				C1076.915,713.049,1075.391,715.358,1075.799,717.73z"/>
		</g>
		<g>
			<g>
				<path style="fill:#BDD0FB;" d="M1200.792,2765.466c-7.222,30.339-43.081,43.443-68.402,25.237
					c-139.716-100.452-509.059-420.189-544.133-1013.196c-29.618-500.767-93.265-769.489-130.612-889.477
					c-7.897-25.373,21.186-46.079,42.608-30.356C736.601,1031.146,1462.467,1666.118,1200.792,2765.466z"/>
				<path style="fill:#FFFFFF;" d="M1158.866,2770.507c-0.592,0.498-1.238,0.944-1.94,1.333c-5.879,3.264-13.291,1.144-16.555-4.735
					c-3.7-6.665-370.825-674.445-443.46-1368.868c-0.697-6.683,4.155-12.672,10.845-13.379c6.689-0.697,12.676,4.156,13.379,10.845
					c72.104,689.369,436.851,1352.961,440.526,1359.582C1164.538,2760.463,1163.236,2766.83,1158.866,2770.507z"/>
			</g>
		</g>
		<g>
			
				<linearGradient id="SVGID_00000003808833679286661710000007655741862395014281_" gradientUnits="userSpaceOnUse" x1="2262.6533" y1="2522.2217" x2="2128.7319" y2="3406.1069" gradientTransform="matrix(0.998 0.063 -0.063 0.998 -47.9142 -44.4092)">
				<stop  offset="0" style="stop-color:#09005D"/>
				<stop  offset="1" style="stop-color:#1A0F91"/>
			</linearGradient>
			<path style="fill:url(#SVGID_00000003808833679286661710000007655741862395014281_);" d="M2355.44,2702.353
				c-0.253-14.478-14.178-27.875-38.46-39.443c28.019-13.219,44.005-28.275,43.732-44.048
				c-0.832-47.731-149.539-83.849-332.15-80.674c-182.609,3.177-329.972,44.445-329.14,92.176
				c0.251,14.477,14.177,27.875,38.458,39.442c-28.019,13.22-44.005,28.276-43.73,44.049c0.251,14.476,14.177,27.874,38.458,39.441
				c-28.019,13.22-44.005,28.276-43.73,44.051c0.25,14.476,14.177,27.874,38.458,39.441c-28.019,13.219-44.005,28.276-43.73,44.05
				c0.366,21.11,29.695,39.938,78.053,54.111c-1.615,15.48-2.335,32.514-1.997,51.392c1.581,87.954,95.678,162.779,225.862,171
				c130.186,8.221,248.768-78.212,255.591-165.916c1.671-21.492,1.951-40.488,1.068-57.438
				c63.603-16.869,103.144-39.881,102.713-64.65c-0.253-14.478-14.178-27.875-38.46-39.442
				c28.019-13.219,44.005-28.277,43.732-44.05c-0.253-14.476-14.178-27.875-38.46-39.441
				C2339.727,2733.181,2355.713,2718.124,2355.44,2702.353z"/>
			<g>
				
					<linearGradient id="SVGID_00000067931327822660703290000000549916603102476435_" gradientUnits="userSpaceOnUse" x1="2433.353" y1="1509.3203" x2="2176.7903" y2="3194.3037" gradientTransform="matrix(0.998 0.063 -0.063 0.998 -47.9142 -44.4092)">
					<stop  offset="0" style="stop-color:#4F52FF"/>
					<stop  offset="1" style="stop-color:#4042E2"/>
				</linearGradient>
				<path style="fill:url(#SVGID_00000067931327822660703290000000549916603102476435_);" d="M1917.287,2963.748
					c-53.96-3.407-103.08-10.494-143.381-20.883c-2.339-0.601-3.746-2.985-3.142-5.324c0.601-2.335,2.974-3.746,5.324-3.141
					c63.059,16.252,148.147,24.328,239.588,22.739c74.822-1.303,145.201-8.914,203.525-22.011c2.362-0.528,4.697,0.949,5.225,3.306
					c0.53,2.355-0.951,4.697-3.306,5.225c-58.895,13.226-129.886,20.91-205.291,22.22
					C1981.863,2966.469,1948.753,2965.735,1917.287,2963.748z"/>
				
					<linearGradient id="SVGID_00000030450406002576350360000009460563992701207424_" gradientUnits="userSpaceOnUse" x1="2434.054" y1="1509.4086" x2="2177.4878" y2="3194.4148" gradientTransform="matrix(0.998 0.063 -0.063 0.998 -47.9142 -44.4092)">
					<stop  offset="0" style="stop-color:#4F52FF"/>
					<stop  offset="1" style="stop-color:#4042E2"/>
				</linearGradient>
				<path style="fill:url(#SVGID_00000030450406002576350360000009460563992701207424_);" d="M1923.469,2880.238
					c-70.106-4.427-132.341-14.979-175.737-30.352c-2.277-0.807-3.467-3.304-2.662-5.583c0.809-2.276,3.296-3.464,5.582-2.661
					c61.84,21.907,162.882,33.868,270.298,32.003c106.252-1.849,206.196-17.074,267.354-40.73c2.254-0.867,4.785,0.25,5.656,2.501
					c0.869,2.253-0.248,4.784-2.501,5.656c-62.066,24.006-163.134,39.452-270.356,41.316
					C1987.641,2882.971,1954.769,2882.215,1923.469,2880.238z"/>
				
					<linearGradient id="SVGID_00000111871748345835597090000001635001964165172886_" gradientUnits="userSpaceOnUse" x1="2416.3301" y1="1506.7037" x2="2159.7649" y2="3191.7024" gradientTransform="matrix(0.998 0.063 -0.063 0.998 -47.9142 -44.4092)">
					<stop  offset="0" style="stop-color:#4F52FF"/>
					<stop  offset="1" style="stop-color:#4042E2"/>
				</linearGradient>
				<path style="fill:url(#SVGID_00000111871748345835597090000001635001964165172886_);" d="M1927.839,2796.752
					c-75.694-4.78-141.446-16.707-185.102-34.223c-2.242-0.9-3.329-3.446-2.429-5.687c0.899-2.241,3.435-3.332,5.685-2.43
					c60.752,24.377,165.511,37.734,280.228,35.744c106.244-1.848,206.189-17.075,267.354-40.733
					c2.254-0.865,4.785,0.251,5.656,2.501c0.87,2.251-0.248,4.784-2.501,5.656c-62.071,24.008-163.141,39.454-270.356,41.319
					C1992.398,2799.49,1959.261,2798.736,1927.839,2796.752z"/>
				
					<linearGradient id="SVGID_00000033364070061389164870000004947048169203004600_" gradientUnits="userSpaceOnUse" x1="2418.3357" y1="1507.004" x2="2161.7703" y2="3192.0049" gradientTransform="matrix(0.998 0.063 -0.063 0.998 -47.9142 -44.4092)">
					<stop  offset="0" style="stop-color:#4F52FF"/>
					<stop  offset="1" style="stop-color:#4042E2"/>
				</linearGradient>
				<path style="fill:url(#SVGID_00000033364070061389164870000004947048169203004600_);" d="M1933.698,2713.258
					c-60.045-3.792-114.352-12.094-156.213-24.209c-2.318-0.672-3.657-3.096-2.983-5.415c0.67-2.321,3.102-3.658,5.412-2.984
					c62.949,18.216,154.647,27.698,251.578,26.012c105.298-1.833,204.725-16.857,265.97-40.197c2.253-0.866,4.781,0.272,5.64,2.53
					c0.861,2.255-0.271,4.78-2.529,5.64c-62.136,23.683-162.671,38.923-268.927,40.769
					C1998.073,2715.991,1965.097,2715.24,1933.698,2713.258z"/>
			</g>
			
				<linearGradient id="SVGID_00000120532729221744140070000003844193436734543247_" gradientUnits="userSpaceOnUse" x1="2026.6268" y1="2842.5015" x2="2026.6268" y2="661.5507">
				<stop  offset="0" style="stop-color:#FF928E"/>
				<stop  offset="1" style="stop-color:#FE7062"/>
			</linearGradient>
			<path style="fill:url(#SVGID_00000120532729221744140070000003844193436734543247_);" d="M1571.665,2258.962
				c-22.112-78.313-59.667-151.501-110.247-215.246c-108.374-136.585-285.175-414.363-306.938-793.479
				c-31.653-551.441,457.411-827.522,903.69-790.042c446.278,37.48,886.643,369.768,838.436,882.777
				c-29.664,315.654-206.34,555.082-337.885,692.585c-83.531,87.315-143.115,194.258-175.369,310.71
				c-39.478,142.533-133.424,320.156-356.727,330.983C1737.681,2691.26,1617.674,2421.93,1571.665,2258.962z"/>
			
				<linearGradient id="SVGID_00000143611952410618055820000014117573642265290901_" gradientUnits="userSpaceOnUse" x1="2189.1616" y1="1842.8357" x2="2253.2871" y2="3880.2893">
				<stop  offset="0" style="stop-color:#E1473D"/>
				<stop  offset="1" style="stop-color:#E9605A"/>
			</linearGradient>
			<path style="fill:url(#SVGID_00000143611952410618055820000014117573642265290901_);" d="M2100.437,2567.282l156.151-1015.631
				c3.226-20.983,13.552-35.074,23.065-31.473c9.511,3.599,14.607,23.529,11.381,44.51c-0.087,0.56-0.201,1.251-0.297,1.799
				l-177.87,1006.195c-1.338,7.567-5.181,12.345-8.584,10.672C2100.985,2581.732,2099.316,2574.607,2100.437,2567.282z"/>
			
				<linearGradient id="SVGID_00000048501039669417936080000017373129224570081455_" gradientUnits="userSpaceOnUse" x1="1835.9208" y1="1853.9542" x2="1900.0466" y2="3891.4133">
				<stop  offset="0" style="stop-color:#E1473D"/>
				<stop  offset="1" style="stop-color:#E9605A"/>
			</linearGradient>
			<path style="fill:url(#SVGID_00000048501039669417936080000017373129224570081455_);" d="M1938.344,2575.345l-156.151-1015.631
				c-3.226-20.981-13.552-35.072-23.064-31.472c-9.513,3.6-14.608,23.529-11.382,44.511c0.086,0.558,0.201,1.251,0.297,1.799
				l177.872,1006.194c1.336,7.566,5.179,12.346,8.582,10.673C1937.796,2589.797,1939.464,2582.672,1938.344,2575.345z"/>
			<path style="fill:#FFFFFF;" d="M2255.469,1464.449c-3.966-6.377-13.142-8.759-20.499-5.322l-86.948,40.626l-30.181-85.996
				c-1.598-4.489-5.297-8.465-10.574-10.641c-10.002-4.122-21.965-0.435-26.72,8.235l-0.152,0.279l-71.506,130.38l-66.354-185.601
				l-0.11-0.307c-1.624-4.529-5.05-8.599-10.043-11.324c-11.126-6.074-25.825-3.179-32.831,6.467l-99.968,137.617
				c-4.065,5.641-2.667,13.198,3.523,17.369c6.608,4.449,16.125,3.415,21.259-2.312l88.019-98.184l79.245,176.557l0.062,0.136
				c1.27,2.827,3.661,5.29,6.981,6.844c7.435,3.483,16.72,1.082,20.739-5.365l76.477-122.721l28.783,62.071l0.254,0.55
				c0.208,0.445,0.445,0.886,0.716,1.319c3.962,6.372,13.13,8.753,20.482,5.318l103.208-48.225
				C2256.685,1478.782,2259.433,1470.826,2255.469,1464.449z"/>
			<path style="fill:#FFFFFF;" d="M2562.127,1889.902c-1.055,0-2.12-0.325-3.036-1.005c-2.26-1.675-2.73-4.867-1.052-7.13
				c26.903-36.236,51.586-73.732,73.367-111.444c1.406-2.442,4.525-3.275,6.96-1.865c2.439,1.407,3.271,4.525,1.865,6.96
				c-21.973,38.05-46.875,75.875-74.01,112.426C2565.222,1889.192,2563.683,1889.902,2562.127,1889.902z"/>
			<path style="fill:#FFFFFF;" d="M2690.59,1669.436c-0.677,0-1.363-0.136-2.027-0.421c-2.581-1.121-3.765-4.124-2.644-6.705
				c87.51-201.538,88.608-384.926,74.12-503.277c-15.713-128.344-52.628-210.055-52.997-210.864
				c-1.174-2.558-0.05-5.584,2.508-6.755c2.571-1.168,5.583-0.05,6.755,2.508c0.378,0.823,37.855,83.665,53.799,213.455
				c14.707,119.705,13.662,305.179-74.836,508.993C2694.435,1668.292,2692.558,1669.436,2690.59,1669.436z"/>
		</g>
		<g>
			<g>
				<g>
					
						<linearGradient id="SVGID_00000142890016623522766990000001518322361193918645_" gradientUnits="userSpaceOnUse" x1="1657.6388" y1="-1170.0087" x2="1354.3502" y2="2257.1855">
						<stop  offset="0" style="stop-color:#4F52FF"/>
						<stop  offset="1" style="stop-color:#4042E2"/>
					</linearGradient>
					<path style="fill:url(#SVGID_00000142890016623522766990000001518322361193918645_);" d="M1714.158,3112.6
						c0,41.222-33.417,74.639-74.639,74.639h-587.935c-41.222,0-74.639-33.417-74.639-74.639V1600.602
						c0-41.222,33.417-74.639,74.639-74.639h587.935c41.222,0,74.639,33.417,74.639,74.639V3112.6z"/>
					
						<linearGradient id="SVGID_00000155865403995452287600000005262162426431485079_" gradientUnits="userSpaceOnUse" x1="1334.5311" y1="1611.4288" x2="1351.4673" y2="1404.8079">
						<stop  offset="0" style="stop-color:#4F52FF"/>
						<stop  offset="1" style="stop-color:#4042E2"/>
					</linearGradient>
					<path style="fill:url(#SVGID_00000155865403995452287600000005262162426431485079_);" d="M1518.782,1437.634H1171.81
						c-17.543,0-31.794,13.83-31.794,33.411v54.919h407.675v-54.919C1547.691,1451.464,1536.325,1437.634,1518.782,1437.634z"/>
				</g>
				<polygon style="fill:#BDD0FB;" points="1489.937,1787.555 1377.827,1787.555 1377.827,1672.047 1316.676,1672.047 
					1316.676,1787.555 1201.168,1787.555 1201.168,1848.706 1316.676,1848.706 1316.676,1960.817 1377.827,1960.817 
					1377.827,1848.706 1489.937,1848.706 				"/>
				<path style="fill:#7D97F4;" d="M1714.158,2110.298V3112.68c0,41.215-32.008,74.559-73.223,74.559h-589.352
					c-41.215,0-74.638-33.344-74.638-74.559V2110.298H1714.158z"/>
			</g>
			<path style="opacity:0.8;fill:#FFFFFF;" d="M1499.783,2557.645c-0.537-1.024-1.598-2.302-2.754-2.302h-126.362
				c-0.961,0-1.868,0.193-2.457-0.566c-0.589-0.759-0.794-1.43-0.555-2.36l52.871-206.074c0.369-1.439-0.331-2.858-1.672-3.499
				c-1.34-0.641-2.946-0.204-3.834,0.986l-225.395,302.235c-0.703,0.943-0.814,1.919-0.287,2.97c0.527,1.052,1.603,1.432,2.78,1.432
				h115.928c0.932,0,1.816,0.711,2.406,1.433c0.591,0.721,0.826,1.816,0.642,2.73l-48.115,238.993
				c-0.291,1.447,0.475,2.937,1.833,3.513c1.359,0.577,2.936,0.137,3.775-1.077l231.001-334.894
				C1500.245,2560.215,1500.32,2558.668,1499.783,2557.645z"/>
		</g>
		<g>
			<g>
				<g style="opacity:0.3;">
					<path style="fill:#91B3FA;" d="M2716.61,746.791c-1.44-4.631,0.822-9.698,5.375-11.653c9.957-4.281,20.25-8.19,30.588-11.624
						c5.03-1.67,10.462,1.052,12.132,6.081c0.019,0.061,0.037,0.12,0.056,0.179c1.548,4.978-1.168,10.302-6.138,11.952
						c-9.823,3.261-19.598,6.977-29.058,11.041c-4.867,2.093-10.513-0.157-12.605-5.027
						C2716.824,747.428,2716.709,747.11,2716.61,746.791z M2796.61,722.557c-0.111-0.358-0.203-0.728-0.274-1.106
						c-0.969-5.21,2.47-10.22,7.679-11.189c10.701-1.988,21.594-3.539,32.374-4.607c5.274-0.523,9.955,3.31,10.498,8.601
						c0.522,5.274-3.332,9.971-8.601,10.494c-10.247,1.017-20.594,2.49-30.764,4.382
						C2802.69,730.029,2798.034,727.136,2796.61,722.557z M2879.956,716.54c-0.317-1.02-0.468-2.111-0.423-3.24
						c0.218-5.294,4.683-9.413,9.978-9.198c10.853,0.44,21.823,1.359,32.604,2.732c5.257,0.673,8.969,5.478,8.307,10.73
						c-0.669,5.256-5.475,8.976-10.73,8.306c-10.238-1.304-20.652-2.176-30.96-2.595
						C2884.565,723.108,2881.127,720.305,2879.956,716.54z M2962.572,729.314c-0.524-1.686-0.589-3.536-0.091-5.365
						c1.393-5.112,6.669-8.126,11.781-6.734c10.487,2.862,20.976,6.209,31.175,9.951c4.969,1.828,7.522,7.338,5.702,12.314
						c-1.825,4.974-7.338,7.526-12.314,5.702c-9.686-3.554-19.648-6.736-29.614-9.451
						C2965.929,734.835,2963.513,732.34,2962.572,729.314z M3040.263,760.19c-0.735-2.364-0.561-5.009,0.697-7.365
						c2.494-4.677,8.306-6.446,12.98-3.951c9.567,5.103,19.052,10.687,28.184,16.6c4.451,2.876,5.726,8.817,2.843,13.268
						c-2.88,4.447-8.819,5.72-13.27,2.841c-8.68-5.621-17.695-10.929-26.786-15.778
						C3042.591,764.568,3040.987,762.516,3040.263,760.19z M3109.185,807.48c-0.952-3.062-0.351-6.53,1.9-9.134
						c3.468-4.009,9.525-4.448,13.534-0.983c8.215,7.103,16.229,14.648,23.814,22.426c3.701,3.796,3.623,9.869-0.172,13.57
						c-3.791,3.699-9.867,3.622-13.567-0.171c-7.208-7.39-14.82-14.559-22.626-21.308
						C3110.662,810.664,3109.698,809.131,3109.185,807.48z M3235.419,1136.425c-0.395-1.269-0.53-2.637-0.354-4.041
						c1.285-10.228,2.141-20.651,2.541-30.976c0.206-5.294,4.665-9.421,9.957-9.214c5.295,0.203,9.422,4.662,9.217,9.958
						c-0.421,10.874-1.321,21.852-2.673,32.623c-0.661,5.259-5.46,8.985-10.717,8.324
						C3239.535,1142.616,3236.502,1139.907,3235.419,1136.425z M3165.875,868.828c-1.182-3.801,0.097-8.094,3.484-10.582
						c4.272-3.138,10.277-2.219,13.414,2.051c6.431,8.753,12.559,17.892,18.214,27.164c2.738,4.536,1.332,10.429-3.194,13.189
						c-4.523,2.759-10.428,1.328-13.189-3.196c-5.369-8.807-11.188-17.484-17.295-25.796
						C3166.662,870.773,3166.183,869.817,3165.875,868.828z M3236.421,1052.847c-0.188-0.605-0.322-1.236-0.388-1.891
						c-1.037-10.263-2.535-20.617-4.442-30.774c-0.976-5.209,2.453-10.224,7.659-11.202c5.208-0.976,10.246,2.442,11.202,7.659
						c2.006,10.688,3.581,21.583,4.675,32.382c0.533,5.273-3.31,9.981-8.58,10.513
						C3241.931,1060.002,3237.748,1057.113,3236.421,1052.847z M3207.442,941.301c-1.438-4.624,0.815-9.684,5.358-11.646
						c4.865-2.102,10.511,0.138,12.617,5.002c4.303,9.96,8.234,20.24,11.678,30.555c0.024,0.063,0.044,0.129,0.064,0.194
						c1.546,4.971-1.161,10.288-6.121,11.946c-5.028,1.68-10.463-1.032-12.141-6.06c-3.275-9.797-7.01-19.561-11.099-29.024
						C3207.663,941.949,3207.542,941.625,3207.442,941.301z"/>
					<path style="fill:#91B3FA;" d="M3221.007,1202.241c-0.561-1.804-0.598-3.792,0.015-5.731c1.492-4.717,2.907-9.543,4.216-14.347
						c1.389-5.112,6.663-8.133,11.775-6.741c5.114,1.388,8.14,6.663,6.74,11.777c-1.372,5.053-2.863,10.128-4.432,15.093
						c-1.596,5.052-6.989,7.855-12.039,6.258C3224.167,1207.566,3221.909,1205.14,3221.007,1202.241z"/>
				</g>
				<g style="opacity:0.3;">
					<path style="fill:#91B3FA;" d="M3030.931,1424.6c-1.375-4.422,0.621-9.311,4.902-11.436c4.431-2.197,8.892-4.524,13.254-6.917
						c4.647-2.548,10.479-0.848,13.027,3.798c2.558,4.666,0.846,10.48-3.799,13.027c-4.594,2.518-9.291,4.97-13.957,7.285
						c-4.747,2.354-10.504,0.414-12.86-4.333C3031.268,1425.559,3031.08,1425.081,3030.931,1424.6z"/>
					<path style="fill:#91B3FA;" d="M2507.912,1201.288c-1.311-4.216-2.555-8.47-3.733-12.761c-1.401-5.11,1.604-10.39,6.714-11.793
						c5.11-1.403,10.416,1.622,11.795,6.712c2.719,9.903,5.832,19.673,9.297,29.148c1.813,4.984-0.738,10.486-5.714,12.307
						c-4.98,1.821-10.49-0.739-12.309-5.716C2511.817,1213.324,2509.782,1207.302,2507.912,1201.288z M2494.14,1138.874
						c-0.159-0.512-0.278-1.046-0.351-1.596c-1.413-10.612-2.39-21.402-2.905-32.069c-0.257-5.292,3.827-9.791,9.117-10.046
						c5.294-0.255,9.808,3.834,10.047,9.121c0.49,10.131,1.421,20.381,2.76,30.466c0.699,5.252-2.993,10.076-8.243,10.775
						C2499.861,1146.15,2495.503,1143.257,2494.14,1138.874z M2534.549,1265.289c-1.344-4.32,0.528-9.119,4.668-11.316
						c4.684-2.483,10.49-0.7,12.975,3.981c4.748,8.956,9.946,17.829,15.453,26.376c2.863,4.46,1.584,10.394-2.87,13.263
						c-4.457,2.87-10.395,1.584-13.265-2.871c-5.798-9-11.272-18.347-16.274-27.778
						C2534.952,1266.406,2534.724,1265.851,2534.549,1265.289z M2492.338,1056.618c-0.362-1.163-0.503-2.414-0.39-3.702
						c0.953-10.653,2.374-21.394,4.221-31.923c0.917-5.219,5.888-8.706,11.107-7.79c5.222,0.915,8.711,5.885,7.792,11.108
						c-1.754,9.997-3.103,20.196-4.007,30.314c-0.47,5.278-5.134,9.174-10.411,8.701
						C2496.661,1062.97,2493.458,1060.22,2492.338,1056.618z M2580.872,1333.203c-1.102-3.543-0.083-7.561,2.912-10.134
						c4.021-3.453,10.079-2.992,13.532,1.029c6.598,7.688,13.622,15.2,20.872,22.332c3.778,3.716,3.83,9.791,0.111,13.57
						c-3.716,3.776-9.788,3.826-13.566,0.11c-7.634-7.507-15.028-15.417-21.977-23.511
						C2581.876,1335.575,2581.249,1334.416,2580.872,1333.203z M2640.976,1389.309c-0.881-2.833-0.44-6.033,1.468-8.593
						c3.169-4.247,9.181-5.122,13.428-1.953c8.147,6.076,16.644,11.88,25.254,17.25c4.501,2.798,5.874,8.714,3.067,13.218
						c-2.805,4.497-8.721,5.868-13.22,3.066c-9.062-5.652-18.003-11.759-26.575-18.154
						C2642.712,1392.884,2641.557,1391.177,2640.976,1389.309z M2711.882,1430.977c-0.67-2.155-0.587-4.551,0.409-6.772
						c2.166-4.835,7.844-6.997,12.68-4.829c9.282,4.162,18.837,7.979,28.408,11.341c4.997,1.756,7.629,7.228,5.87,12.234
						c-1.759,4.998-7.233,7.627-12.234,5.87c-10.07-3.54-20.13-7.555-29.896-11.934
						C2714.505,1435.713,2712.671,1433.514,2711.882,1430.977z M2790.182,1456.188c-0.464-1.493-0.57-3.118-0.236-4.759
						c1.058-5.192,6.124-8.542,11.316-7.484c9.962,2.031,20.12,3.659,30.197,4.838c5.263,0.616,9.032,5.389,8.417,10.643
						c-0.615,5.265-5.383,9.032-10.646,8.416c-10.615-1.242-21.314-2.956-31.8-5.093
						C2793.877,1462.023,2791.188,1459.421,2790.182,1456.188z M2872.138,1463.597c-0.261-0.839-0.408-1.729-0.428-2.652
						c-0.113-5.297,4.092-9.684,9.388-9.794c10.138-0.216,20.4-0.866,30.508-1.937c5.271-0.558,9.993,3.278,10.551,8.531
						c0.56,5.27-3.262,9.995-8.532,10.553c-10.639,1.127-21.444,1.812-32.117,2.037
						C2877.132,1470.428,2873.376,1467.577,2872.138,1463.597z M2953.665,1452.828c-0.059-0.188-0.11-0.38-0.158-0.573
						c-1.263-5.146,1.886-10.342,7.031-11.604c7.265-1.782,14.559-3.81,21.688-6.027c2.58-0.802,5.148-1.634,7.697-2.488
						c5.026-1.683,10.465,1.026,12.146,6.051c1.803,5.054-1.025,10.461-6.047,12.145c-2.684,0.9-5.38,1.771-8.096,2.616
						c-7.498,2.332-15.175,4.465-22.815,6.339C2960.157,1460.503,2955.159,1457.632,2953.665,1452.828z"/>
					<path style="fill:#91B3FA;" d="M2508.77,975.766c-0.567-1.822-0.598-3.827,0.028-5.779c1.59-4.945,3.315-9.951,5.127-14.877
						c1.828-4.975,7.343-7.524,12.316-5.695c4.973,1.831,7.527,7.338,5.695,12.316c-1.72,4.68-3.358,9.434-4.869,14.129
						c-1.619,5.043-7.023,7.819-12.069,6.198C2511.905,981.063,2509.666,978.647,2508.77,975.766z"/>
				</g>
				<g>
					<path style="fill:#91B3FA;" d="M2618.884,955.077c-1.056,1.595-0.984,3.685,0.18,5.203l33.202,43.32
						c-8.853,23.902-13.959,49.388-14.733,75.608l-46.989,27.699c-1.649,0.971-2.498,2.882-2.117,4.757l13.044,64.156
						c0.382,1.875,1.911,3.301,3.806,3.552l54.075,7.15c10.952,23.836,25.604,45.304,43.089,63.851l-13.649,52.847
						c-0.478,1.852,0.271,3.804,1.866,4.86l54.589,36.142c1.596,1.057,3.686,0.984,5.204-0.18l43.32-33.202
						c23.902,8.854,49.389,13.959,75.608,14.733l27.7,46.989c0.971,1.648,2.881,2.498,4.756,2.117l64.157-13.044
						c1.875-0.381,3.302-1.91,3.552-3.807l7.151-54.075c23.836-10.952,45.305-25.603,63.851-43.088l52.848,13.649
						c1.851,0.478,3.804-0.271,4.86-1.866l36.141-54.589c1.057-1.595,0.984-3.685-0.179-5.203l-33.202-43.32
						c8.854-23.902,13.96-49.388,14.733-75.608l46.99-27.699c1.647-0.971,2.498-2.881,2.117-4.756l-13.045-64.157
						c-0.381-1.875-1.909-3.301-3.807-3.552l-54.075-7.15c-10.951-23.836-25.604-45.305-43.089-63.852l13.649-52.846
						c0.479-1.852-0.271-3.805-1.866-4.861l-54.589-36.141c-1.595-1.056-3.685-0.984-5.203,0.18l-43.32,33.201
						c-23.902-8.854-49.389-13.959-75.608-14.733l-27.699-46.99c-0.97-1.648-2.882-2.499-4.757-2.116l-64.156,13.044
						c-1.875,0.381-3.302,1.909-3.553,3.806l-7.15,54.075c-23.835,10.952-45.304,25.604-63.851,43.088l-52.846-13.648
						c-1.853-0.479-3.804,0.271-4.861,1.866L2618.884,955.077z"/>
					<g>
						<path style="fill:#BDD0FB;" d="M2813.783,1105.973c-9.527-30.631,4.6-64.524,34.357-78.821
							c32.71-15.714,72.101-1.888,87.816,30.819c7.617,15.845,8.6,33.707,2.779,50.289c-5.82,16.586-17.751,29.914-33.597,37.525
							c-32.711,15.714-72.101,1.888-87.816-30.819C2815.906,1112.017,2814.727,1109.01,2813.783,1105.973z M2924.858,1071.583
							c-0.736-2.366-1.647-4.69-2.739-6.965c-12.047-25.077-42.254-35.676-67.329-23.63c-25.078,12.049-35.691,42.25-23.631,67.331
							c12.046,25.077,42.253,35.676,67.329,23.63c12.15-5.838,21.297-16.054,25.761-28.772
							C2927.875,1092.842,2928.053,1081.856,2924.858,1071.583z"/>
					</g>
					<path style="fill:#BDD0FB;" d="M2723.422,1135.487c-1.636-5.261-3.017-10.635-4.131-16.107l0,0
						c-0.351-1.722-0.673-3.451-0.969-5.184c-1.453-8.546-2.224-17.195-2.302-25.812c-0.001-0.117-0.002-0.235-0.004-0.352
						c-0.001-0.333-0.003-0.666-0.001-1c-0.002-0.649,0.005-1.298,0.011-1.946c0.019-1.705,1.147-3.138,2.693-3.621
						c0.375-0.117,0.777-0.177,1.191-0.172c2.119,0.024,3.811,1.766,3.79,3.882c-0.129,10.907,0.919,21.899,3.113,32.674
						c10.874,53.526,48.436,94.94,95.992,113.215c26.45,10.168,55.995,13.174,85.764,7.12c5.221-1.06,10.349-2.377,15.366-3.939
						c33.769-10.507,62.656-32.128,82.442-62.015c22.729-34.329,30.729-75.456,22.526-115.8
						c-16.95-83.321-98.474-137.269-181.756-120.335c-5.135,1.044-10.198,2.344-15.169,3.892
						c-21.54,6.704-41.375,18.046-58.039,33.283c-0.431,0.393-0.926,0.671-1.449,0.832c-1.374,0.427-2.937,0.06-3.972-1.075
						c-1.426-1.57-1.328-3.991,0.244-5.424c17.496-15.996,38.319-27.907,60.933-34.944c5.217-1.625,10.531-2.989,15.921-4.086
						c87.44-17.78,173.037,38.919,190.811,126.327c8.613,42.356,0.213,85.528-23.648,121.567
						c-20.77,31.376-51.097,54.074-86.548,65.106c-5.268,1.639-10.651,3.02-16.129,4.136c-42.358,8.611-85.532,0.214-121.571-23.646
						C2757.15,1201.285,2734.451,1170.947,2723.422,1135.487z"/>
				</g>
			</g>
			<g>
				<g style="opacity:0.3;">
					<path style="fill:#91B3FA;" d="M2377.921,509.231c-0.761-2.448,0.134-5.2,2.379-6.692c4.188-2.787,8.518-5.486,12.87-8.018
						c2.828-1.646,6.452-0.689,8.103,2.141c1.66,2.826,0.687,6.456-2.141,8.103c-4.146,2.414-8.274,4.985-12.271,7.644
						c-2.721,1.813-6.4,1.072-8.217-1.651C2378.323,510.273,2378.085,509.759,2377.921,509.231z"/>
					<path style="fill:#91B3FA;" d="M2418.033,487.57c-0.892-2.868,0.515-6.003,3.335-7.204c7.968-3.4,16.202-6.428,24.469-8.999
						c1.741-0.541,3.493-1.065,5.256-1.574c3.149-0.904,6.365,1.114,7.34,4.054c0.906,3.145-0.91,6.428-4.052,7.336
						c-1.686,0.485-3.361,0.984-5.024,1.502c-7.886,2.453-15.739,5.341-23.338,8.58c-3.012,1.286-6.49-0.114-7.778-3.123
						C2418.164,487.951,2418.092,487.761,2418.033,487.57z M2477.163,470.543c-0.083-0.268-0.152-0.547-0.198-0.829
						c-0.515-3.234,1.686-6.273,4.918-6.791c10.369-1.661,20.933-2.692,31.394-3.064c3.272-0.118,6.013,2.457,6.134,5.711
						c0.115,3.273-2.438,6.016-5.71,6.134c-9.981,0.355-20.057,1.341-29.946,2.923
						C2480.809,475.097,2478.024,473.312,2477.163,470.543z M2538.655,468.363c-0.223-0.718-0.312-1.491-0.244-2.285
						c0.29-3.259,3.172-5.665,6.431-5.376c10.442,0.934,20.945,2.528,31.205,4.749c3.203,0.692,5.23,3.837,4.538,7.047
						c-0.691,3.197-3.847,5.23-7.043,4.539c-9.786-2.117-19.794-3.641-29.754-4.528
						C2541.324,472.288,2539.347,470.588,2538.655,468.363z M2598.804,481.368c-0.365-1.172-0.367-2.465,0.064-3.711
						c1.082-3.088,4.465-4.72,7.553-3.638c9.916,3.471,19.699,7.586,29.085,12.236c2.931,1.455,4.124,5.015,2.676,7.941
						c-1.451,2.933-5.005,4.132-7.942,2.679c-8.943-4.434-18.28-8.36-27.733-11.669
						C2600.664,484.562,2599.343,483.1,2598.804,481.368z M2653.951,508.668c-0.509-1.636-0.307-3.481,0.71-5.024
						c1.799-2.732,5.473-3.487,8.208-1.689c8.76,5.773,17.249,12.139,25.226,18.925c2.501,2.119,2.798,5.86,0.677,8.353
						c-2.122,2.493-5.863,2.796-8.353,0.677c-7.614-6.474-15.709-12.548-24.07-18.053
						C2655.159,511.071,2654.344,509.931,2653.951,508.668z M2700.795,548.521c-0.659-2.119-0.092-4.526,1.652-6.129
						c2.409-2.213,6.156-2.051,8.372,0.357c7.094,7.727,13.774,15.971,19.845,24.501c1.894,2.68,1.271,6.368-1.393,8.267
						c-2.664,1.898-6.367,1.274-8.263-1.391c-5.791-8.135-12.156-15.992-18.92-23.358
						C2701.474,550.101,2701.047,549.331,2700.795,548.521z M2736.464,598.604c-0.825-2.652,0.312-5.603,2.844-6.969
						c2.88-1.554,6.476-0.478,8.032,2.402c4.965,9.202,9.416,18.836,13.234,28.636c1.138,3.076-0.328,6.49-3.377,7.674
						c-3.049,1.188-6.483-0.323-7.673-3.371c-3.636-9.351-7.882-18.54-12.617-27.313
						C2736.722,599.318,2736.576,598.963,2736.464,598.604z M2764.508,686.238c-0.101-0.326-0.178-0.669-0.221-1.022
						c-1.084-8.572-2.657-17.234-4.676-25.749c-0.299-1.292-0.607-2.556-0.931-3.813c-0.805-3.174,1.107-6.399,4.279-7.207
						c3.177-0.815,6.499,1.097,7.209,4.276c0.339,1.343,0.671,2.685,0.984,4.04c2.106,8.897,3.755,17.978,4.891,26.967
						c0.41,3.249-1.887,6.212-5.135,6.622C2768.016,690.717,2765.346,688.932,2764.508,686.238z"/>
				</g>
				<g style="opacity:0.3;">
					<path style="fill:#91B3FA;" d="M2278.733,795.044c-0.961-3.089,0.741-6.388,3.828-7.394c3.11-1.013,6.457,0.689,7.468,3.802
						c3.048,9.37,6.693,18.634,10.836,27.533c1.345,2.961,0.099,6.494-2.872,7.875c-2.97,1.382-6.493,0.092-7.875-2.872
						c-4.34-9.335-8.166-19.045-11.361-28.867C2278.75,795.096,2278.741,795.068,2278.733,795.044z M2271.104,765.701
						c-0.064-0.205-0.115-0.41-0.157-0.624c-1.997-10.122-3.396-20.468-4.164-30.751c-0.24-3.265,2.204-6.106,5.468-6.349
						c3.269-0.247,6.104,2.223,6.354,5.466c0.731,9.812,2.068,19.685,3.97,29.344c0.634,3.209-1.457,6.326-4.667,6.958
						C2274.904,770.338,2271.991,768.552,2271.104,765.701z M2304.279,849.897c-0.78-2.509,0.187-5.325,2.521-6.784
						c2.771-1.732,6.427-0.89,8.162,1.886c5.23,8.358,11.007,16.468,17.183,24.105c2.05,2.559,1.661,6.277-0.887,8.333
						c-2.542,2.057-6.277,1.662-8.335-0.883c-6.472-8.006-12.529-16.51-18.007-25.273
						C2304.638,850.836,2304.427,850.372,2304.279,849.897z M2266.64,705.321c-0.2-0.643-0.293-1.333-0.261-2.046
						c0.496-10.312,1.636-20.697,3.389-30.864c0.554-3.226,3.621-5.39,6.847-4.836c3.216,0.558,5.381,3.623,4.832,6.846
						c-1.669,9.695-2.754,19.594-3.229,29.426c-0.159,3.268-2.938,5.792-6.206,5.633
						C2269.458,709.357,2267.358,707.631,2266.64,705.321z M2342.325,896.943c-0.623-2.003-0.161-4.277,1.399-5.887
						c2.279-2.355,6.031-2.413,8.382-0.137c7.062,6.843,14.617,13.324,22.464,19.262c2.615,1.977,3.123,5.695,1.146,8.304
						c-1.976,2.609-5.695,3.123-8.304,1.147c-8.223-6.231-16.148-13.023-23.554-20.196
						C2343.119,898.721,2342.609,897.858,2342.325,896.943z M2390.547,933.492c-0.477-1.533-0.332-3.252,0.537-4.746
						c1.648-2.828,5.277-3.787,8.104-2.139c8.52,4.962,17.413,9.451,26.429,13.341c3.01,1.297,4.393,4.788,3.095,7.789
						c-1.296,3.006-4.78,4.389-7.784,3.094c-9.456-4.078-18.78-8.781-27.707-13.981
						C2391.89,936.074,2390.971,934.857,2390.547,933.492z M2446.142,957.437c-0.335-1.077-0.37-2.261-0.024-3.426
						c0.92-3.141,4.216-4.939,7.357-4.016c9.454,2.784,19.164,5.006,28.856,6.608c3.222,0.537,5.413,3.586,4.877,6.814
						c-0.535,3.23-3.583,5.414-6.815,4.88c-10.16-1.682-20.345-4.011-30.264-6.927
						C2448.153,960.787,2446.71,959.266,2446.142,957.437z"/>
					<path style="fill:#91B3FA;" d="M2276.976,645.391c-0.339-1.092-0.367-2.292-0.012-3.469c1.466-4.856,3.083-9.689,4.803-14.37
						c1.131-3.07,4.537-4.648,7.609-3.518c3.062,1.136,4.641,4.536,3.518,7.609c-1.643,4.462-3.184,9.075-4.585,13.708
						c-0.946,3.134-4.256,4.905-7.387,3.958C2278.968,648.716,2277.541,647.206,2276.976,645.391z"/>
				</g>
				<g>
					<path style="fill:#91B3FA;" d="M2351.542,627.358c-0.707,1.067-0.659,2.466,0.12,3.482l22.217,28.988
						c-5.924,15.994-9.341,33.048-9.859,50.593l-31.443,18.535c-1.103,0.65-1.672,1.928-1.417,3.182l8.728,42.93
						c0.256,1.255,1.279,2.209,2.547,2.377l36.184,4.784c7.328,15.95,17.133,30.316,28.833,42.727l-9.134,35.362
						c-0.32,1.239,0.182,2.546,1.249,3.253l36.528,24.184c1.068,0.707,2.466,0.658,3.482-0.12l28.988-22.217
						c15.994,5.925,33.049,9.341,50.594,9.859l18.534,31.443c0.65,1.103,1.928,1.672,3.183,1.417l42.931-8.729
						c1.255-0.255,2.21-1.278,2.377-2.547l4.785-36.184c15.95-7.328,30.316-17.133,42.726-28.833l35.364,9.133
						c1.239,0.32,2.545-0.182,3.251-1.248l24.185-36.529c0.707-1.067,0.658-2.466-0.12-3.482l-22.218-28.988
						c5.926-15.994,9.341-33.048,9.859-50.593l31.443-18.535c1.103-0.65,1.672-1.928,1.417-3.183l-8.729-42.931
						c-0.255-1.254-1.278-2.208-2.547-2.377l-36.184-4.784c-7.328-15.95-17.133-30.316-28.833-42.727l9.133-35.362
						c0.321-1.24-0.181-2.547-1.249-3.253l-36.528-24.184c-1.067-0.706-2.466-0.659-3.482,0.12l-28.988,22.216
						c-15.994-5.925-33.049-9.341-50.594-9.858l-18.535-31.444c-0.649-1.102-1.928-1.672-3.183-1.416l-42.93,8.728
						c-1.255,0.256-2.209,1.278-2.377,2.547l-4.785,36.185c-15.949,7.328-30.315,17.133-42.726,28.832l-35.363-9.133
						c-1.24-0.32-2.545,0.182-3.253,1.249L2351.542,627.358z"/>
					<g>
						<path style="fill:#BDD0FB;" d="M2481.181,728.504c-2.839-9.129-2.681-18.888,0.542-28.072
							c3.966-11.297,12.094-20.374,22.888-25.558c22.272-10.703,49.104-1.288,59.814,20.99
							c10.678,22.328,1.283,49.118-20.995,59.819c-10.793,5.187-22.96,5.859-34.255,1.893c-11.3-3.964-20.379-12.092-25.562-22.889
							C2482.647,732.67,2481.834,730.602,2481.181,728.504z M2555.514,705.503c-0.474-1.523-1.063-3.027-1.772-4.507
							c-7.878-16.386-27.614-23.312-44.002-15.438c-7.935,3.814-13.92,10.49-16.832,18.799c-2.917,8.314-2.414,17.257,1.39,25.202
							l0,0c3.814,7.938,10.493,13.919,18.8,16.835c8.314,2.917,17.262,2.422,25.204-1.393
							C2553.208,737.839,2560.288,720.852,2555.514,705.503z"/>
					</g>
					<path style="fill:#BDD0FB;" d="M2418.259,748.966c-1.114-3.581-2.053-7.246-2.82-10.996
						c-1.516-7.447-2.277-15.056-2.258-22.634c0.003-0.341,0.007-0.681,0.01-1.022c0.029-2.634,1.772-4.845,4.158-5.591
						c0.58-0.18,1.2-0.273,1.838-0.266c3.272,0.037,5.88,2.729,5.853,5.995c-0.084,7.075,0.596,14.191,2.014,21.15l0.001,0.003
						c0.077,0.382,0.16,0.765,0.241,1.143c3.507,16.44,10.979,31.383,21.634,43.817c5.784,6.749,12.514,12.759,20.071,17.861
						c0.062,0.042,0.123,0.083,0.184,0.125c0.191,0.125,0.376,0.253,0.566,0.376c22.225,14.712,48.848,19.892,74.966,14.581
						c3.381-0.685,6.698-1.538,9.947-2.548c21.861-6.802,40.562-20.801,53.374-40.15c14.712-22.225,19.887-48.847,14.576-74.963
						c-5.317-26.098-20.475-48.605-42.696-63.322c-22.224-14.712-48.848-19.892-74.966-14.581c-3.324,0.673-6.601,1.517-9.817,2.517
						c-13.947,4.341-26.785,11.682-37.572,21.546c-0.666,0.607-1.429,1.036-2.237,1.284c-2.122,0.66-4.535,0.092-6.134-1.659
						c-2.202-2.421-2.044-6.162,0.377-8.375c12.071-11.036,26.437-19.253,42.035-24.111c3.603-1.121,7.267-2.064,10.984-2.819
						c29.225-5.941,59.01-0.147,83.876,16.316c24.86,16.462,41.843,41.599,47.767,70.839c5.943,29.221,0.152,59.005-16.315,83.87
						c-14.329,21.648-35.252,37.307-59.71,44.917c-3.63,1.129-7.346,2.085-11.124,2.854
						C2490.506,836.624,2435.05,802.95,2418.259,748.966z"/>
				</g>
			</g>
		</g>
		
			<linearGradient id="SVGID_00000100354578006267403170000010016466021056576925_" gradientUnits="userSpaceOnUse" x1="1204.6549" y1="981.2281" x2="2156.3792" y2="981.2281">
			<stop  offset="0" style="stop-color:#DAE3FE"/>
			<stop  offset="1" style="stop-color:#E9EFFD"/>
		</linearGradient>
		<path style="fill:url(#SVGID_00000100354578006267403170000010016466021056576925_);" d="M2155.583,1088.552l-0.148,1.323
			c-10.773-17.219-30.786-41.704-42.82-55.932c-0.188-0.591-0.547-1.2-0.734-1.791c-5.646-17.465-13.759-36.596-24.972-56.042
			c-11.118-19.485-25.828-39.089-43.462-57.596c-2.093-2.378-4.577-4.549-6.844-6.83c-1.163-1.118-2.334-2.271-3.516-3.392
			l-1.72-1.7c-0.608-0.571-1.242-1.094-1.851-1.648c-2.461-2.168-4.922-4.354-7.397-6.557l-1.849-1.647l-1.966-1.56
			c-1.298-1.05-2.596-2.1-3.896-3.133c-5.106-4.307-10.699-8.167-16.128-12.192c-2.773-1.969-5.706-3.822-8.543-5.714
			c-1.401-0.944-2.835-1.909-4.273-2.841c-1.48-0.886-2.975-1.791-4.437-2.675c-23.577-14.384-49.773-25.813-77.09-33.548
			c-3.418-0.919-6.836-1.839-10.29-2.762c-3.444-0.838-6.962-1.518-10.397-2.288l-5.207-1.137l-5.258-0.858l-5.254-0.89
			c-1.747-0.28-3.467-0.64-5.245-0.806c-3.511-0.41-7.02-0.837-10.55-1.25c-0.86-0.096-1.787-0.25-2.598-0.291l-2.361-0.148
			l-4.722-0.295l-4.684-0.308c-0.414-0.03-0.7-0.062-1.242-0.089l-4.822-0.206l-6.445-0.304l-4.823-0.206l-0.811-0.041l-0.289-0.016
			c-0.002,0.017-1.666-0.187,1.124,0.176l-10.5,0.246c-1.73,0.057-3.467,0.013-5.209,0.169l-5.177,0.374l-5.176,0.357l-2.579,0.18
			c-0.86,0.054-1.71,0.194-2.555,0.283c-3.403,0.405-6.803,0.795-10.191,1.219c-1.703,0.144-3.376,0.492-5.04,0.758l-4.996,0.864
			l-4.99,0.797l-4.912,1.074c-3.276,0.738-6.539,1.344-9.734,2.158c-3.18,0.849-6.378,1.697-9.543,2.564
			c-25.215,7.188-48.319,17.544-68.398,30.081l-3.778,2.29l-3.619,2.492c-2.398,1.64-4.858,3.19-7.155,4.892
			c-0.097,0.056-0.18,0.147-0.276,0.203c-4.485,3.416-8.998,6.595-13.084,10.19c-1.077,0.867-2.139,1.753-3.182,2.641l-1.598,1.295
			l-1.5,1.406c-2.001,1.819-3.986,3.657-5.967,5.461c-0.486,0.448-1.006,0.875-1.494,1.34l-1.375,1.42
			c-0.941,0.95-1.864,1.901-2.784,2.82c-1.811,1.907-3.746,3.633-5.403,5.625c-13.828,15.198-24.805,30.714-32.776,45.798
			c-8.021,15.045-13.387,29.399-16.983,42.21c-0.417,1.611-0.83,3.189-1.241,4.751c-0.373,1.549-0.886,3.049-1.13,4.58
			c-0.614,3.046-1.211,5.943-1.794,8.709c-0.498,2.825-0.804,5.554-1.217,8.104c-0.198,1.284-0.429,2.531-0.582,3.737
			c-0.086,1.246-0.185,2.458-0.297,3.618c-0.227,2.336-0.436,4.54-0.631,6.595c-0.083,0.577-0.008,0.887-0.017,1.288
			c0.011,0.386,0.022,0.773,0.035,1.143c-0.01,0.736,0.109,0.649,0.106,1.318c-0.01,0.568,0.032,0.841,0.087,0.847l117.989,13.23
			l-79.918,65.316l-185.529,149.524l-211.293-268.295l125.337,14.053c0.179,0.02,0.599-1.942,0.97-3.475
			c0.86-3.303,1.748-6.52,2.768-10.442c0.546-1.949,1.039-3.769,1.62-5.865c0.295-1.022,0.568-1.996,0.87-3.068
			c0.282-1.057,0.573-2.197,0.911-3.113c1.328-3.904,2.714-8.019,4.187-12.41c0.77-2.175,1.528-4.401,2.329-6.689
			c0.837-2.284,1.785-4.59,2.741-6.961c1.909-4.727,3.811-9.705,6.051-14.797c2.344-5.046,4.783-10.283,7.299-15.729
			c1.234-2.742,2.747-5.403,4.184-8.173c1.448-2.719,2.941-5.515,4.458-8.36c12.375-22.478,28.534-46.659,49.189-70.47
			c20.585-23.835,45.999-47.029,75.414-67.881c3.587-2.696,7.485-5.09,11.273-7.629c1.918-1.242,3.819-2.503,5.74-3.761l2.915-1.884
			l2.958-1.778c3.984-2.35,8.008-4.73,12.013-7.111l3.03-1.771l3.125-1.659c2.104-1.121,4.189-2.227,6.29-3.331
			c8.26-4.551,17.033-8.508,25.77-12.619c4.396-1.986,8.918-3.79,13.431-5.679c2.227-0.922,4.49-1.841,6.757-2.793
			c2.308-0.846,4.618-1.693,6.926-2.539c36.856-13.721,76.891-22.781,117.794-26.301c5.103-0.349,10.243-0.711,15.363-1.058
			c5.115-0.297,10.29-0.32,15.424-0.465l7.71-0.14l7.731,0.163l7.711,0.178c2.57,0.07,5.126,0.089,7.699,0.294
			c5.114,0.356,10.285,0.366,15.418,0.724c1.26,0.091,2.601-0.211,3.873-0.068l3.836,0.43l7.573,1.251l7.591,1.086
			c2.545,0.285,5.055,0.885,7.569,1.284l15.051,2.542c3.436,0.436,1.173,0.215,2.05,0.33l0.388,0.094l0.797,0.173l1.555,0.375
			l3.149,0.721l6.263,1.439l3.15,0.722l1.557,0.359l1.926,0.467l7.908,1.992l7.902,2.025l3.914,1.025
			c1.286,0.345,2.421,0.74,3.65,1.113c4.785,1.508,9.569,3.032,14.356,4.524c2.387,0.72,4.717,1.634,7.054,2.482l7.025,2.58
			l6.971,2.574l6.847,2.861c4.539,1.932,9.104,3.784,13.539,5.822c4.429,2.104,8.821,4.205,13.213,6.305
			c34.769,17.364,65.865,38.821,91.993,62.669c1.649,1.474,3.279,2.964,4.91,4.436c1.591,1.518,3.143,3.049,4.693,4.596
			c3.106,3.061,6.239,6.025,9.211,9.139c5.842,6.333,11.691,12.432,16.935,18.915c1.346,1.591,2.655,3.195,4.002,4.77l1.967,2.364
			l1.868,2.437c2.484,3.26,4.933,6.499,7.351,9.701l1.816,2.414l1.719,2.471c1.104,1.648,2.245,3.283,3.351,4.914
			c2.209,3.279,4.562,6.423,6.508,9.774c11.179,17.65,20.344,35.291,27.636,52.488c3.564,8.355,6.648,16.622,9.277,24.738
			c8.163,24.798,12.583,48.021,14.714,68.508c0.202,2.568,0.446,5.091,0.657,7.577c0.195,2.467,0.485,4.895,0.525,7.294
			c0.152,4.79,0.328,9.382,0.467,13.802c0.049,4.427-0.136,8.66-0.188,12.691c-0.062,2.003-0.063,3.963-0.153,5.895
			c-0.14,1.894,0.083,3.794-0.032,5.624C2155.701,1081.833,2155.941,1085.36,2155.583,1088.552z"/>
		<g>
			<g>
				<path style="fill:#7D97F4;" d="M3228.556,3221.79l-689.433-1329.722c-3.871-7.464-0.946-16.687,6.52-20.56
					c7.468-3.869,16.691-0.942,20.56,6.522l689.433,1329.722c3.871,7.464,0.946,16.687-6.521,20.56
					c-2.166,1.123-4.589,1.715-7.008,1.715C3236.383,3230.027,3231.19,3226.872,3228.556,3221.79z"/>
				<path style="fill:#7D97F4;" d="M2901.037,3231.95l-589.284-1353.981c-3.357-7.712,0.186-16.718,7.9-20.075
					c7.71-3.353,16.715,0.194,20.07,7.898l589.284,1353.984c1.627,3.737,1.7,7.882,0.208,11.674
					c-1.491,3.791-4.37,6.774-8.105,8.399c-1.936,0.844-3.982,1.272-6.081,1.272
					C2908.954,3241.12,2903.461,3237.521,2901.037,3231.95z"/>
				<path style="fill:#7D97F4;" d="M2437.085,2135.709h239.024c5.265,0,9.533-4.267,9.533-9.532s-4.268-9.533-9.533-9.533h-239.024
					c-5.265,0-9.533,4.268-9.533,9.533S2431.82,2135.709,2437.085,2135.709z"/>
				<path style="fill:#7D97F4;" d="M2500.955,2283.783h239.025c5.265,0,9.533-4.268,9.533-9.533s-4.268-9.533-9.533-9.533h-239.025
					c-5.264,0-9.532,4.268-9.532,9.533S2495.691,2283.783,2500.955,2283.783z"/>
				<path style="fill:#7D97F4;" d="M2585.194,2461.09h254.241c5.264,0,9.532-4.268,9.532-9.533c0-5.265-4.268-9.533-9.532-9.533
					h-254.241c-5.264,0-9.532,4.267-9.532,9.533C2575.662,2456.822,2579.93,2461.09,2585.194,2461.09z"/>
				<path style="fill:#7D97F4;" d="M2373.57,1992.081h228.044c5.264,0,9.532-4.267,9.532-9.532c0-5.265-4.268-9.533-9.532-9.533
					H2373.57c-5.264,0-9.532,4.268-9.532,9.533C2364.037,1987.814,2368.305,1992.081,2373.57,1992.081z"/>
				<path style="fill:#7D97F4;" d="M2669.081,2665.088h276.25c5.264,0,9.532-4.268,9.532-9.533c0-5.265-4.268-9.533-9.532-9.533
					h-276.25c-5.264,0-9.533,4.268-9.533,9.533C2659.548,2660.82,2663.817,2665.088,2669.081,2665.088z"/>
				<path style="fill:#7D97F4;" d="M2733.988,2823.329h296.305c5.264,0,9.533-4.267,9.533-9.532c0-5.266-4.269-9.533-9.533-9.533
					h-296.305c-5.264,0-9.533,4.267-9.533,9.533C2724.455,2819.062,2728.723,2823.329,2733.988,2823.329z"/>
			</g>
			<g>
				
					<linearGradient id="SVGID_00000124861769076081991270000002437866792400054154_" gradientUnits="userSpaceOnUse" x1="-70.7257" y1="2551.3677" x2="-85.9778" y2="2663.8521" gradientTransform="matrix(-1 0 0 1 2786.751 0)">
					<stop  offset="0" style="stop-color:#09005D"/>
					<stop  offset="1" style="stop-color:#1A0F91"/>
				</linearGradient>
				<path style="fill:url(#SVGID_00000124861769076081991270000002437866792400054154_);" d="M2792.259,2630.945
					c30.511-26.562,96.073-47.838,96.073-47.838l39.446,0.862c10.011,11.262,14.537,33.088,16.47,46.77
					c-7.427,4.451-21.346,8.348-46.867,9.564C2850.125,2642.554,2811.988,2635.646,2792.259,2630.945z"/>
				
					<linearGradient id="SVGID_00000105410497821670818350000007117153974801757579_" gradientUnits="userSpaceOnUse" x1="-76.4774" y1="2636.2632" x2="-111.7479" y2="2860.2781" gradientTransform="matrix(-1 0 0 1 2786.751 0)">
					<stop  offset="0" style="stop-color:#09005D"/>
					<stop  offset="1" style="stop-color:#1A0F91"/>
				</linearGradient>
				<path style="fill:url(#SVGID_00000105410497821670818350000007117153974801757579_);" d="M2792.259,2630.945
					c19.729,4.701,57.866,11.609,105.121,9.357c25.521-1.216,39.44-5.113,46.867-9.564c0.156,1.099,0.3,2.162,0.422,3.146
					c0.703,5.611-2.769,10.885-8.175,12.542c-36.033,11.045-115.285,7.492-146.183,5.578c-6.608-0.409-10.058-8.161-5.824-13.251
					C2786.686,2636.11,2789.319,2633.504,2792.259,2630.945z"/>
			</g>
			
				<linearGradient id="SVGID_00000120530671524488728910000002395705542267242134_" gradientUnits="userSpaceOnUse" x1="-137.8046" y1="2572.5413" x2="-92.5162" y2="2572.5413" gradientTransform="matrix(-1 0 0 1 2786.751 0)">
				<stop  offset="0" style="stop-color:#A22B25"/>
				<stop  offset="1" style="stop-color:#C0423C"/>
			</linearGradient>
			<path style="fill:url(#SVGID_00000120530671524488728910000002395705542267242134_);" d="M2924.556,2549.914v31.366
				c0,6.041-4.209,11.245-10.114,12.521c-6.112,1.322-14.222,2.168-22.093,0.217c-4.922-1.221-8.526-5.452-9.119-10.487
				l-3.963-33.617H2924.556z"/>
			<g>
				
					<linearGradient id="SVGID_00000067200589466882068210000017558281812500601277_" gradientUnits="userSpaceOnUse" x1="56.2116" y1="2413.3037" x2="-48.4659" y2="2500.8523" gradientTransform="matrix(-1 0 0 1 2786.751 0)">
					<stop  offset="0" style="stop-color:#09005D"/>
					<stop  offset="1" style="stop-color:#1A0F91"/>
				</linearGradient>
				<path style="fill:url(#SVGID_00000067200589466882068210000017558281812500601277_);" d="M2725.093,2389.196
					c12.236-27.239,8.736-39.489,32.96-36.779c2.913,0.326,5.331,0.89,7.374,1.617c1.527,4.499,1.626,9.47-0.014,14.19
					c-6.124,17.624-18.925,47.732-42.412,77.376c-4.936,6.229-12.484,9.842-20.431,9.974l-26.711,0.445
					C2701.188,2435.773,2714.94,2411.798,2725.093,2389.196z"/>
				
					<linearGradient id="SVGID_00000113331251740499272060000002142866455795716020_" gradientUnits="userSpaceOnUse" x1="21.3243" y1="2391.2466" x2="139.3033" y2="2391.2466" gradientTransform="matrix(-1 0 0 1 2786.751 0)">
					<stop  offset="0" style="stop-color:#09005D"/>
					<stop  offset="1" style="stop-color:#1A0F91"/>
				</linearGradient>
				<path style="fill:url(#SVGID_00000113331251740499272060000002142866455795716020_);" d="M2674.166,2415.63
					c20.5-14.433,28.153-73.381,28.153-73.381l31.596-16.083l23.824,17.265c3.685,2.735,6.285,6.471,7.688,10.602
					c-2.043-0.727-4.461-1.29-7.374-1.617c-24.225-2.71-20.724,9.539-32.96,36.779c-10.153,22.602-23.904,46.578-49.234,66.823
					l-18.358,0.306c-8.248,0.137-13.011-9.283-8.011-15.844C2655.762,2432.249,2664.343,2422.545,2674.166,2415.63z"/>
			</g>
			
				<linearGradient id="SVGID_00000023268853262331386750000014210595966360531106_" gradientUnits="userSpaceOnUse" x1="51.458" y1="2320.5547" x2="115.0781" y2="2320.5547" gradientTransform="matrix(-1 0 0 1 2786.751 0)">
				<stop  offset="0" style="stop-color:#A22B25"/>
				<stop  offset="1" style="stop-color:#C0423C"/>
			</linearGradient>
			<path style="fill:url(#SVGID_00000023268853262331386750000014210595966360531106_);" d="M2714.838,2296.493l19.076,29.674
				c2.41,3.75,1.592,8.712-1.913,11.467c-6.113,4.807-16.706,10.184-29.682,4.615l-30.646-21.001L2714.838,2296.493z"/>
			
				<linearGradient id="SVGID_00000102529724227073977680000006321068924977688743_" gradientUnits="userSpaceOnUse" x1="188.6776" y1="2031.0549" x2="-275.5607" y2="2442.8643" gradientTransform="matrix(-1 0 0 1 2786.751 0)">
				<stop  offset="0" style="stop-color:#09005D"/>
				<stop  offset="1" style="stop-color:#1A0F91"/>
			</linearGradient>
			<path style="fill:url(#SVGID_00000102529724227073977680000006321068924977688743_);" d="M2858.023,1983.302
				c0,0,10.032,28.275,24.589,127.622c14.556,99.347,24.129,171.589,32.065,210.989c7.256,36.027,18.698,165.782,18.025,222.529
				c-0.09,7.625-6.386,13.696-14.009,13.458l-37.541-1.173c-5.797-0.181-10.66-4.398-11.632-10.116
				c-9.933-58.421-78.605-359.883-120.009-446.602c0,0-110.162,31.139-137.627,43.668c0,0,35.508,14.215,108.277,150.636
				c0,0-31.426,24.969-53.683,30.172c0,0-159.24-132.078-176.065-145.895c-16.825-13.817-32.146-37.634,10.785-81.015
				c42.931-43.38,174.686-111.794,174.686-111.794L2858.023,1983.302z"/>
			
				<linearGradient id="SVGID_00000057109408830913607240000015264184546184041403_" gradientUnits="userSpaceOnUse" x1="2964.9683" y1="1642.3394" x2="2772.7222" y2="2116.209">
				<stop  offset="0" style="stop-color:#4F52FF"/>
				<stop  offset="1" style="stop-color:#4042E2"/>
			</linearGradient>
			<path style="fill:url(#SVGID_00000057109408830913607240000015264184546184041403_);" d="M2755.601,2103.094
				c0.276,0,0.555-0.059,0.819-0.186l39.287-15.141c16.886-8.051,27.859-25.34,27.954-44.047c0.005-1.052-0.844-1.91-1.897-1.916
				c-1.229,0.009-1.91,0.843-1.916,1.898c-0.088,17.253-10.208,33.2-25.782,40.625l-39.288,15.14
				c-0.949,0.453-1.353,1.591-0.9,2.542C2754.206,2102.693,2754.89,2103.094,2755.601,2103.094z"/>
			
				<linearGradient id="SVGID_00000049931644871635724340000002108096759014545074_" gradientUnits="userSpaceOnUse" x1="284.9642" y1="1977.37" x2="377.8927" y2="1977.37" gradientTransform="matrix(-1 0 0 1 2786.751 0)">
				<stop  offset="0" style="stop-color:#A22B25"/>
				<stop  offset="1" style="stop-color:#C0423C"/>
			</linearGradient>
			<path style="fill:url(#SVGID_00000049931644871635724340000002108096759014545074_);" d="M2501.787,1974.926
				c0,0-41.377-31.322-60.208-25.437c-18.831,5.885-32.72,23.526-32.72,23.526h41.608c0,0,9.92,19.065-0.002,19.065h-14.689
				C2435.775,1992.081,2474.616,2032.78,2501.787,1974.926z"/>
			
				<linearGradient id="SVGID_00000099648076035029495510000010294094215356307335_" gradientUnits="userSpaceOnUse" x1="2332.2937" y1="823.5721" x2="2575.1313" y2="1997.2833">
				<stop  offset="0" style="stop-color:#4F52FF"/>
				<stop  offset="1" style="stop-color:#4042E2"/>
			</linearGradient>
			<path style="fill:url(#SVGID_00000099648076035029495510000010294094215356307335_);" d="M2571.849,1679.564
				c0,0-48.558,191.994-114.325,269.189c0,0,17.809,20.304,44.263,26.173c0,0,100.959-88.485,131.706-149.98
				C2664.24,1763.451,2571.849,1679.564,2571.849,1679.564z"/>
			
				<linearGradient id="SVGID_00000056408810833571375330000001981206163588935341_" gradientUnits="userSpaceOnUse" x1="2613.0688" y1="1441.9042" x2="2660.6311" y2="1695.569">
				<stop  offset="0" style="stop-color:#A22B25"/>
				<stop  offset="1" style="stop-color:#C0423C"/>
			</linearGradient>
			<path style="fill:url(#SVGID_00000056408810833571375330000001981206163588935341_);" d="M2636.743,1496.802l48.236,88.24
				h-76.119c0,0-6.119-40.339-26.14-64.616L2636.743,1496.802z"/>
			<g>
				
					<linearGradient id="SVGID_00000144297498230168047110000017434062336409685405_" gradientUnits="userSpaceOnUse" x1="1514.2101" y1="-3503.1936" x2="1468.9131" y2="-3333.3296" gradientTransform="matrix(-1 0 0 1 2786.751 0)">
					<stop  offset="0" style="stop-color:#A22B25"/>
					<stop  offset="1" style="stop-color:#C0423C"/>
				</linearGradient>
				<path style="fill:url(#SVGID_00000144297498230168047110000017434062336409685405_);" d="M2563.639,1391.73
					c0,0-24.168,55.518-25.792,84.657c-1.623,29.139-7.902,48.047,25.792,53.915c33.693,5.868,62.076-10.917,77.453-39.943
					c0,0,24.092-44.726,18.688-63.043C2654.375,1409,2563.639,1391.73,2563.639,1391.73z"/>
				
					<linearGradient id="SVGID_00000129169734722668206560000014990989680899910055_" gradientUnits="userSpaceOnUse" x1="131.1152" y1="1357.1479" x2="256.2213" y2="1518.2219" gradientTransform="matrix(-1 0 0 1 2786.751 0)">
					<stop  offset="0" style="stop-color:#09005D"/>
					<stop  offset="1" style="stop-color:#1A0F91"/>
				</linearGradient>
				<path style="fill:url(#SVGID_00000129169734722668206560000014990989680899910055_);" d="M2629.579,1469.49h-4.259
					c0,0,17.55-35.998,2.13-42.322c-15.421-6.324-76.503-18.781-89.681-40.454c-12.705-20.895-1.375-47.885,15.578-55.437
					c1.073-0.478,2.337,0.026,2.886,1.065l1.404,2.657c0.962,1.82,3.649,1.544,4.222-0.433l0,0c0.543-1.875,3.07-2.285,4.102-0.627
					c4.034,6.481,14.958,17.021,44.256,22.428c41.573,7.673,69.056,24.498,69.731,53.229c0.043,1.82,1.989,2.823,3.543,1.876
					c3.069-1.87,7.98-2.748,14.544,2.771c11.415,9.598,6.744,34.497-18.28,54.978c-1.188,0.973-1.179,2.83,0.109,3.668
					c4.537,2.954,11.298,9.98-6.225,19.347c-17.925,9.582-28.533,8.537-32.536,7.512c-1.078-0.276-1.802-1.257-1.733-2.367
					l1.573-25.461c0.081-1.317-0.965-2.429-2.284-2.429H2629.579z"/>
				
					<linearGradient id="SVGID_00000122706966293392446770000007117641031844264619_" gradientUnits="userSpaceOnUse" x1="1471.238" y1="-3514.6536" x2="1425.9408" y2="-3344.7891" gradientTransform="matrix(-1 0 0 1 2786.751 0)">
					<stop  offset="0" style="stop-color:#A22B25"/>
					<stop  offset="1" style="stop-color:#C0423C"/>
				</linearGradient>
				<path style="fill:url(#SVGID_00000122706966293392446770000007117641031844264619_);" d="M2628.532,1474.818
					c0,0,9.22-35.464,25.12-25.521c15.9,9.943-8.251,39.736-21.034,41.063L2628.532,1474.818z"/>
			</g>
			
				<linearGradient id="SVGID_00000167362648357020424820000011706410988876221088_" gradientUnits="userSpaceOnUse" x1="2241.4797" y1="1401.4148" x2="3223.0417" y2="2241.3076">
				<stop  offset="0" style="stop-color:#4F52FF"/>
				<stop  offset="1" style="stop-color:#4042E2"/>
			</linearGradient>
			<path style="fill:url(#SVGID_00000167362648357020424820000011706410988876221088_);" d="M2695.681,1578.134
				c0,0-21.515-35.354-162.178-26.691c-73.123,4.504-237.588-59.217-274.203-91.279c0,0-23.877-0.15-45.877,22.879
				c0,0,151.903,160.304,329.005,180.796c0,0,134.404,276.99,133.457,321.943c0,0,79.774,53.535,188.017,15.218
				c0,0,3.314-76.992-38.927-183.345C2770.127,1679.564,2695.681,1578.134,2695.681,1578.134z"/>
			
				<linearGradient id="SVGID_00000000201830839971812540000012764352938228413877_" gradientUnits="userSpaceOnUse" x1="2582.7866" y1="1370.3282" x2="2597.9641" y2="1835.7666">
				<stop  offset="0" style="stop-color:#4F52FF"/>
				<stop  offset="1" style="stop-color:#4042E2"/>
			</linearGradient>
			<path style="fill:url(#SVGID_00000000201830839971812540000012764352938228413877_);" d="M2631.906,1673.69
				c0.983,0,1.817-0.756,1.898-1.752c0.085-1.05-0.696-1.97-1.745-2.056c-0.681-0.054-68.205-5.546-78.734-6.734
				c-1.038-0.108-1.991,0.635-2.108,1.681c-0.119,1.047,0.634,1.99,1.68,2.109c10.589,1.193,78.172,6.69,78.854,6.746
				C2631.802,1673.688,2631.855,1673.69,2631.906,1673.69z"/>
			<g>
				
					<linearGradient id="SVGID_00000074424387222516860750000004722793745943241399_" gradientUnits="userSpaceOnUse" x1="-1747.7834" y1="1176.2681" x2="-1571.462" y2="1577.439" gradientTransform="matrix(0.9993 -0.0365 0.0365 0.9993 3978.5898 329.8132)">
					<stop  offset="0" style="stop-color:#A22B25"/>
					<stop  offset="1" style="stop-color:#C0423C"/>
				</linearGradient>
				<path style="fill:url(#SVGID_00000074424387222516860750000004722793745943241399_);" d="M2216.205,1475.261
					c-1.234,4.487,15.173,10.653,24.026-7.839c0.015-8.708,3.945-46.156-1.51-53.051c-29.052-36.721-84.434-82.061-84.434-82.061
					c-8.742,9.279-0.95,17.796-0.95,17.796l27.018,26.166c-5.085,10.037-11.423,18.584-14.101,30.598
					c-2.029,9.098-0.236,18.677,4.616,26.713c4.869,8.065,11.493,18.538,17.692,26.697
					C2200.295,1475.722,2216.205,1475.261,2216.205,1475.261z"/>
			</g>
		</g>
	</g>
</g>
</svg>
