<?xml version="1.0" encoding="utf-8"?>
<!-- Generator: Adobe Illustrator 27.5.0, SVG Export Plug-In . SVG Version: 6.00 Build 0)  -->
<svg version="1.1" id="_x2018_ëîé_x5F_1" xmlns="http://www.w3.org/2000/svg" xmlns:xlink="http://www.w3.org/1999/xlink"
	 x="0px" y="0px" viewBox="0 0 3000 2000" style="enable-background:new 0 0 3000 2000;" xml:space="preserve">
<rect style="fill:#FFFFFF;" width="3000" height="2000"/>
<g>
	<path style="fill:#EBF3FA;" d="M420.46,1814.484c0,0-328.339-441.897-167.873-896.828
		c104.595-296.533,496.949-459.018,718.375-296.533c94.309,69.205,358.227-22.926,558.424-284.181
		c332.007-433.266,1370.888,48.127,1050.457,914.5c-146.408,395.856,103.979,345.166,41.197,569.813L420.46,1814.484z"/>
	<g>
		<g>
			<rect x="1936.054" y="608.16" style="fill:#CCDDFC;" width="45.022" height="1208.867"/>
			<rect x="1660.876" y="641.063" style="fill:#CCDDFC;" width="589.168" height="29.718"/>
			<g>
				<rect x="1683.091" y="575.257" style="fill:#CCDDFC;" width="9.712" height="65.806"/>
				<g>
					<g>
						<path style="fill:#CCDDFC;" d="M1661.679,588.685c0-3.331,11.92-6.031,26.623-6.031s26.623,2.7,26.623,6.031
							c0,3.331-11.92,6.031-26.623,6.031S1661.679,592.016,1661.679,588.685z"/>
						<path style="fill:#CCDDFC;" d="M1661.679,576.624c0-3.331,11.92-6.031,26.623-6.031s26.623,2.7,26.623,6.031
							c0,3.331-11.92,6.03-26.623,6.03S1661.679,579.955,1661.679,576.624z"/>
						<ellipse style="fill:#CCDDFC;" cx="1688.302" cy="564.563" rx="26.623" ry="6.031"/>
						<path style="fill:#CCDDFC;" d="M1661.679,552.501c0-3.331,11.92-6.031,26.623-6.031s26.623,2.7,26.623,6.031
							c0,3.331-11.92,6.031-26.623,6.031S1661.679,555.831,1661.679,552.501z"/>
					</g>
					<rect x="1671.796" y="549.784" style="fill:#CCDDFC;" width="32.302" height="41.04"/>
				</g>
			</g>
			<g>
				<rect x="1950.249" y="575.257" style="fill:#CCDDFC;" width="9.712" height="65.806"/>
				<g>
					<g>
						<path style="fill:#CCDDFC;" d="M1928.837,588.685c0-3.331,11.92-6.031,26.623-6.031s26.623,2.7,26.623,6.031
							c0,3.331-11.92,6.031-26.623,6.031S1928.837,592.016,1928.837,588.685z"/>
						<path style="fill:#CCDDFC;" d="M1928.837,576.624c0-3.331,11.92-6.031,26.623-6.031s26.623,2.7,26.623,6.031
							c0,3.331-11.92,6.03-26.623,6.03S1928.837,579.955,1928.837,576.624z"/>
						<ellipse style="fill:#CCDDFC;" cx="1955.46" cy="564.563" rx="26.623" ry="6.031"/>
						<path style="fill:#CCDDFC;" d="M1928.837,552.501c0-3.331,11.92-6.031,26.623-6.031s26.623,2.7,26.623,6.031
							c0,3.331-11.92,6.031-26.623,6.031S1928.837,555.831,1928.837,552.501z"/>
					</g>
					<rect x="1938.954" y="549.784" style="fill:#CCDDFC;" width="32.302" height="41.04"/>
				</g>
			</g>
			<g>
				<rect x="2218.211" y="575.257" style="fill:#CCDDFC;" width="9.711" height="65.806"/>
				<g>
					<g>
						<path style="fill:#CCDDFC;" d="M2196.799,588.685c0-3.331,11.919-6.031,26.622-6.031s26.623,2.7,26.623,6.031
							c0,3.331-11.92,6.031-26.623,6.031S2196.799,592.016,2196.799,588.685z"/>
						<path style="fill:#CCDDFC;" d="M2196.799,576.624c0-3.331,11.919-6.031,26.622-6.031s26.623,2.7,26.623,6.031
							c0,3.331-11.92,6.03-26.623,6.03S2196.799,579.955,2196.799,576.624z"/>
						<path style="fill:#CCDDFC;" d="M2196.799,564.563c0-3.331,11.919-6.031,26.622-6.031s26.623,2.7,26.623,6.031
							c0,3.331-11.92,6.031-26.623,6.031S2196.799,567.893,2196.799,564.563z"/>
						<path style="fill:#CCDDFC;" d="M2196.799,552.501c0-3.331,11.919-6.031,26.622-6.031s26.623,2.7,26.623,6.031
							c0,3.331-11.92,6.031-26.623,6.031S2196.799,555.831,2196.799,552.501z"/>
					</g>
					<rect x="2206.915" y="549.784" style="fill:#CCDDFC;" width="32.302" height="41.04"/>
				</g>
			</g>
			<g>
				<polygon style="fill:#CCDDFC;" points="1958.591,803.452 1791.678,664.085 1797.832,656.763 1958.539,790.947 2121.843,652.287 
					2128.059,659.558 				"/>
			</g>
		</g>
	</g>
	<g>
		<g>
			<path style="fill:#C0D8FB;" d="M518.055,1555.649h-54.463c-0.29,0-0.524-0.234-0.524-0.524v-280.774
				c0-0.289,0.235-0.524,0.524-0.524h54.463c0.29,0,0.524,0.235,0.524,0.524v280.774
				C518.58,1555.415,518.345,1555.649,518.055,1555.649z M464.116,1554.601h53.416v-279.726h-53.416V1554.601z"/>
		</g>
		<g>
			<path style="fill:#C0D8FB;" d="M542.519,1742.832h-103.74c-0.151,0-0.295-0.064-0.394-0.179c-0.1-0.113-0.146-0.265-0.125-0.415
				l24.813-187.183c0.034-0.261,0.256-0.455,0.52-0.455h54.463c0.263,0,0.486,0.195,0.52,0.456l24.464,187.184
				c0.02,0.149-0.026,0.3-0.125,0.414C542.814,1742.768,542.67,1742.832,542.519,1742.832z M439.378,1741.783h102.544
				l-24.327-186.134h-53.544L439.378,1741.783z"/>
		</g>
		<g>
			<path style="fill:#C0D8FB;" d="M448.786,1817.137h-19.881c-0.151,0-0.294-0.065-0.394-0.179c-0.1-0.114-0.145-0.265-0.125-0.415
				l9.875-74.305c0.035-0.26,0.257-0.455,0.52-0.455h41.126c0.175,0,0.339,0.088,0.437,0.234c0.097,0.146,0.115,0.331,0.047,0.493
				l-31.119,74.305C449.188,1817.01,448.997,1817.137,448.786,1817.137z M429.503,1816.088h18.934l30.68-73.256h-39.879
				L429.503,1816.088z"/>
		</g>
		<g>
			<path style="fill:#C0D8FB;" d="M552.229,1817.137h-19.881c-0.211,0-0.402-0.127-0.484-0.321l-31.119-74.305
				c-0.067-0.162-0.05-0.348,0.047-0.493c0.097-0.146,0.261-0.234,0.437-0.234h41.126c0.263,0,0.485,0.195,0.519,0.455l9.875,74.305
				c0.02,0.15-0.025,0.301-0.125,0.415C552.523,1817.071,552.379,1817.137,552.229,1817.137z M532.696,1816.088h18.934
				l-9.735-73.256h-39.879L532.696,1816.088z"/>
		</g>
		<g>
			<path style="fill:#C0D8FB;" d="M647.557,1555.649H341.523c-0.253,0-0.47-0.181-0.516-0.429c-0.046-0.249,0.092-0.494,0.328-0.585
				l122.069-46.796c0.06-0.023,0.124-0.035,0.188-0.035h54.463c0.061,0,0.121,0.011,0.178,0.031l129.501,46.796
				c0.24,0.087,0.382,0.333,0.338,0.584C648.029,1555.467,647.811,1555.649,647.557,1555.649z M344.354,1554.601h300.209
				l-126.6-45.747h-54.274L344.354,1554.601z"/>
		</g>
		<g>
			<path style="fill:#C0D8FB;" d="M629.402,1415.262H359.677c-0.247,0-0.461-0.172-0.512-0.414
				c-0.052-0.241,0.072-0.486,0.297-0.588l103.915-46.796c0.068-0.03,0.141-0.046,0.215-0.046h54.463
				c0.07,0,0.139,0.014,0.203,0.041l111.347,46.796c0.23,0.097,0.36,0.342,0.311,0.587
				C629.866,1415.086,629.652,1415.262,629.402,1415.262z M362.118,1414.214h264.684l-108.852-45.748h-54.246L362.118,1414.214z"/>
		</g>
		<g>
			<path style="fill:#C0D8FB;" d="M600.873,1274.875H388.206c-0.251,0-0.467-0.179-0.514-0.425
				c-0.048-0.247,0.086-0.492,0.319-0.586l84.828-34.063c0.063-0.025,0.128-0.038,0.196-0.038h37.847
				c0.063,0,0.127,0.012,0.186,0.034l89.992,34.063c0.237,0.09,0.376,0.336,0.33,0.585
				C601.343,1274.693,601.126,1274.875,600.873,1274.875z M390.917,1273.826h207.09l-87.223-33.014h-37.65L390.917,1273.826z"/>
		</g>
		<g>
			<path style="fill:#C0D8FB;" d="M510.881,1240.813h-37.847c-0.164,0-0.317-0.076-0.417-0.206c-0.099-0.13-0.132-0.299-0.089-0.457
				l17.79-65.147c0.061-0.225,0.264-0.382,0.497-0.386c0.253,0.003,0.44,0.147,0.509,0.37l20.058,65.147
				c0.048,0.159,0.02,0.332-0.08,0.466C511.204,1240.733,511.047,1240.813,510.881,1240.813z M473.72,1239.764h36.451
				l-19.317-62.743L473.72,1239.764z"/>
		</g>
		<g>
			<path style="fill:#C0D8FB;" d="M518.055,1321.671h-54.463c-0.219,0-0.415-0.137-0.492-0.343c-0.076-0.205-0.016-0.437,0.15-0.579
				l26.769-23.001l-26.769-23c-0.166-0.143-0.227-0.374-0.15-0.58c0.077-0.205,0.272-0.342,0.492-0.342h54.463
				c0.219,0,0.415,0.137,0.492,0.342c0.076,0.206,0.016,0.438-0.15,0.58l-26.769,23l26.769,23.001
				c0.167,0.143,0.227,0.374,0.15,0.579C518.47,1321.534,518.274,1321.671,518.055,1321.671z M465.006,1320.622h51.635
				l-25.817-22.183L465.006,1320.622z M465.006,1274.875l25.818,22.183l25.817-22.183H465.006z"/>
		</g>
		<g>
			<path style="fill:#C0D8FB;" d="M518.055,1368.466h-54.463c-0.219,0-0.415-0.136-0.492-0.342c-0.076-0.206-0.016-0.437,0.15-0.579
				l26.769-23.001l-26.769-23c-0.166-0.143-0.227-0.374-0.15-0.58c0.077-0.205,0.272-0.342,0.492-0.342h54.463
				c0.219,0,0.415,0.137,0.492,0.342c0.076,0.206,0.016,0.438-0.15,0.58l-26.769,23l26.769,23.001
				c0.167,0.143,0.227,0.373,0.15,0.579C518.47,1368.33,518.274,1368.466,518.055,1368.466z M465.006,1367.418h51.635
				l-25.817-22.183L465.006,1367.418z M465.006,1321.671l25.818,22.183l25.817-22.183H465.006z"/>
		</g>
		<g>
			<path style="fill:#C0D8FB;" d="M518.055,1415.262h-54.463c-0.219,0-0.415-0.137-0.492-0.342c-0.076-0.206-0.016-0.437,0.15-0.58
				l26.769-23l-26.769-23c-0.166-0.144-0.227-0.374-0.15-0.58c0.077-0.205,0.272-0.342,0.492-0.342h54.463
				c0.219,0,0.415,0.137,0.492,0.342c0.076,0.206,0.016,0.437-0.15,0.58l-26.769,23l26.769,23c0.167,0.144,0.227,0.374,0.15,0.58
				C518.47,1415.125,518.274,1415.262,518.055,1415.262z M465.006,1414.214h51.635l-25.817-22.183L465.006,1414.214z
				 M465.006,1368.466l25.818,22.183l25.817-22.183H465.006z"/>
		</g>
		<g>
			<path style="fill:#C0D8FB;" d="M518.055,1462.058h-54.463c-0.219,0-0.415-0.137-0.492-0.342c-0.076-0.206-0.016-0.438,0.15-0.58
				l26.769-23l-26.769-23.001c-0.166-0.143-0.227-0.373-0.15-0.579c0.077-0.206,0.272-0.342,0.492-0.342h54.463
				c0.219,0,0.415,0.136,0.492,0.342c0.076,0.206,0.016,0.437-0.15,0.579l-26.769,23.001l26.769,23
				c0.167,0.143,0.227,0.374,0.15,0.58C518.47,1461.921,518.274,1462.058,518.055,1462.058z M465.006,1461.01h51.635l-25.817-22.184
				L465.006,1461.01z M465.006,1415.262l25.818,22.183l25.817-22.183H465.006z"/>
		</g>
		<g>
			<path style="fill:#C0D8FB;" d="M518.055,1508.854h-54.463c-0.219,0-0.415-0.137-0.492-0.342c-0.076-0.206-0.016-0.438,0.15-0.58
				l26.769-23l-26.769-23c-0.166-0.143-0.227-0.374-0.15-0.58c0.077-0.205,0.272-0.342,0.492-0.342h54.463
				c0.219,0,0.415,0.137,0.492,0.342c0.076,0.206,0.016,0.438-0.15,0.58l-26.769,23l26.769,23c0.167,0.143,0.227,0.374,0.15,0.58
				C518.47,1508.717,518.274,1508.854,518.055,1508.854z M465.006,1507.805h51.635l-25.817-22.182L465.006,1507.805z
				 M465.006,1462.058l25.818,22.183l25.817-22.183H465.006z"/>
		</g>
		<g>
			<path style="fill:#C0D8FB;" d="M524.309,1602.444h-67.06c-0.224,0-0.424-0.143-0.496-0.354c-0.073-0.213-0.001-0.447,0.176-0.585
				l33.015-25.407l-26.672-20.558c-0.178-0.137-0.249-0.371-0.176-0.584c0.072-0.212,0.272-0.355,0.496-0.355h54.463
				c0.224,0,0.424,0.144,0.496,0.355c0.073,0.213,0.001,0.447-0.176,0.585l-26.712,20.557l32.966,25.407
				c0.178,0.138,0.249,0.372,0.176,0.585C524.733,1602.302,524.533,1602.444,524.309,1602.444z M458.79,1601.396h63.981
				l-31.967-24.638L458.79,1601.396z M465.13,1555.649l25.673,19.786l25.711-19.786H465.13z"/>
		</g>
		<g>
			<path style="fill:#C0D8FB;" d="M530.414,1649.24h-79.507c-0.233,0-0.438-0.153-0.503-0.377c-0.065-0.224,0.025-0.464,0.222-0.589
				l39.126-24.943l-32.785-20.969c-0.196-0.126-0.286-0.365-0.221-0.589c0.065-0.224,0.271-0.377,0.503-0.377h67.06
				c0.233,0,0.438,0.153,0.503,0.377c0.065,0.224-0.025,0.464-0.221,0.589l-32.892,20.97l38.998,24.942
				c0.196,0.126,0.286,0.366,0.221,0.589C530.852,1649.087,530.646,1649.24,530.414,1649.24z M452.704,1648.192h75.918
				l-37.898-24.239L452.704,1648.192z M459.041,1602.444l31.684,20.265l31.787-20.265H459.041z"/>
		</g>
		<g>
			<path style="fill:#C0D8FB;" d="M536.816,1696.036h-92.253c-0.239,0-0.449-0.162-0.508-0.395c-0.059-0.232,0.047-0.476,0.257-0.59
				l45.265-24.674l-38.922-21.201c-0.211-0.114-0.316-0.357-0.257-0.59c0.059-0.231,0.268-0.395,0.508-0.395h79.507
				c0.24,0,0.449,0.162,0.508,0.395c0.06,0.232-0.046,0.476-0.257,0.59l-38.895,21.201l45.298,24.674
				c0.21,0.114,0.316,0.357,0.257,0.59C537.266,1695.873,537.056,1696.036,536.816,1696.036z M446.621,1694.987h88.138
				l-44.084-24.013L446.621,1694.987z M452.965,1649.24l37.709,20.541l37.683-20.541H452.965z"/>
		</g>
		<g>
			<path style="fill:#C0D8FB;" d="M542.779,1742.832h-104c-0.245,0-0.457-0.17-0.511-0.408c-0.054-0.238,0.064-0.483,0.286-0.589
				l50.961-24.325l-45.176-21.525c-0.221-0.104-0.34-0.35-0.286-0.588c0.054-0.239,0.266-0.409,0.511-0.409h92.253
				c0.245,0,0.457,0.17,0.512,0.409c0.054,0.238-0.065,0.482-0.286,0.588l-45.093,21.524l51.055,24.326
				c0.221,0.104,0.34,0.35,0.286,0.589C543.236,1742.662,543.024,1742.832,542.779,1742.832z M441.094,1741.783h99.366
				l-49.728-23.693L441.094,1741.783z M446.883,1696.036l43.849,20.893l43.771-20.893H446.883z"/>
		</g>
		<g>
			<path style="fill:#C0D8FB;" d="M428.211,1415.262c-0.13,0-0.255-0.048-0.353-0.137l-22.705-20.638l0.706-0.775l22.279,20.252
				l35.034-46.338l0.837,0.632l-35.38,46.796c-0.089,0.117-0.223,0.192-0.37,0.206
				C428.244,1415.261,428.227,1415.262,428.211,1415.262z"/>
		</g>
		<g>
			<path style="fill:#C0D8FB;" d="M561.231,1415.262c-0.141,0-0.282-0.057-0.385-0.169l-43.176-46.795l0.771-0.711l42.841,46.433
				l22.754-18.614l0.664,0.812l-23.136,18.927C561.466,1415.223,561.349,1415.262,561.231,1415.262z"/>
		</g>
		<g>
			
				<rect x="454.92" y="1531.203" transform="matrix(0.7587 -0.6514 0.6514 0.7587 -879.3878 689.3396)" style="fill:#C0D8FB;" width="71.806" height="1.048"/>
		</g>
		<g>
			<path style="fill:#C0D8FB;" d="M607.247,1555.964l-39.661-29.099l-49.267,28.713c-0.193,0.112-0.436,0.091-0.605-0.056
				l-54.463-46.796l0.683-0.795l54.181,46.553l49.241-28.698c0.18-0.104,0.406-0.093,0.574,0.03l39.938,29.302L607.247,1555.964z"/>
		</g>
		<g>
			<path style="fill:#C0D8FB;" d="M395.96,1555.875l-0.808-0.668l25.558-30.928c0.098-0.118,0.243-0.188,0.397-0.19
				c0.164-0.003,0.301,0.064,0.402,0.181l26.545,30.512l-0.791,0.688l-26.14-30.045L395.96,1555.875z"/>
		</g>
		<g>
			<path style="fill:#C0D8FB;" d="M463.592,1274.875c-0.083,0-0.165-0.02-0.241-0.059l-32.972-17.031l0.481-0.932l32.398,16.735
				l9.27-33.44c0.046-0.168,0.172-0.301,0.337-0.357c0.164-0.056,0.345-0.026,0.484,0.079l44.781,33.881l39.19-16.293l0.402,0.968
				l-39.467,16.409c-0.171,0.07-0.369,0.046-0.518-0.066l-44.406-33.597l-9.236,33.318c-0.042,0.152-0.151,0.277-0.295,0.341
				C463.734,1274.86,463.663,1274.875,463.592,1274.875z"/>
		</g>
		<g>
			<path style="fill:#C0D8FB;" d="M463.898,1274.776l-0.612-0.852l47.29-34.063c0.143-0.104,0.33-0.127,0.495-0.063
				c0.165,0.064,0.288,0.207,0.324,0.381l7.174,34.063l-1.026,0.217l-7.008-33.275L463.898,1274.776z"/>
		</g>
		<g>
			<path style="fill:#C0D8FB;" d="M510.489,1240.637l-18.902-21.267l-18.155,21.258l-0.797-0.681l18.249-21.368l-9.347-10.517
				c-0.137-0.154-0.171-0.375-0.086-0.563c0.085-0.188,0.272-0.31,0.478-0.31h18.923c0.204,0,0.391,0.118,0.476,0.305
				c0.085,0.186,0.055,0.404-0.077,0.56l-8.977,10.511l18.998,21.374L510.489,1240.637z M483.096,1208.238l8.476,9.536l8.144-9.536
				H483.096z"/>
		</g>
	</g>
	<g>
		<g>
			<path style="fill:#C0D8FB;" d="M884.072,1346.535h-97.748c-0.519,0-0.94-0.421-0.94-0.941V841.681c0-0.52,0.421-0.941,0.94-0.941
				h97.748c0.52,0,0.94,0.421,0.94,0.941v503.913C885.012,1346.114,884.592,1346.535,884.072,1346.535z M787.265,1344.653h95.866
				V842.622h-95.866V1344.653z"/>
		</g>
		<g>
			<path style="fill:#C0D8FB;" d="M927.978,1682.477H741.793c-0.271,0-0.529-0.116-0.707-0.32c-0.179-0.204-0.261-0.475-0.226-0.744
				l44.532-335.941c0.061-0.469,0.46-0.817,0.932-0.817h97.748c0.472,0,0.872,0.351,0.932,0.818l43.907,335.942
				c0.036,0.27-0.047,0.539-0.225,0.743C928.506,1682.36,928.249,1682.477,927.978,1682.477z M742.867,1680.596h184.039
				l-43.661-334.061h-96.097L742.867,1680.596z"/>
		</g>
		<g>
			<path style="fill:#C0D8FB;" d="M759.752,1815.833H724.07c-0.271,0-0.529-0.116-0.707-0.32c-0.179-0.204-0.261-0.476-0.226-0.744
				l17.723-133.356c0.063-0.468,0.461-0.816,0.933-0.816h73.809c0.315,0,0.609,0.156,0.784,0.42
				c0.174,0.262,0.206,0.593,0.085,0.885l-55.851,133.355C760.473,1815.605,760.131,1815.833,759.752,1815.833z M725.144,1813.951
				h33.982l55.062-131.475h-71.571L725.144,1813.951z"/>
		</g>
		<g>
			<path style="fill:#C0D8FB;" d="M945.403,1815.833h-35.682c-0.379,0-0.721-0.228-0.868-0.577L853.003,1681.9
				c-0.121-0.292-0.089-0.623,0.085-0.885c0.175-0.264,0.469-0.42,0.784-0.42h73.81c0.471,0,0.87,0.349,0.933,0.816l17.723,133.356
				c0.036,0.269-0.046,0.54-0.225,0.744C945.933,1815.717,945.674,1815.833,945.403,1815.833z M910.347,1813.951h33.982
				l-17.473-131.475h-71.571L910.347,1813.951z"/>
		</g>
		<g>
			<path style="fill:#C0D8FB;" d="M1116.491,1346.535H567.244c-0.454,0-0.842-0.323-0.925-0.77c-0.083-0.446,0.164-0.887,0.588-1.05
				l219.08-83.985c0.107-0.042,0.222-0.063,0.337-0.063h97.748c0.109,0,0.217,0.019,0.319,0.056l232.42,83.985
				c0.43,0.156,0.686,0.598,0.607,1.048C1117.339,1346.207,1116.948,1346.535,1116.491,1346.535z M572.327,1344.653h538.793
				l-227.212-82.104h-97.408L572.327,1344.653z"/>
		</g>
		<g>
			<path style="fill:#C0D8FB;" d="M1083.909,1094.578H599.826c-0.444,0-0.827-0.31-0.92-0.743c-0.094-0.434,0.129-0.873,0.534-1.056
				l186.498-83.985c0.122-0.055,0.253-0.083,0.386-0.083h97.748c0.125,0,0.248,0.025,0.365,0.073l199.837,83.985
				c0.413,0.174,0.646,0.614,0.558,1.054C1084.742,1094.262,1084.357,1094.578,1083.909,1094.578z M604.206,1092.696h475.035
				l-195.359-82.104h-97.356L604.206,1092.696z"/>
		</g>
		<g>
			<path style="fill:#C0D8FB;" d="M1032.708,842.622h-381.68c-0.451,0-0.838-0.32-0.924-0.762c-0.085-0.443,0.155-0.884,0.573-1.051
				l152.243-61.134c0.112-0.044,0.23-0.067,0.351-0.067h67.926c0.114,0,0.227,0.021,0.333,0.061l161.511,61.133
				c0.425,0.161,0.674,0.602,0.593,1.049C1033.551,842.297,1033.161,842.622,1032.708,842.622z M655.894,840.74h371.67
				l-156.54-59.252h-67.573L655.894,840.74z"/>
		</g>
		<g>
			<path style="fill:#C0D8FB;" d="M871.196,781.488H803.27c-0.293,0-0.57-0.137-0.748-0.37c-0.178-0.233-0.237-0.536-0.16-0.819
				l31.929-116.922c0.11-0.403,0.474-0.686,0.893-0.692c0.453,0.004,0.79,0.264,0.914,0.664l35.997,116.921
				c0.087,0.286,0.035,0.596-0.142,0.836C871.776,781.346,871.495,781.488,871.196,781.488z M804.502,779.607h65.42l-34.669-112.608
				L804.502,779.607z"/>
		</g>
		<g>
			<path style="fill:#C0D8FB;" d="M884.072,926.607h-97.748c-0.393,0-0.745-0.245-0.882-0.614c-0.137-0.369-0.029-0.784,0.269-1.04
				l48.043-41.28l-48.043-41.279c-0.299-0.256-0.406-0.671-0.269-1.04c0.137-0.369,0.489-0.613,0.882-0.613h97.748
				c0.393,0,0.745,0.245,0.882,0.613c0.137,0.37,0.029,0.784-0.269,1.04l-48.043,41.279l48.043,41.28
				c0.298,0.256,0.406,0.671,0.269,1.04C884.816,926.362,884.465,926.607,884.072,926.607z M788.863,924.726h92.67l-46.335-39.811
				L788.863,924.726z M788.863,842.622l46.335,39.812l46.335-39.812H788.863z"/>
		</g>
		<g>
			<path style="fill:#C0D8FB;" d="M884.072,1010.593h-97.748c-0.393,0-0.745-0.245-0.882-0.614c-0.137-0.369-0.029-0.784,0.269-1.04
				l48.043-41.279l-48.043-41.279c-0.299-0.256-0.406-0.671-0.269-1.04c0.137-0.369,0.489-0.614,0.882-0.614h97.748
				c0.393,0,0.745,0.245,0.882,0.614c0.137,0.369,0.029,0.784-0.269,1.04l-48.043,41.279l48.043,41.279
				c0.298,0.256,0.406,0.671,0.269,1.04C884.816,1010.348,884.465,1010.593,884.072,1010.593z M788.863,1008.711h92.67
				l-46.335-39.811L788.863,1008.711z M788.863,926.607l46.335,39.812l46.335-39.812H788.863z"/>
		</g>
		<g>
			<path style="fill:#C0D8FB;" d="M884.072,1094.578h-97.748c-0.393,0-0.745-0.245-0.882-0.613c-0.137-0.37-0.029-0.785,0.269-1.041
				l48.043-41.279l-48.043-41.279c-0.299-0.257-0.406-0.671-0.269-1.041c0.137-0.368,0.489-0.613,0.882-0.613h97.748
				c0.393,0,0.745,0.245,0.882,0.613c0.137,0.37,0.029,0.784-0.269,1.041l-48.043,41.279l48.043,41.279
				c0.298,0.256,0.406,0.671,0.269,1.041C884.816,1094.333,884.465,1094.578,884.072,1094.578z M788.863,1092.696h92.67
				l-46.335-39.812L788.863,1092.696z M788.863,1010.593l46.335,39.812l46.335-39.812H788.863z"/>
		</g>
		<g>
			<path style="fill:#C0D8FB;" d="M884.072,1178.564h-97.748c-0.393,0-0.745-0.246-0.882-0.614
				c-0.137-0.369-0.029-0.784,0.269-1.041l48.043-41.279l-48.043-41.279c-0.299-0.256-0.406-0.671-0.269-1.04
				c0.137-0.369,0.489-0.614,0.882-0.614h97.748c0.393,0,0.745,0.245,0.882,0.614c0.137,0.369,0.029,0.784-0.269,1.04
				l-48.043,41.279l48.043,41.279c0.298,0.257,0.406,0.672,0.269,1.041C884.816,1178.318,884.465,1178.564,884.072,1178.564z
				 M788.863,1176.683h92.67l-46.335-39.813L788.863,1176.683z M788.863,1094.578l46.335,39.812l46.335-39.812H788.863z"/>
		</g>
		<g>
			<path style="fill:#C0D8FB;" d="M884.072,1262.549h-97.748c-0.393,0-0.745-0.245-0.882-0.613
				c-0.137-0.369-0.029-0.785,0.269-1.041l48.043-41.278l-48.043-41.279c-0.299-0.256-0.406-0.671-0.269-1.041
				c0.137-0.368,0.489-0.613,0.882-0.613h97.748c0.393,0,0.745,0.245,0.882,0.613c0.137,0.37,0.029,0.785-0.269,1.041
				l-48.043,41.279l48.043,41.278c0.298,0.256,0.406,0.672,0.269,1.041C884.816,1262.304,884.465,1262.549,884.072,1262.549z
				 M788.863,1260.668h92.67l-46.335-39.812L788.863,1260.668z M788.863,1178.564l46.335,39.811l46.335-39.811H788.863z"/>
		</g>
		<g>
			<path style="fill:#C0D8FB;" d="M895.295,1430.52H774.941c-0.402,0-0.761-0.256-0.89-0.637c-0.131-0.382-0.003-0.804,0.316-1.05
				l59.253-45.6l-47.87-36.895c-0.319-0.245-0.447-0.667-0.316-1.048c0.13-0.381,0.488-0.638,0.89-0.638h97.748
				c0.402,0,0.76,0.257,0.89,0.638c0.13,0.381,0.003,0.803-0.316,1.049l-47.941,36.895l59.165,45.6
				c0.319,0.245,0.446,0.667,0.316,1.049C896.056,1430.264,895.698,1430.52,895.295,1430.52z M777.706,1428.639h114.828
				l-57.372-44.218L777.706,1428.639z M789.086,1346.535l46.077,35.512l46.144-35.512H789.086z"/>
		</g>
		<g>
			<path style="fill:#C0D8FB;" d="M906.252,1514.506H763.558c-0.418,0-0.787-0.275-0.903-0.677
				c-0.117-0.401,0.045-0.833,0.397-1.057l70.22-44.768l-58.839-37.633c-0.352-0.225-0.514-0.656-0.396-1.057
				c0.118-0.401,0.485-0.677,0.903-0.677h120.354c0.418,0,0.787,0.275,0.903,0.677c0.117,0.401-0.045,0.833-0.397,1.057
				l-59.032,37.636l69.99,44.765c0.352,0.225,0.513,0.656,0.396,1.057C907.037,1514.23,906.67,1514.506,906.252,1514.506z
				 M766.784,1512.624h136.252l-68.016-43.502L766.784,1512.624z M778.158,1430.52l56.863,36.37l57.049-36.37H778.158z"/>
		</g>
		<g>
			<path style="fill:#C0D8FB;" d="M917.743,1598.491H752.174c-0.43,0-0.806-0.292-0.911-0.709c-0.107-0.417,0.083-0.853,0.461-1.058
				l81.239-44.283l-69.855-38.051c-0.377-0.205-0.568-0.641-0.461-1.058c0.106-0.417,0.481-0.709,0.912-0.709h142.694
				c0.43,0,0.806,0.292,0.911,0.709c0.106,0.417-0.083,0.853-0.461,1.058l-69.806,38.051l81.297,44.283
				c0.377,0.205,0.567,0.641,0.461,1.058C918.549,1598.199,918.173,1598.491,917.743,1598.491z M755.866,1596.609h158.183
				l-79.119-43.097L755.866,1596.609z M767.252,1514.506l67.677,36.865l67.631-36.865H767.252z"/>
		</g>
		<g>
			<path style="fill:#C0D8FB;" d="M928.444,1682.477H741.793c-0.439,0-0.82-0.304-0.918-0.732c-0.097-0.429,0.116-0.867,0.513-1.057
				l91.46-43.657l-81.079-38.631c-0.397-0.188-0.61-0.628-0.513-1.057c0.097-0.43,0.478-0.733,0.917-0.733h165.569
				c0.439,0,0.82,0.304,0.917,0.733c0.097,0.428-0.116,0.867-0.513,1.057l-80.928,38.629l91.628,43.659
				c0.397,0.188,0.61,0.627,0.514,1.057C929.265,1682.173,928.884,1682.477,928.444,1682.477z M745.947,1680.596h178.335
				l-89.248-42.523L745.947,1680.596z M756.336,1598.491l78.697,37.497l78.555-37.497H756.336z"/>
		</g>
		<g>
			<path style="fill:#C0D8FB;" d="M722.827,1094.578c-0.233,0-0.458-0.086-0.633-0.245l-40.748-37.04l1.266-1.392l39.985,36.347
				l62.877-83.164l1.502,1.135l-63.498,83.986c-0.16,0.21-0.401,0.345-0.664,0.369
				C722.884,1094.576,722.856,1094.578,722.827,1094.578z"/>
		</g>
		<g>
			<path style="fill:#C0D8FB;" d="M961.56,1094.578c-0.254,0-0.506-0.103-0.692-0.303l-77.489-83.985l1.383-1.276l76.887,83.334
				l40.837-33.407l1.19,1.456l-41.522,33.969C961.982,1094.508,961.771,1094.578,961.56,1094.578z"/>
		</g>
		<g>
			
				<rect x="770.762" y="1302.66" transform="matrix(0.7591 -0.651 0.651 0.7591 -647.3976 857.6841)" style="fill:#C0D8FB;" width="128.873" height="1.882"/>
		</g>
		<g>
			<path style="fill:#C0D8FB;" d="M1044.146,1347.1l-71.18-52.225l-88.42,51.532c-0.348,0.201-0.783,0.163-1.087-0.099
				l-97.747-83.986l1.225-1.428l97.239,83.55l88.375-51.506c0.323-0.188,0.729-0.166,1.031,0.055l71.678,52.589L1044.146,1347.1z"/>
		</g>
		<g>
			<path style="fill:#C0D8FB;" d="M664.944,1346.94l-1.45-1.198l45.869-55.507c0.175-0.214,0.437-0.339,0.713-0.342
				c0.294-0.007,0.54,0.114,0.722,0.323l47.642,54.76l-1.42,1.235l-46.914-53.924L664.944,1346.94z"/>
		</g>
		<g>
			<path style="fill:#C0D8FB;" d="M786.324,842.622c-0.148,0-0.296-0.035-0.432-0.105l-59.175-30.566l0.864-1.672l58.146,30.035
				l16.636-60.017c0.083-0.3,0.31-0.54,0.605-0.64c0.294-0.1,0.62-0.047,0.869,0.141l80.371,60.808l70.335-29.242l0.722,1.737
				l-70.833,29.449c-0.308,0.128-0.662,0.083-0.929-0.119l-79.697-60.297l-16.575,59.799c-0.076,0.273-0.271,0.498-0.53,0.611
				C786.581,842.595,786.452,842.622,786.324,842.622z"/>
		</g>
		<g>
			<path style="fill:#C0D8FB;" d="M786.874,842.444l-1.099-1.527l84.872-61.133c0.257-0.186,0.593-0.228,0.89-0.114
				c0.296,0.115,0.515,0.373,0.581,0.684l12.875,61.134l-1.841,0.387l-12.578-59.719L786.874,842.444z"/>
		</g>
		<g>
			<path style="fill:#C0D8FB;" d="M870.493,781.173l-33.924-38.167l-32.584,38.153l-1.431-1.222l32.752-38.351l-16.775-18.874
				c-0.246-0.277-0.307-0.672-0.155-1.01c0.152-0.338,0.488-0.556,0.858-0.556h33.962c0.368,0,0.701,0.214,0.854,0.547
				c0.153,0.333,0.099,0.725-0.139,1.004l-16.11,18.863l34.097,38.361L870.493,781.173z M821.329,723.027l15.212,17.114
				l14.616-17.114H821.329z"/>
		</g>
	</g>
	<g>
		<path style="fill:#77A4E5;" d="M1389.831,657.653c-1.797-7.083-2.82-7.76-2.82-7.76s-70.482,3.936-77.109,4.017
			c-6.627,0.08-97.073-24.352-97.073-24.352l-46.496,49.669c0,0,127.239,12.628,144.027,12.096
			c27.742-0.88,79.342-23.388,79.342-23.388S1391.242,663.216,1389.831,657.653z"/>
		<path style="fill:#2C3A64;" d="M1369.014,1071.297c0,0-1.288,28.447,4.424,30.907s72.038-2.14,72.038-2.14
			s-0.463-8.304-11.99-9.517c-11.526-1.212-27.494-8.945-36.209-21.749C1385.116,1050.933,1369.014,1071.297,1369.014,1071.297z"/>
		<path style="fill:#1D3F77;" d="M1259.436,822.592c0,0,92.694,79.79,104.621,105.537c11.927,25.747,48.732,141.796,48.732,141.796
			s-10.152,6.109-30.843,7.253c-9.147,0.507-15.736-3.255-15.736-3.255s-53.679-105.296-58.375-115.45
			c-4.695-10.155-124.03-49.741-156.812-109.728L1259.436,822.592z"/>
		<g>
			<rect x="1379.864" y="349.025" style="fill:#ADC8FE;" width="54.638" height="1466.335"/>
			<rect x="1045.913" y="388.936" style="fill:#ADC8FE;" width="715.004" height="36.048"/>
			<g>
				<rect x="1072.872" y="309.115" style="fill:#ADC8FE;" width="11.786" height="79.821"/>
				<g>
					<g>
						<ellipse style="fill:#ADC8FE;" cx="1079.196" cy="325.403" rx="32.309" ry="7.315"/>
						<path style="fill:#ADC8FE;" d="M1046.887,310.772c0-4.04,14.465-7.315,32.309-7.315s32.309,3.275,32.309,7.315
							c0,4.04-14.465,7.315-32.309,7.315S1046.887,314.813,1046.887,310.772z"/>
						<path style="fill:#ADC8FE;" d="M1046.887,296.143c0-4.04,14.465-7.316,32.309-7.316s32.309,3.275,32.309,7.316
							c0,4.04-14.465,7.315-32.309,7.315S1046.887,300.183,1046.887,296.143z"/>
						<ellipse style="fill:#ADC8FE;" cx="1079.196" cy="281.512" rx="32.309" ry="7.315"/>
					</g>
					<rect x="1059.165" y="278.216" style="fill:#ADC8FE;" width="39.202" height="49.781"/>
				</g>
			</g>
			<g>
				<rect x="1397.091" y="309.115" style="fill:#ADC8FE;" width="11.786" height="79.821"/>
				<g>
					<g>
						<ellipse style="fill:#ADC8FE;" cx="1403.415" cy="325.403" rx="32.309" ry="7.315"/>
						<path style="fill:#ADC8FE;" d="M1371.106,310.772c0-4.04,14.465-7.315,32.309-7.315s32.309,3.275,32.309,7.315
							c0,4.04-14.465,7.315-32.309,7.315S1371.106,314.813,1371.106,310.772z"/>
						<path style="fill:#ADC8FE;" d="M1371.106,296.143c0-4.04,14.465-7.316,32.309-7.316s32.309,3.275,32.309,7.316
							c0,4.04-14.465,7.315-32.309,7.315S1371.106,300.183,1371.106,296.143z"/>
						<ellipse style="fill:#ADC8FE;" cx="1403.415" cy="281.512" rx="32.309" ry="7.315"/>
					</g>
					<rect x="1383.383" y="278.216" style="fill:#ADC8FE;" width="39.202" height="49.781"/>
				</g>
			</g>
			<g>
				<rect x="1722.284" y="309.115" style="fill:#ADC8FE;" width="11.786" height="79.821"/>
				<g>
					<g>
						<path style="fill:#ADC8FE;" d="M1696.299,325.403c0-4.04,14.466-7.315,32.31-7.315s32.309,3.275,32.309,7.315
							c0,4.04-14.465,7.315-32.309,7.315S1696.299,329.443,1696.299,325.403z"/>
						<path style="fill:#ADC8FE;" d="M1696.299,310.772c0-4.04,14.466-7.315,32.31-7.315s32.309,3.275,32.309,7.315
							c0,4.04-14.465,7.315-32.309,7.315S1696.299,314.813,1696.299,310.772z"/>
						<path style="fill:#ADC8FE;" d="M1696.299,296.143c0-4.04,14.466-7.316,32.31-7.316s32.309,3.275,32.309,7.316
							c0,4.04-14.465,7.315-32.309,7.315S1696.299,300.183,1696.299,296.143z"/>
						<path style="fill:#ADC8FE;" d="M1696.299,281.512c0-4.04,14.466-7.315,32.31-7.315s32.309,3.275,32.309,7.315
							c0,4.04-14.465,7.315-32.309,7.315S1696.299,285.552,1696.299,281.512z"/>
					</g>
					<rect x="1708.576" y="278.216" style="fill:#ADC8FE;" width="39.202" height="49.781"/>
				</g>
			</g>
			<g>
				<polygon style="fill:#ADC8FE;" points="1407.214,585.911 1204.652,416.862 1212.121,407.98 1407.151,570.743 1605.335,402.55 
					1612.878,411.37 				"/>
			</g>
		</g>
		<rect x="1334.524" y="501.656" style="fill:#2A4E96;" width="146.138" height="179.017"/>
		<g>
			<path style="fill:#1D3F77;" d="M1267.456,805.337c-0.512-0.224-1.061-0.373-1.635-0.435l-3.782-0.411
				c-1.959-0.211-3.882,0.56-5.155,2.065l-5.667,6.715l7.89,11.005l9.1-5.782c1.411-0.908,2.322-2.363,2.497-4.004
				c0.038-0.211,0.05-0.423,0.05-0.634v-3.482C1270.751,808.135,1269.416,806.183,1267.456,805.337z M1266.857,816.392l-7.09,4.514
				l-5.393-7.511l4.419-5.248c0.736-0.858,1.848-1.306,2.971-1.181l3.794,0.41c1.536,0.162,2.696,1.455,2.696,2.997v3.482
				c0,0.435-0.087,0.858-0.274,1.231C1267.756,815.621,1267.369,816.069,1266.857,816.392z"/>
		</g>
		<path style="fill:#F99746;" d="M1434.499,751.581v13.256c0,0-139.194,43.535-163.797,49.653c-1.173,0.286-2.085,0.497-2.709,0.609
			l-0.012-0.012c0.187-0.373,0.274-0.796,0.274-1.231v-3.482c0-1.542-1.161-2.835-2.696-2.997l-3.794-0.41
			c0,0,2.047-0.585,5.692-1.629C1293.782,797.752,1403.767,765.781,1434.499,751.581z"/>
		<path style="fill:#2C3A64;" d="M1327.343,1093.719c0,0-5.992,27.843-0.767,31.21c5.225,3.367,71.401,9.756,71.401,9.756
			s0.921-8.267-10.245-11.36c-11.166-3.095-25.63-13.352-32.1-27.414C1346.604,1076.286,1327.343,1093.719,1327.343,1093.719z"/>
		<path style="fill:#FFB27D;" d="M1169.73,610.162c0,0,31.491,35.405,55.214,30.943c0,0-6.486-7.558-13.713-14.32
			c-2.158-2.019-1.511-6.782-0.731-9.627c0.439-1.601,0.837-3.114,1.198-4.535c2.335-9.293,3.025-14.655,3.025-14.655
			l-15.984-16.306l-10.846-11.064c-0.463,5.35-1.018,10.33-2.791,14.512C1178.358,601.026,1169.73,610.162,1169.73,610.162z"/>
		<path style="fill:#ED975D;" d="M1185.103,585.11c0,0,5.971,20.465,26.595,27.513c2.335-9.293,3.025-14.655,3.025-14.655
			l-15.984-16.306C1189.864,582.743,1185.103,585.11,1185.103,585.11z"/>
		<path style="fill:#FFB27D;" d="M1221.782,598.256c0,0-38.519,1.754-39.246-22.159c-0.727-23.913-6.188-39.792,18.374-41.922
			c24.562-2.131,29.62,6.85,31.812,14.773C1234.914,556.871,1231.783,597.184,1221.782,598.256z"/>
		<path style="fill:#AFCDFB;" d="M1250.55,733.18c-0.145-2.369-0.258-4.769-0.345-7.215c-0.417-12.414-1.926-24.895-4.354-36.551
			c-1.872-9.059-4.303-17.613-7.204-25.232c-4.27-11.219-9.291-19.033-15.644-26.166c-0.049-0.055-10.364-10.571-10.417-10.603
			c-24.813,2.572-42.855-17.251-42.855-17.251s-59.312,51.236-43.841,161.459c0,0,1.489,7.965,4.108,19.436
			c0.573,2.487,1.197,5.142,1.873,7.922C1136.434,817.856,1252.439,764.764,1250.55,733.18z"/>
		<path style="fill:#2B478B;" d="M1161.076,540.561c-0.432-0.351-1.315-0.539-3.167-0.316c0,0,1.3-1.187,3.252-1.583
			c-0.077-2.648,0.465-7.455,4.656-9.342c0,0-2.131,1.69-1.951,4.487c4.142-6.183,14.349-11.956,44.942-14.887
			c40.319-3.863,31.812,24.207,27.212,28.188c-4.599,3.981-19.055-2.142-28.506,0.326c-9.451,2.467-8.774,16.808-11.684,19.308
			s-2.237-1.128-6.998-2.362c-4.76-1.234-3.862,6.219-1.735,10.791c2.127,4.573-2.792,11.971-2.792,11.971s0,0-7.299-5.577
			s-18.09-32.76-16.384-39.264C1160.775,541.727,1160.922,541.146,1161.076,540.561z"/>
		<path style="fill:#77A4E5;" d="M1147.997,706.31c0,0,16.644,55.994,35.501,65.07c18.856,9.076,17.762-38.87,17.762-38.87
			L1147.997,706.31z"/>
		<path style="fill:#2A4E96;" d="M1272.458,841.668c-29.903-13.262-20.019-76.904-21.908-108.488
			c-0.145-2.369-0.258-4.769-0.345-7.215c-0.417-12.414-1.926-24.895-4.354-36.551c-1.872-9.059-4.303-17.613-7.204-25.232
			l-41.342,6.717c-7.936,1.289-13.659,8.257-13.366,16.262c0.75,20.56-1.125,58.708-22.868,78.169
			c-15.662,14.02-25.344,21.636-31.073,25.728c0.573,2.487,1.197,5.142,1.873,7.922c4.563,18.877,9.65,42.895,20.501,56.639
			C1160.739,866.217,1275.647,843.083,1272.458,841.668z"/>
		<path style="fill:#2A4E96;" d="M1165.671,614.187c0,0,11.408,4.274,26.325,23.956c12.661,16.705,17.342,32.737,17.342,32.737
			l-6.857,1.523c0,0-10.17-34.952-40.948-53.517C1161.532,618.886,1161.611,618.211,1165.671,614.187z"/>
		<path style="fill:#FFB27D;" d="M1345.357,642.976c0,0,7.124-16.212,9.021-18.427c1.896-2.215,11.938-9.86,12.682-9.479
			c0.744,0.381,1.027,3.325-0.778,5.038c-1.277,1.211-2.775,2.318-1.991,2.44c0.784,0.122,4.341-5.49,7.152-3.644
			s9.456,10.046,5.19,16.484c-4.265,6.439-20.532,13.283-21.399,14.259C1347.88,657.923,1345.357,642.976,1345.357,642.976z"/>
		<path style="fill:#AFCDFB;" d="M1345.357,642.976c0,0-74.378,65.743-81.413,66.519c-11.229,1.239-73.937-55.805-73.937-55.805
			s-8.307-14.23-26.695-7.248c-15.979,6.067-22.945,25.247-22.945,25.247s-5.406,18.909,3.979,30.203
			c20.802,25.035,100.225,50.215,123.909,47.197c30.548-3.893,87.142-87.046,87.142-87.046s3.427-7.449-0.164-12.397
			C1352.067,645.283,1345.357,642.976,1345.357,642.976z"/>
		<path style="fill:#2A4E96;" d="M1363.385,1096.853c0,0-11.022,4.353-31.619,2.077c-9.1-1.008-14.979-5.808-14.979-5.808
			s-3.208-10.196-7.777-24.746c-0.699-2.251-1.436-4.588-2.209-7.025c-0.999-3.184-2.035-6.517-3.108-9.936
			c-0.724-2.313-1.46-4.663-2.197-7.038c-9.999-31.921-21.495-68.779-23.118-74.723c-2.946-10.794-114.066-69.487-136.435-134.05
			l110.846-22.271c0,0,78.591,108.297,86.08,135.654c3.995,14.599,10.71,55.746,16.103,90.925c0.362,2.325,0.712,4.613,1.049,6.877
			c0.524,3.444,1.023,6.802,1.522,10.035c0.35,2.362,0.687,4.65,1.024,6.864C1361.438,1083.037,1363.385,1096.853,1363.385,1096.853
			z"/>
		<path style="fill:#F99746;" d="M1252.79,813.337c0,0-42.655,33.582-104.793,39.381c0,0,5.338,14.032,16.537,20.693
			c0,0,66.677-10.062,94.902-50.819L1252.79,813.337z"/>
		<g>
			<path style="fill:#19243F;" d="M1397.978,1137.794c-0.135,0-0.271-0.009-0.406-0.027l-89.512-11.715
				c-1.709-0.224-2.912-1.785-2.688-3.486c0.224-1.702,1.792-2.901,3.5-2.678l88.816,11.624l35.857-11.501
				c1.638-0.529,3.398,0.371,3.927,2.006c0.528,1.635-0.374,3.386-2.014,3.913l-36.524,11.715
				C1398.624,1137.744,1398.301,1137.794,1397.978,1137.794z"/>
		</g>
		<g>
			<path style="fill:#FFFFFF;" d="M1356.021,1046.789c-14.38,4.104-28.947,5.036-39.732,5.036c-5.243,0-9.599-0.224-12.595-0.41
				c-0.724-2.313-1.46-4.663-2.197-7.038c0.262,0.024,0.562,0.037,0.911,0.062c7.702,0.498,30.62,1.965,52.564-4.526
				C1355.334,1042.237,1355.684,1044.525,1356.021,1046.789z"/>
		</g>
		<g>
			<path style="fill:#FFFFFF;" d="M1358.567,1063.688c-14.255,4.028-28.685,4.949-39.383,4.949c-3.969,0-7.415-0.125-10.173-0.262
				c-0.699-2.251-1.436-4.588-2.209-7.025c8.838,0.534,30.183,1.479,50.742-4.526
				C1357.893,1059.187,1358.23,1061.475,1358.567,1063.688z"/>
		</g>
		<rect x="1368.086" y="501.656" style="fill:#233862;" width="112.575" height="179.017"/>
	</g>
	<g>
		<g>
			<rect x="2326.455" y="974.464" style="fill:#D8E6FB;" width="31.433" height="846.793"/>
			<rect x="2134.337" y="997.512" style="fill:#D8E6FB;" width="411.333" height="20.817"/>
			<g>
				<rect x="2149.847" y="951.416" style="fill:#D8E6FB;" width="6.78" height="46.096"/>
				<g>
					<g>
						<ellipse style="fill:#D8E6FB;" cx="2153.484" cy="960.822" rx="18.587" ry="4.225"/>
						<path style="fill:#D8E6FB;" d="M2134.897,952.373c0-2.333,8.321-4.225,18.587-4.225s18.587,1.892,18.587,4.225
							c0,2.333-8.321,4.224-18.587,4.224S2134.897,954.706,2134.897,952.373z"/>
						<path style="fill:#D8E6FB;" d="M2134.897,943.925c0-2.333,8.321-4.225,18.587-4.225s18.587,1.892,18.587,4.225
							s-8.321,4.224-18.587,4.224S2134.897,946.258,2134.897,943.925z"/>
						<path style="fill:#D8E6FB;" d="M2134.897,935.476c0-2.333,8.321-4.225,18.587-4.225s18.587,1.892,18.587,4.225
							c0,2.333-8.321,4.224-18.587,4.224S2134.897,937.809,2134.897,935.476z"/>
					</g>
					<rect x="2141.961" y="933.573" style="fill:#D8E6FB;" width="22.552" height="28.747"/>
				</g>
			</g>
			<g>
				<rect x="2336.365" y="951.416" style="fill:#D8E6FB;" width="6.781" height="46.096"/>
				<g>
					<g>
						<path style="fill:#D8E6FB;" d="M2321.416,960.822c0-2.333,8.322-4.225,18.588-4.225s18.587,1.892,18.587,4.225
							c0,2.333-8.321,4.225-18.587,4.225S2321.416,963.155,2321.416,960.822z"/>
						<path style="fill:#D8E6FB;" d="M2321.416,952.373c0-2.333,8.322-4.225,18.588-4.225s18.587,1.892,18.587,4.225
							c0,2.333-8.321,4.224-18.587,4.224S2321.416,954.706,2321.416,952.373z"/>
						<path style="fill:#D8E6FB;" d="M2321.416,943.925c0-2.333,8.322-4.225,18.588-4.225s18.587,1.892,18.587,4.225
							s-8.321,4.224-18.587,4.224S2321.416,946.258,2321.416,943.925z"/>
						<path style="fill:#D8E6FB;" d="M2321.416,935.476c0-2.333,8.322-4.225,18.588-4.225s18.587,1.892,18.587,4.225
							c0,2.333-8.321,4.224-18.587,4.224S2321.416,937.809,2321.416,935.476z"/>
					</g>
					<rect x="2328.479" y="933.573" style="fill:#D8E6FB;" width="22.553" height="28.747"/>
				</g>
			</g>
			<g>
				<rect x="2523.445" y="951.416" style="fill:#D8E6FB;" width="6.78" height="46.096"/>
				<g>
					<g>
						<path style="fill:#D8E6FB;" d="M2508.496,960.822c0-2.333,8.322-4.225,18.588-4.225c10.265,0,18.586,1.892,18.586,4.225
							c0,2.333-8.321,4.225-18.586,4.225C2516.818,965.047,2508.496,963.155,2508.496,960.822z"/>
						<path style="fill:#D8E6FB;" d="M2508.496,952.373c0-2.333,8.322-4.225,18.588-4.225c10.265,0,18.586,1.892,18.586,4.225
							c0,2.333-8.321,4.224-18.586,4.224C2516.818,956.598,2508.496,954.706,2508.496,952.373z"/>
						<path style="fill:#D8E6FB;" d="M2508.496,943.925c0-2.333,8.322-4.225,18.588-4.225c10.265,0,18.586,1.892,18.586,4.225
							s-8.321,4.224-18.586,4.224C2516.818,948.149,2508.496,946.258,2508.496,943.925z"/>
						<path style="fill:#D8E6FB;" d="M2508.496,935.476c0-2.333,8.322-4.225,18.588-4.225c10.265,0,18.586,1.892,18.586,4.225
							c0,2.333-8.321,4.224-18.586,4.224C2516.818,939.7,2508.496,937.809,2508.496,935.476z"/>
					</g>
					<rect x="2515.56" y="933.573" style="fill:#D8E6FB;" width="22.552" height="28.747"/>
				</g>
			</g>
			<g>
				<polygon style="fill:#D8E6FB;" points="2342.189,1111.263 2225.657,1013.64 2229.954,1008.51 2342.153,1102.504 
					2456.166,1005.374 2460.505,1010.468 				"/>
			</g>
		</g>
	</g>
	<g>
		<rect x="1241.02" y="1220.171" style="fill:#ADC8FE;" width="245.577" height="593.574"/>
		<rect x="1393.202" y="1220.171" style="fill:#8CB4F4;" width="93.395" height="593.574"/>
		<rect x="1320.389" y="1240.668" style="fill:#4786D1;" width="49.719" height="88.254"/>
		<rect x="1307.805" y="1240.668" style="fill:#699AE2;" width="49.719" height="88.254"/>
		<g>
			<path style="fill:#EBF3FA;" d="M1257.583,1441.094l-0.308-1.21c0.156-0.041,15.653-4.307,18.074-29.74
				c2.01-21.11,5.438-32.142,11.465-36.887c2.706-2.131,6.017-2.932,9.841-2.387c4.805,0.687,9.073,5.047,14.014,10.095
				c8.867,9.058,19.9,20.331,39.41,15.054c29.928-8.098,42.416-40.17,42.539-40.493l1.167,0.443
				c-0.125,0.329-12.843,32.993-43.379,41.255c-20.213,5.467-31.534-6.094-40.628-15.385c-4.783-4.887-8.914-9.105-13.299-9.732
				c-3.523-0.506-6.431,0.194-8.892,2.132c-5.656,4.453-9.046,15.563-10.994,36.024c-1.308,13.733-6.371,21.371-10.388,25.361
				C1261.81,1439.986,1257.753,1441.051,1257.583,1441.094z"/>
		</g>
		<g>
			<polygon style="fill:#EBF3FA;" points="1393.202,1459.846 1319.765,1459.846 1319.765,1328.922 1321.014,1328.922 
				1321.014,1458.598 1393.202,1458.598 			"/>
		</g>
		<g>
			<polygon style="fill:#EBF3FA;" points="1393.202,1445.628 1332.04,1445.628 1332.04,1328.922 1333.289,1328.922 
				1333.289,1444.38 1393.202,1444.38 			"/>
		</g>
		<g>
			<polygon style="fill:#EBF3FA;" points="1393.202,1429.248 1348.994,1429.248 1348.994,1328.922 1350.243,1328.922 1350.243,1428 
				1393.202,1428 			"/>
		</g>
		<g>
			<polygon style="fill:#EBF3FA;" points="1393.202,1667.159 1284.084,1667.159 1284.084,1532.905 1393.202,1532.905 
				1393.202,1534.153 1285.333,1534.153 1285.333,1665.911 1393.202,1665.911 			"/>
		</g>
		<g>
			<polygon style="fill:#EBF3FA;" points="1393.202,1652.172 1301.307,1652.172 1301.307,1544.146 1393.202,1544.146 
				1393.202,1545.394 1302.556,1545.394 1302.556,1650.924 1393.202,1650.924 			"/>
		</g>
		<g>
			<polygon style="fill:#EBF3FA;" points="1393.202,1632.41 1319.765,1632.41 1319.765,1561.005 1393.202,1561.005 
				1393.202,1562.253 1321.014,1562.253 1321.014,1631.162 1393.202,1631.162 			"/>
		</g>
		<rect x="1274.11" y="1706.915" style="fill:#699AE2;" width="119.091" height="73.781"/>
		<g>
			<polygon style="fill:#699AE2;" points="1292.199,1706.915 1290.95,1706.915 1290.95,1683.395 1393.202,1683.395 
				1393.202,1684.643 1292.199,1684.643 			"/>
		</g>
		<g>
			<polygon style="fill:#699AE2;" points="1319.036,1706.915 1317.787,1706.915 1317.787,1694.843 1393.202,1694.843 
				1393.202,1696.091 1319.036,1696.091 			"/>
		</g>
		<g>
			<path style="fill:#ADC8FE;" d="M1338.54,1248.552c0,1.078-0.873,1.952-1.95,1.952c-1.078,0-1.951-0.874-1.951-1.952
				c0-1.077,0.873-1.951,1.951-1.951C1337.667,1246.601,1338.54,1247.475,1338.54,1248.552z"/>
			<path style="fill:#F99746;" d="M1345.795,1248.552c0,1.078-0.873,1.952-1.95,1.952c-1.078,0-1.951-0.874-1.951-1.952
				c0-1.077,0.873-1.951,1.951-1.951C1344.922,1246.601,1345.795,1247.475,1345.795,1248.552z"/>
			<path style="fill:#FFFFFF;" d="M1352.349,1248.552c0,1.078-0.873,1.952-1.95,1.952s-1.95-0.874-1.95-1.952
				c0-1.077,0.873-1.951,1.95-1.951S1352.349,1247.475,1352.349,1248.552z"/>
		</g>
		<rect x="1315.915" y="1253.157" style="fill:#4786D1;" width="38.384" height="21.02"/>
		<g>
			<path style="fill:#FFB27D;" d="M1293.357,1276.124c0,0,6.682-13.886,12.105-18.196s19.898-3.26,20.454-2.156
				c1.72,3.414-11.617,8.734-13.155,11.868c-1.539,3.134,4.853,2.818-0.055,8.265c-4.146,4.601-14.066,8.986-14.066,8.986
				L1293.357,1276.124z"/>
			<path style="fill:#E58638;" d="M1299.132,1274.539c-3.514-5.471-4.564-5.754-4.564-5.754s-58.111,23.19-63.657,25.126
				c-5.546,1.937-88.456,6.813-88.456,6.813l-25.021,55.022c0,0,110.487-25.21,124.443-30.393
				c23.063-8.563,60.056-42.103,60.056-42.103S1301.892,1278.836,1299.132,1274.539z"/>
			<path style="fill:#163560;" d="M1154.766,1789.011c0,0,1.266,20.408,5.054,25.208h58.29c-0.369-2.035-2.019-7.06-9.307-8.333
				c-9.21-1.603-24.627-8.077-30.202-20.257C1172.73,1772.816,1154.766,1789.011,1154.766,1789.011z"/>
			<path style="fill:#163560;" d="M1051.154,1780.62c0,0-3.67,30.951,1.319,31.41c0.664,0.061,24.012,0.019,30.36,0.969
				c10.366,1.553,27.658,0.198,27.658,0.198c2.166,0.091,3.584-2.256,2.482-4.123c-1.21-2.048-3.518-4.235-7.919-5.083
				c-9.179-1.768-24.477-8.513-29.84-20.787C1069.57,1770.292,1051.154,1780.62,1051.154,1780.62z"/>
			<path style="fill:#233862;" d="M1182.171,1517.407c0,0-14.655,51.304-56.659,140.404c-13.756,29.185-22.956,52.802-29.109,71.389
				c-0.799,2.396-1.548,4.705-2.234,6.927c-1.124,3.583-2.122,6.941-3.008,10.087c-0.674,2.409-1.286,4.693-1.847,6.853
				c-5.505,21.445-5.393,31.194-5.393,31.194s-9.537,3.595-20.933,2.459c-5.805-0.587-18.537-6.029-18.537-6.029
				s1.374-14.367,4.145-34.677c0.312-2.234,0.637-4.531,0.974-6.902c0.449-3.171,0.936-6.454,1.448-9.812
				c0.349-2.26,0.711-4.557,1.086-6.866c4.88-30.258,12.121-65.384,21.782-87.291c19.847-44.962,23.892-168.016,23.892-168.016
				L1182.171,1517.407z"/>
			<path style="fill:#2A4E96;" d="M1205.614,1491.23c-0.461,28.835-2.659,89.313-12.482,159.029
				c-4.744,33.69-7.302,60.69-8.613,81.599c-0.15,2.459-0.288,4.831-0.4,7.115c-0.2,3.683-0.35,7.152-0.474,10.398
				c-0.087,2.459-0.162,4.793-0.212,7.015c-0.549,22.506,0.612,32.842,0.612,32.842s-0.836,0.512-2.571,1.161h-0.013
				c-2.958,1.111-8.513,2.608-16.876,2.608c-3.757,0-6.99-0.499-9.587-1.136c-4.519-1.099-7.103-2.608-7.103-2.608
				s-2.209-12.995-4.718-31.844c-0.313-2.259-0.612-4.593-0.924-7.015c-0.412-3.195-0.812-6.517-1.223-9.949
				c-0.262-2.296-0.537-4.618-0.799-6.99c-3.32-29.945-5.892-65.521-3.12-89.55c0.437-3.832,0.649-8.089,0.661-12.708v-0.013
				c0.025-21.632-4.394-50.767-9.699-77.929c0,0-0.013-0.075-0.05-0.225c-5.468-27.948-11.859-53.763-15.316-67.132
				c-1.56-6.054-2.521-9.549-2.521-9.549l2.909-0.1h0.012l22.968-0.737l62.65-2.034l3.857-0.125l3.121-0.1
				C1205.701,1473.256,1205.801,1479.722,1205.614,1491.23z"/>
			<path style="fill:#FFB27D;" d="M1140.77,1287.322l15.521,11.502l22.432-4.725c-0.31-2.047-1.792-10.529-3.14-18.212
				c-0.082-0.453-0.163-0.906-0.239-1.35c-1.155-6.537-2.153-12.153-2.153-12.153l-20.951-10.447l-7.811-3.895
				c0.02,0.137,0.605,7.255,0.687,8.294C1146.582,1274.788,1140.77,1287.322,1140.77,1287.322z"/>
			<path style="fill:#E58638;" d="M1177.153,1281.52c-0.492-0.207-30.515-9.071-33.776-7.993c-3.261,1.077-5.192,7.391-5.192,7.391
				l46.352,13.21C1184.537,1294.127,1183.427,1284.162,1177.153,1281.52z"/>
			<path style="fill:#F99746;" d="M1096.311,1483.062c5.081,23.225,111.18-49.652,109.767-63.825
				c-0.156-1.557-0.312-3.125-0.467-4.682c-1.957-19.736-3.836-39.045-3.966-51.649c-0.104-10.931-1.607-22.109-3.616-32.263
				c-1.841-9.375-4.109-17.882-6.079-24.508c-1.387-4.669-3.979-8.779-7.414-12.008c-2.437-2.296-5.301-4.137-8.463-5.395
				c-0.855-0.363-1.737-0.662-2.631-0.921c-12.78-3.709-30.458-8.299-35.254-6.898c-12.987,3.825-22.63,26.687-29.46,55.837
				C1095.948,1391.317,1092.993,1467.929,1096.311,1483.062z"/>
			<path style="fill:#FCA56B;" d="M1146.688,1256.662c4.601,8.809,21.745,16.425,28.895,19.226c-0.082-0.453-0.163-0.906-0.239-1.35
				c-1.155-6.537-2.153-12.153-2.153-12.153l-20.951-10.447C1147.609,1251.866,1144.791,1253.037,1146.688,1256.662z"/>
			<path style="fill:#FFB27D;" d="M1183.373,1261.158c0,0-37.798,11.797-44.779-11.867c-6.98-23.663-16.56-38.077,7.278-46.609
				s31.212-0.894,35.462,6.438S1193.025,1257.479,1183.373,1261.158z"/>
			<path style="fill:#163560;" d="M1179.85,1206.84c0,0-2.411,27.536-8.103,26.341c-5.691-1.195-10.854-2.082-10.021,6.219
				c0.833,8.301,1.101,18.28-16.441,19.749s-35.133-44.188-30.314-52.757C1128.875,1181.666,1199.946,1176.676,1179.85,1206.84z"/>
			<path style="fill:#E58638;" d="M1202.876,1473.253c-10.508,3.8,0.182-10.446,0-13.416c-0.816-13.059,4.303-29.565,2.735-45.282
				l-64.174-38.379C1141.438,1376.176,1126.212,1472.644,1202.876,1473.253z"/>
			<path style="fill:#2A4E96;" d="M1096.311,1483.062c27.395,50.798,31.758,70.195,31.758,70.195
				c23.843-2.719,64.7-49.617,77.66-62.136c0,0,1.762-57.712,0.349-71.885l-19.805-0.571c0,0-35.798,9.077-45.079-3.241
				c-9.28-12.319-5.262-72.786-5.262-72.786l-27.205-5.888C1095.948,1391.317,1088.958,1469.427,1096.311,1483.062z"/>
			<path style="fill:#FFB27D;" d="M1258.864,1385.719c0,0,13.041-8.826,15.514-9.596c2.474-0.769,10.583-1.603,10.959-0.963
				c0.376,0.64,1.487,2.596,0.07,3.259s-3.181,0.431-2.651,0.894s5.861-2.076,7.09,0.644s2.312,12.038-3.943,14.863
				s-21.695,0.272-22.808,0.596C1253.653,1398.161,1258.864,1385.719,1258.864,1385.719z"/>
			<path style="fill:#F99746;" d="M1258.985,1383.332c0,0-63.647,10.826-69.287,8.078c-9.002-4.385,3.493-68.992,3.493-68.992
				s0.537-14.643-16.559-18.097c-14.855-3.001-29.188,8.133-29.188,8.133s-13.035,11.669-11.37,24.612
				c3.692,28.69,9.434,87.044,28.615,95.988c24.738,11.537,96.324-31.991,96.324-31.991s2.384-2.921,2.045-8.345
				C1262.76,1387.936,1258.985,1383.332,1258.985,1383.332z"/>
			<path style="fill:#2A4E96;" d="M1130.658,1341.496l5.275,1.142c0,0,11.146-48.277,48.604-48.511
				c-2.437-2.296-5.301-4.137-8.463-5.395C1162.347,1292.415,1138.512,1304.15,1130.658,1341.496z"/>
			<path style="fill:#FFB27D;" d="M1314.016,1274.177l6.374-8.219c0,0-1.587-2.029-4.837,0.391c-1.893,1.408-6.97,4.683-6.97,4.683
				L1314.016,1274.177z"/>
			<g style="opacity:0.5;">
				<path style="fill:#FFFFFF;" d="M1096.403,1729.2c-0.799,2.396-1.548,4.705-2.234,6.927c-14.068,0.013-27.424-2.621-37.298-5.192
					c-2.122-0.549-4.094-1.11-5.854-1.635c0.349-2.26,0.711-4.557,1.086-6.866C1062.101,1725.442,1078.89,1729.6,1096.403,1729.2z"
					/>
			</g>
			<g style="opacity:0.5;">
				<path style="fill:#FFFFFF;" d="M1091.161,1746.214c-0.674,2.409-1.286,4.693-1.847,6.853
					c-12.795-0.362-24.816-2.771-33.891-5.13c-2.521-0.662-4.806-1.323-6.828-1.923c0.312-2.234,0.637-4.531,0.974-6.902
					C1058.73,1741.907,1074.409,1746.001,1091.161,1746.214z"/>
			</g>
		</g>
		<g>
			<g>
				<path style="fill:#FFFFFF;" d="M1184.519,1731.858c-0.15,2.459-0.288,4.831-0.4,7.115c-12.982,2.435-25.639,2.521-35.251,2.034
					c-2.921-0.149-5.555-0.349-7.839-0.562c-0.262-2.296-0.537-4.618-0.799-6.99
					C1149.767,1734.393,1167.055,1735.429,1184.519,1731.858z"/>
			</g>
			<g>
				<path style="fill:#FFFFFF;" d="M1183.645,1749.372c-0.087,2.459-0.162,4.793-0.212,7.015c-11.996,1.96-23.58,2.022-32.517,1.561
					c-2.884-0.149-5.48-0.337-7.739-0.537c-0.313-2.259-0.612-4.593-0.924-7.015
					C1151.252,1751.27,1167.18,1752.255,1183.645,1749.372z"/>
			</g>
		</g>
	</g>
	<g>
		<g>
			<g>
				<polygon style="fill:#8CB4F4;" points="1868.151,1805.189 1910.857,1804.657 2010.597,1389.053 1967.89,1389.585 				"/>
				<path style="fill:#8CB4F4;" d="M1797.599,1814.438h191.513l0,0c0-11.205-9.083-20.289-20.288-20.289h-150.937
					C1806.682,1794.149,1797.599,1803.233,1797.599,1814.438L1797.599,1814.438z"/>
			</g>
			<polygon style="fill:#1D3F77;" points="2240,1622.013 2221.604,1529.79 2221.604,1529.79 2221.565,1529.596 2160.352,1222.695 
				1565.358,1222.781 1645.007,1622.099 1758.023,1622.082 1758.023,1622.082 1759.086,1622.082 1885.566,1622.063 
				1885.952,1622.063 1885.952,1622.063 2011.88,1622.045 2012.743,1622.045 2012.743,1622.045 2138.396,1622.027 
				2138.396,1622.027 2139.534,1622.027 2139.534,1622.027 			"/>
			<g>
				<polygon style="fill:#2A4E96;" points="2250.19,1614.118 1655.197,1614.202 1575.549,1222.78 2170.542,1222.695 				"/>
				<g>
					<g>
						<polygon style="fill:#C0D8FB;" points="1769.353,1614.187 1768.214,1614.187 1688.779,1223.816 1689.918,1223.816 						"/>
					</g>
					<g>
						<polygon style="fill:#C0D8FB;" points="1896.144,1614.168 1895.005,1614.168 1815.57,1223.799 1816.709,1223.798 						"/>
					</g>
					<g>
						<polygon style="fill:#C0D8FB;" points="2022.935,1614.15 2021.796,1614.15 1942.361,1223.78 1943.5,1223.78 						"/>
					</g>
					<g>
						<polygon style="fill:#C0D8FB;" points="2149.726,1614.133 2148.587,1614.133 2069.152,1223.763 2070.291,1223.763 						"/>
					</g>
					<g>
						<polygon style="fill:#C0D8FB;" points="2189.444,1315.59 1594.451,1315.674 1594.234,1314.604 2189.227,1314.52 						"/>
					</g>
					<g>
						<polygon style="fill:#C0D8FB;" points="2210.62,1419.654 1615.627,1419.739 1615.41,1418.67 2210.402,1418.586 						"/>
					</g>
					<g>
						<polygon style="fill:#C0D8FB;" points="2231.796,1523.719 1636.803,1523.804 1636.585,1522.734 2231.578,1522.649 						"/>
					</g>
				</g>
				<g>
					<polygon style="fill:#C0D8FB;" points="1710.27,1326.629 1695.68,1315.125 1705.587,1303.616 1720.177,1315.121 					"/>
					<polygon style="fill:#C0D8FB;" points="1731.555,1431.229 1716.965,1419.725 1726.871,1408.217 1741.461,1419.721 					"/>
					<polygon style="fill:#C0D8FB;" points="1837.63,1326.611 1823.04,1315.106 1832.947,1303.599 1847.537,1315.104 					"/>
					<polygon style="fill:#C0D8FB;" points="1858.914,1431.211 1844.324,1419.707 1854.231,1408.199 1868.821,1419.703 					"/>
					<polygon style="fill:#C0D8FB;" points="1964.421,1326.593 1949.831,1315.089 1959.738,1303.581 1974.328,1315.085 					"/>
					<polygon style="fill:#C0D8FB;" points="2090.073,1326.575 2075.484,1315.07 2085.391,1303.563 2099.98,1315.067 					"/>
					<polygon style="fill:#C0D8FB;" points="1752.621,1534.759 1738.031,1523.254 1747.938,1511.746 1762.528,1523.251 					"/>
					<polygon style="fill:#C0D8FB;" points="1879.981,1534.74 1865.392,1523.236 1875.299,1511.729 1889.888,1523.232 					"/>
					<polygon style="fill:#C0D8FB;" points="2006.771,1534.723 1992.183,1523.219 2002.09,1511.711 2016.68,1523.215 					"/>
					<polygon style="fill:#C0D8FB;" points="2132.425,1534.705 2117.835,1523.2 2127.742,1511.692 2142.332,1523.197 					"/>
					<polygon style="fill:#C0D8FB;" points="2111.357,1431.176 2096.769,1419.671 2106.676,1408.163 2121.266,1419.667 					"/>
					<polygon style="fill:#C0D8FB;" points="1985.705,1431.193 1971.115,1419.688 1981.022,1408.181 1995.612,1419.686 					"/>
				</g>
			</g>
		</g>
		<g>
			<g>
				
					<rect x="2049.119" y="1337.136" transform="matrix(0.9699 -0.2435 0.2435 0.9699 -268.4962 540.6976)" style="fill:#ADC8FE;" width="7.251" height="38.43"/>
				<path style="fill:#ADC8FE;" d="M2050.524,1324.735c0.005,0.033,0.001-0.001,0.005,0.033c0.35,2.879-0.482,5.972-3.198,6.987
					c-3.634,1.359-6.093-1.003-7.011-4.656c-0.004-0.018-0.234-0.934-0.238-0.951c-0.31-1.278-3.271-0.232-3.7,1.011
					c-0.77,2.232-0.795,4.756,0.146,7.201c1.719,4.464,6.376,7.211,11.116,6.563c6.286-0.86,10.264-6.931,8.763-12.91
					c-0.42-1.671-1.22-3.146-2.284-4.354C2053.09,1322.485,2050.313,1323.188,2050.524,1324.735z"/>
				<path style="fill:#ADC8FE;" d="M2054.092,1388.728c-0.004-0.033,0,0-0.004-0.033c-0.35-2.878,0.482-5.972,3.198-6.987
					c3.634-1.359,6.093,1.003,7.01,4.656c0.005,0.018,0.234,0.934,0.239,0.951c0.31,1.278,3.271,0.232,3.7-1.011
					c0.77-2.232,0.795-4.756-0.146-7.201c-1.718-4.464-6.376-7.211-11.115-6.563c-6.286,0.86-10.265,6.931-8.763,12.91
					c0.419,1.671,1.219,3.146,2.284,4.354C2051.527,1390.978,2054.304,1390.275,2054.092,1388.728z"/>
			</g>
			<g>
				<path style="fill:#FFB27D;" d="M2037.355,1243.287c0,0-7.121-14.791-12.9-19.382c-5.779-4.592-21.205-3.472-21.798-2.297
					c-1.833,3.637,12.38,9.304,14.02,12.642s-5.172,3.002,0.059,8.804c4.418,4.9,14.99,9.571,14.99,9.571L2037.355,1243.287z"/>
				<path style="fill:#77A4E5;" d="M2031.201,1241.6c3.745-5.827,4.864-6.13,4.864-6.13s61.931,24.702,67.841,26.765
					s94.269,7.257,94.269,7.257l26.665,58.61c0,0-117.748-26.854-132.62-32.374c-24.578-9.121-64.002-44.847-64.002-44.847
					S2028.261,1246.176,2031.201,1241.6z"/>
				<path style="fill:#FFB27D;" d="M2021.934,1238.99c-0.073-0.066,2.281-3.176-0.737-6.752c-2.22-2.631-2.715,2.375-6.502,1.122
					c-3.147-1.042-11.601-2.299-6.135,2.109c5.029,4.057,10.002,9.506,11.86,10.775
					C2022.277,1247.516,2021.934,1238.99,2021.934,1238.99z"/>
				<path style="fill:#163560;" d="M2185.054,1789.608c0,0-1.349,21.739-5.386,26.852h-62.12c0.393-2.168,2.151-7.52,9.918-8.876
					c9.815-1.707,26.246-8.604,32.187-21.577C2165.908,1772.358,2185.054,1789.608,2185.054,1789.608z"/>
				<path style="fill:#163560;" d="M2295.29,1786.577c0,0,4.097,27.063-1.222,27.552c-0.707,0.064-25.59,0.02-32.354,1.032
					c-11.048,1.653-29.476,0.211-29.476,0.211c-2.308,0.096-3.82-2.403-2.645-4.392c1.289-2.182,3.749-4.512,8.439-5.414
					c9.782-1.883,26.085-9.068,31.801-22.143C2275.848,1769.67,2295.29,1786.577,2295.29,1786.577z"/>
				<path style="fill:#E58638;" d="M2295.287,1786.575c0,0-5.746,2.196-14.872,2.97c-6.133,0.519-10.962-0.254-13.642-0.869
					c-1.497-0.351-2.318-0.652-2.318-0.652s-1.051-13.207-9.562-41.058c-0.64-2.101-1.327-4.298-2.063-6.579
					c-0.955-2.982-1.992-6.109-3.115-9.381c-0.736-2.137-1.497-4.334-2.306-6.591c-7.074-19.896-17.083-44.655-31.183-74.546
					c-4.66-9.899-9.019-19.353-13.063-28.346c-34.792-77.371-47.323-121.23-47.323-121.23l1.521-0.905l61.713-36.747l10.37-6.17
					h0.012l16.334-9.729c0,0,0.229,6.978,0.846,18.302c0,0.156,0.012,0.313,0.023,0.482c2.064,37.991,8.391,123.487,24.579,160.187
					c9.863,22.31,15.755,58.78,19.231,91.339c0.242,2.294,0.482,4.575,0.7,6.82c0.338,3.404,0.651,6.736,0.93,9.996
					c0.205,2.306,0.398,4.588,0.567,6.809C2294.78,1766.981,2295.287,1786.575,2295.287,1786.575z"/>
				<path style="fill:#F99746;" d="M2232.572,1456.567c0,0-1.026,3.73-2.691,10.178c-3.695,14.281-10.54,41.891-16.383,71.745
					c-5.649,28.938-10.37,59.986-10.334,83.033c0.012,4.901,0.229,9.44,0.7,13.521c2.837,24.567-0.338,60.735-4.479,92.063
					c-0.313,2.317-0.628,4.611-0.941,6.881c-0.483,3.44-0.966,6.809-1.461,10.068c-0.351,2.33-0.688,4.611-1.038,6.82
					c-3.658,23.396-7.026,40.128-7.026,40.128s-1.461,0.326-4.032,0.737c-3.67,0.615-9.598,1.412-16.744,1.726
					c-4.152,0.182-8.704-1.292-11.529-2.414c-1.689-0.677-2.764-1.22-2.764-1.22s1.436-12.724,0.494-40.587
					c-0.035-1.086-0.084-2.196-0.133-3.332l-0.145-3.477c-0.133-3.066-0.289-6.289-0.495-9.67c-0.12-2.209-0.266-4.479-0.41-6.833
					c-1.448-21.862-4.141-49.713-8.994-84.119c-10.467-74.269-12.82-138.686-13.304-169.397
					c-0.193-12.266-0.096-19.146-0.096-19.146l3.319,0.108l4.129,0.133l66.759,2.161l24.471,0.796h0.012L2232.572,1456.567z"/>
				<path style="fill:#FFB27D;" d="M2199.969,1255.217l-16.541,12.251l-23.905-5.033c0.331-2.18,1.909-11.215,3.346-19.399
					c0.087-0.482,0.174-0.965,0.255-1.437c1.231-6.964,2.294-12.945,2.294-12.945l22.328-11.129l8.325-4.149
					c-0.022,0.146-0.646,7.729-0.732,8.835C2193.775,1241.864,2199.969,1255.217,2199.969,1255.217z"/>
				<path style="fill:#77A4E5;" d="M2161.195,1249.035c0.523-0.221,32.52-9.663,35.995-8.516c3.476,1.148,5.534,7.873,5.534,7.873
					l-49.398,14.071C2153.326,1262.464,2154.51,1251.85,2161.195,1249.035z"/>
				<path style="fill:#ADC8FE;" d="M2247.35,1463.715c-5.414,24.738-118.485-52.889-116.979-67.986
					c0.165-1.657,0.331-3.329,0.497-4.986c2.086-21.022,4.089-41.59,4.227-55.016c0.11-11.645,1.713-23.551,3.854-34.366
					c1.962-9.986,4.379-19.048,6.479-26.106c1.479-4.973,4.24-9.351,7.9-12.79c2.598-2.445,5.649-4.406,9.021-5.746
					c0.911-0.387,1.851-0.705,2.804-0.981c13.619-3.95,32.46-8.84,37.57-7.348c13.84,4.074,24.117,28.427,31.396,59.478
					C2247.736,1365.99,2250.886,1447.596,2247.35,1463.715z"/>
				<path style="fill:#FCA56B;" d="M2193.662,1222.557c-4.903,9.383-23.174,17.496-30.794,20.479
					c0.087-0.482,0.174-0.965,0.255-1.437c1.231-6.964,2.294-12.945,2.294-12.945l22.328-11.129
					C2192.68,1217.448,2195.685,1218.695,2193.662,1222.557z"/>
				<path style="fill:#FFB27D;" d="M2154.567,1227.346c0,0,40.281,12.566,47.721-12.64c7.438-25.206,17.648-40.56-7.756-49.648
					c-25.405-9.089-33.263-0.952-37.792,6.857C2152.211,1179.724,2144.28,1223.428,2154.567,1227.346z"/>
				<path style="fill:#CE6719;" d="M2158.322,1169.486c0,0,2.568,29.332,8.635,28.059c6.065-1.273,11.566-2.218,10.679,6.624
					s-9.3,19.052,9.395,20.615c18.694,1.564,45.568-46.646,40.433-55.774C2212.646,1142.672,2136.905,1137.356,2158.322,1169.486z"
					/>
				<path style="fill:#77A4E5;" d="M2133.781,1453.268c11.199,4.047-0.193-11.128,0-14.291c0.871-13.91-4.586-31.493-2.914-48.234
					l68.391-40.881C2199.258,1349.861,2215.484,1452.618,2133.781,1453.268z"/>
				<path style="fill:#F99746;" d="M2247.35,1463.715c-29.195,54.109-33.845,74.771-33.845,74.771
					c-25.41-2.896-68.952-52.852-82.763-66.187c0,0-1.878-61.474-0.372-76.571l21.105-0.607c0,0,38.151,9.669,48.041-3.453
					s5.607-77.531,5.607-77.531l28.993-6.271C2247.736,1365.99,2255.186,1449.191,2247.35,1463.715z"/>
				<path style="fill:#FFB27D;" d="M2074.115,1360.026c0,0-13.897-9.401-16.533-10.221c-2.637-0.819-11.279-1.707-11.68-1.026
					c-0.401,0.682-1.585,2.766-0.075,3.472c1.511,0.706,3.39,0.458,2.826,0.951c-0.564,0.493-6.246-2.211-7.557,0.687
					c-1.311,2.896-2.463,12.822,4.202,15.832c6.666,3.009,23.121,0.289,24.308,0.635
					C2079.669,1373.28,2074.115,1360.026,2074.115,1360.026z"/>
				<path style="fill:#ADC8FE;" d="M2073.986,1357.484c0,0,67.83,11.531,73.84,8.605c9.594-4.672-3.723-73.491-3.723-73.491
					s-0.571-15.597,17.646-19.275c15.832-3.197,31.106,8.662,31.106,8.662s13.892,12.431,12.116,26.218
					c-3.934,30.561-10.054,92.718-30.494,102.246c-26.364,12.288-102.654-34.078-102.654-34.078s-2.54-3.11-2.179-8.888
					C2069.964,1362.389,2073.986,1357.484,2073.986,1357.484z"/>
				<path style="fill:#F99746;" d="M2210.746,1312.922l-5.622,1.215c0,0-11.878-51.425-51.798-51.673
					c2.598-2.445,5.649-4.406,9.021-5.746C2176.974,1260.641,2202.375,1273.141,2210.746,1312.922z"/>
			</g>
		</g>
		<g>
			<path style="fill:#FFFFFF;" d="M2199.386,1727.107c-0.313,2.317-0.628,4.611-0.941,6.881c-13.69,1.932-27.042,1.135-36.978-0.072
				c-2.97-0.362-5.626-0.773-7.896-1.147c-0.12-2.209-0.266-4.479-0.41-6.833
				C2162.686,1727.602,2180.987,1730.076,2199.386,1727.107z"/>
		</g>
		<path style="fill:#FFFFFF;" d="M2154.066,1742.438l0.145,3.477l0.133,3.332c2.282,0.374,4.938,0.772,7.932,1.147
			c9.127,1.11,21.163,1.883,33.67,0.482c0.35-2.209,0.688-4.49,1.038-6.82C2179.769,1746.266,2163.072,1743.996,2154.066,1742.438z"
			/>
		<g style="opacity:0.5;">
			<path style="fill:#FFFFFF;" d="M2291.171,1723.871c-12.761,4.322-25.653,6.061-35.407,6.785c-2.186,0.169-4.214,0.266-6.049,0.35
				c-0.736-2.137-1.497-4.334-2.306-6.591c9.718-0.29,26.716-1.533,43.062-7.364
				C2290.713,1719.345,2290.953,1721.626,2291.171,1723.871z"/>
		</g>
		<g style="opacity:0.5;">
			<path style="fill:#FFFFFF;" d="M2292.668,1740.676c-11.928,3.742-23.795,5.313-32.909,5.988
				c-1.726,0.133-3.356,0.229-4.865,0.302c-0.64-2.101-1.327-4.298-2.063-6.579c9.403-0.362,24.445-1.63,39.271-6.52
				C2292.306,1736.173,2292.499,1738.455,2292.668,1740.676z"/>
		</g>
	</g>
	<g>
		<g>
			<path style="fill:#FFB27D;" d="M633.677,1487.484c0,0,5.304-8.074,9.032-10.304c3.728-2.229,12.64-0.377,12.894,0.354
				c0.787,2.264-7.945,4.465-9.161,6.285c-1.216,1.819,2.784,2.152-0.718,5.131c-2.958,2.515-9.488,4.418-9.488,4.418
				L633.677,1487.484z"/>
			<path style="fill:#77A4E5;" d="M637.398,1486.979c-1.731-3.69-2.361-3.954-2.361-3.954s-38.045,9.597-41.654,10.341
				c-3.608,0.744-55.554-3.093-55.554-3.093l-20.11,32.117c0,0,70.773-6.515,79.878-8.579c15.045-3.41,40.819-21.187,40.819-21.187
				S638.758,1489.877,637.398,1486.979z"/>
			<path style="fill:#FFB27D;" d="M643.007,1486.177c0.048-0.033,2.121-1.948,4.159-3.8c1.499-1.362,2.567-3.244,3.211-3.763
				c1.52-1.224,2.232,2.087-0.272,5.814c-2.121,3.155-5.595,5.501-6.778,6.098C642.144,1491.123,643.007,1486.177,643.007,1486.177z
				"/>
		</g>
		<g>
			<g>
				<polygon style="fill:#8CB4F4;" points="742.081,1809.827 767.214,1809.515 825.909,1564.937 800.777,1565.25 				"/>
				<path style="fill:#8CB4F4;" d="M700.563,1815.271h112.703l0,0c0-6.595-5.346-11.939-11.94-11.939h-88.824
					C705.908,1803.331,700.563,1808.676,700.563,1815.271L700.563,1815.271z"/>
			</g>
			<polygon style="fill:#1D3F77;" points="960.91,1702.03 950.084,1647.759 950.084,1647.759 950.061,1647.644 914.038,1467.037 
				563.892,1467.088 610.764,1702.081 677.272,1702.071 677.272,1702.071 677.898,1702.071 752.33,1702.061 752.558,1702.061 
				752.558,1702.061 826.664,1702.05 827.172,1702.05 827.172,1702.05 901.117,1702.039 901.117,1702.039 901.787,1702.039 
				901.787,1702.039 			"/>
			<g>
				<polygon style="fill:#2A4E96;" points="966.907,1697.385 616.761,1697.434 569.889,1467.087 920.035,1467.037 				"/>
				<g>
					<g>
						<polygon style="fill:#C0D8FB;" points="683.94,1697.425 683.27,1697.425 636.524,1467.697 637.194,1467.697 						"/>
					</g>
					<g>
						<polygon style="fill:#C0D8FB;" points="758.555,1697.414 757.885,1697.414 711.139,1467.687 711.809,1467.687 						"/>
					</g>
					<g>
						<polygon style="fill:#C0D8FB;" points="833.169,1697.403 832.499,1697.403 785.753,1467.676 786.424,1467.676 						"/>
					</g>
					<g>
						<polygon style="fill:#C0D8FB;" points="907.784,1697.393 907.114,1697.393 860.369,1467.665 861.039,1467.665 						"/>
					</g>
					<g>
						<polygon style="fill:#C0D8FB;" points="931.158,1521.704 581.013,1521.754 580.885,1521.124 931.03,1521.075 						"/>
					</g>
					<g>
						<polygon style="fill:#C0D8FB;" points="943.62,1582.945 593.475,1582.995 593.347,1582.365 943.492,1582.316 						"/>
					</g>
					<g>
						<polygon style="fill:#C0D8FB;" points="956.081,1644.186 605.936,1644.235 605.808,1643.606 955.954,1643.557 						"/>
					</g>
				</g>
				<g>
					<polygon style="fill:#C0D8FB;" points="649.17,1528.201 640.584,1521.431 646.415,1514.658 655,1521.429 					"/>
					<polygon style="fill:#C0D8FB;" points="661.696,1589.757 653.11,1582.986 658.94,1576.214 667.526,1582.984 					"/>
					<polygon style="fill:#C0D8FB;" points="724.12,1528.19 715.534,1521.42 721.365,1514.647 729.951,1521.418 					"/>
					<polygon style="fill:#C0D8FB;" points="736.646,1589.746 728.06,1582.976 733.89,1576.203 742.476,1582.974 					"/>
					<polygon style="fill:#C0D8FB;" points="798.735,1528.18 790.149,1521.409 795.979,1514.638 804.565,1521.407 					"/>
					<polygon style="fill:#C0D8FB;" points="872.68,1528.169 864.094,1521.399 869.924,1514.627 878.51,1521.397 					"/>
					<polygon style="fill:#C0D8FB;" points="674.094,1650.683 665.508,1643.912 671.338,1637.141 679.924,1643.91 					"/>
					<polygon style="fill:#C0D8FB;" points="749.043,1650.672 740.457,1643.901 746.288,1637.13 754.873,1643.899 					"/>
					<polygon style="fill:#C0D8FB;" points="823.658,1650.661 815.072,1643.891 820.902,1637.119 829.488,1643.889 					"/>
					<polygon style="fill:#C0D8FB;" points="897.603,1650.65 889.018,1643.881 894.848,1637.108 903.434,1643.879 					"/>
					<polygon style="fill:#C0D8FB;" points="885.206,1589.725 876.62,1582.955 882.45,1576.183 891.036,1582.953 					"/>
					<polygon style="fill:#C0D8FB;" points="811.261,1589.735 802.675,1582.965 808.505,1576.193 817.091,1582.963 					"/>
				</g>
			</g>
		</g>
		<g>
			
				<rect x="618.784" y="1534.384" transform="matrix(-0.9699 -0.2435 0.2435 -0.9699 846.7021 3196.0632)" style="fill:#ADC8FE;" width="4.267" height="22.616"/>
			<path style="fill:#ADC8FE;" d="M622.223,1527.086c-0.002,0.02,0,0-0.002,0.02c-0.206,1.694,0.284,3.515,1.882,4.112
				c2.138,0.8,3.586-0.59,4.126-2.74c0.002-0.01,0.138-0.55,0.14-0.56c0.183-0.752,1.925-0.137,2.178,0.595
				c0.453,1.313,0.468,2.799-0.086,4.237c-1.011,2.628-3.752,4.244-6.541,3.862c-3.699-0.506-6.041-4.078-5.157-7.597
				c0.247-0.983,0.718-1.852,1.345-2.563C620.713,1525.763,622.348,1526.176,622.223,1527.086z"/>
			<path style="fill:#ADC8FE;" d="M620.123,1564.745c0.003-0.02,0.001,0,0.003-0.02c0.206-1.694-0.284-3.515-1.882-4.112
				c-2.138-0.8-3.585,0.59-4.125,2.741c-0.003,0.01-0.138,0.549-0.14,0.559c-0.183,0.753-1.925,0.138-2.178-0.595
				c-0.453-1.313-0.468-2.799,0.086-4.237c1.011-2.627,3.752-4.244,6.541-3.862c3.699,0.506,6.041,4.078,5.157,7.598
				c-0.247,0.983-0.718,1.851-1.345,2.563C621.633,1566.069,619.999,1565.656,620.123,1564.745z"/>
		</g>
		<path style="fill:#163560;" d="M543.055,1800.658c0,0,0.793,12.793,3.169,15.802h36.557c-0.231-1.275-1.266-4.425-5.836-5.224
			c-5.777-1.005-15.446-5.063-18.941-12.697C554.321,1790.507,543.055,1800.658,543.055,1800.658z"/>
		<path style="fill:#163560;" d="M478.182,1798.874c0,0-2.41,15.927,0.719,16.214c0.416,0.038,15.059,0.012,19.04,0.607
			c6.501,0.974,17.346,0.125,17.346,0.125c1.358,0.056,2.249-1.415,1.557-2.585c-0.759-1.284-2.206-2.655-4.966-3.187
			c-5.757-1.107-15.351-5.336-18.714-13.03C489.623,1788.925,478.182,1798.874,478.182,1798.874z"/>
		<path style="fill:#E58638;" d="M560.249,1630.399c0,0-9.2,32.168-35.538,88.016c-8.526,18.087-14.517,32.991-18.699,44.862
			c-0.499,1.386-0.961,2.721-1.398,4.02c-0.699,2.06-1.336,4.02-1.922,5.879c-0.437,1.373-0.836,2.696-1.223,3.97
			c-4.556,15.304-5.143,22.581-5.143,22.581s-4.706,1.748-9.549,1.311c-4.581-0.424-8.6-2.159-8.6-2.159s0.262-10.373,1.36-24.679
			c0.1-1.298,0.2-2.621,0.312-3.981c0.15-1.848,0.325-3.745,0.5-5.692c0.125-1.311,0.262-2.646,0.387-3.981
			c2.022-19.798,5.53-42.604,11.597-56.335c12.445-28.186,14.979-105.328,14.979-105.328L560.249,1630.399z"/>
		<path style="fill:#F99746;" d="M567.114,1713.684c-3.17,22.557-4.781,40.319-5.542,53.763c-0.087,1.398-0.15,2.746-0.212,4.058
			c-0.1,2.097-0.175,4.068-0.249,5.916c-0.038,1.398-0.075,2.734-0.1,3.994c-0.275,13.27,0.412,19.374,0.412,19.374
			s-4.419,1.672-9.786,1.672c-6.579,0-10.86-0.985-10.86-0.985s-1.598-7.939-3.482-19.523v-0.013
			c-0.212-1.298-0.424-2.634-0.637-4.007c-0.287-1.848-0.574-3.757-0.861-5.717c-0.2-1.311-0.387-2.646-0.586-4.007
			c-2.709-19.336-5.031-42.891-3.221-58.506c3.533-30.607-16.889-105.029-16.889-105.029l59.904-1.947
			C575.003,1602.726,575.727,1652.531,567.114,1713.684z"/>
		<path style="fill:#FFB27D;" d="M534.277,1486.176l9.734,7.209l14.068-2.961c-0.195-1.283-1.123-6.601-1.969-11.417
			c-0.051-0.284-0.102-0.567-0.15-0.846c-0.725-4.098-1.35-7.618-1.35-7.618l-13.14-6.549l-4.899-2.441
			c0.013,0.086,0.38,4.548,0.431,5.199C537.922,1478.317,534.277,1486.176,534.277,1486.176z"/>
		<path style="fill:#77A4E5;" d="M557.095,1482.538c-0.309-0.13-19.138-5.687-21.183-5.011c-2.045,0.675-3.256,4.633-3.256,4.633
			l29.07,8.28C561.726,1490.44,561.029,1484.194,557.095,1482.538z"/>
		<path style="fill:#ADC8FE;" d="M506.394,1608.874c3.187,14.559,69.727-31.124,68.841-40.009c-0.098-0.976-0.195-1.959-0.293-2.935
			c-1.228-12.372-2.406-24.476-2.487-32.376c-0.065-6.853-1.008-13.859-2.268-20.225c-1.154-5.877-2.577-11.209-3.813-15.362
			c-0.87-2.927-2.496-5.503-4.649-7.527c-1.528-1.438-3.325-2.593-5.308-3.382c-0.537-0.228-1.089-0.414-1.65-0.577
			c-8.015-2.324-19.103-5.202-22.11-4.324c-8.145,2.397-14.193,16.729-18.477,35.002
			C506.166,1551.364,504.313,1599.388,506.394,1608.874z"/>
		<path style="fill:#FCA56B;" d="M537.989,1466.956c2.885,5.521,13.637,10.296,18.122,12.051c-0.051-0.284-0.102-0.567-0.15-0.846
			c-0.725-4.098-1.35-7.618-1.35-7.618l-13.14-6.549C538.566,1463.949,536.798,1464.684,537.989,1466.956z"/>
		<path style="fill:#FFB27D;" d="M560.996,1469.774c0,0-23.706,7.395-28.083-7.438c-4.378-14.834-10.386-23.869,4.564-29.218
			s19.575-0.561,22.24,4.035C562.382,1441.749,567.049,1467.468,560.996,1469.774z"/>
		<path style="fill:#163560;" d="M558.786,1435.725c0,0-1.512,17.261-5.081,16.512c-3.57-0.749-6.063-1.326-6.285,3.898
			c-0.229,5.418,0.965,11.656-10.036,12.577c-11.001,0.92-22.309-27.896-19.287-33.269
			C526.817,1419.944,571.39,1416.816,558.786,1435.725z"/>
		<path style="fill:#77A4E5;" d="M573.227,1602.726c-6.591,2.382,0.114-6.548,0-8.41c-0.512-8.186,2.699-18.533,1.715-28.385
			l-40.247-24.058C534.695,1541.873,525.146,1602.344,573.227,1602.726z"/>
		<path style="fill:#F99746;" d="M506.394,1608.874c17.181,31.843,19.917,44.002,19.917,44.002
			c14.954-1.704,40.577-31.103,48.705-38.95c0,0,1.104-36.176,0.219-45.061l-12.421-0.357c0,0-22.451,5.689-28.271-2.032
			c-5.82-7.723-3.3-45.626-3.3-45.626l-17.062-3.69C506.166,1551.364,501.782,1600.327,506.394,1608.874z"/>
		<path style="fill:#FFB27D;" d="M608.34,1547.854c0,0,8.179-5.532,9.73-6.015c1.551-0.482,6.637-1.004,6.873-0.604
			c0.236,0.4,0.933,1.627,0.044,2.043c-0.889,0.415-1.995,0.27-1.663,0.56c0.332,0.29,3.675-1.301,4.446,0.404
			c0.771,1.704,1.45,7.545-2.473,9.316c-3.922,1.771-13.606,0.171-14.304,0.374C605.072,1555.654,608.34,1547.854,608.34,1547.854z"
			/>
		<path style="fill:#ADC8FE;" d="M608.416,1546.359c0,0-39.917,6.785-43.454,5.063c-5.646-2.749,2.19-43.248,2.19-43.248
			s0.336-9.179-10.385-11.344c-9.316-1.881-18.305,5.098-18.305,5.098s-8.175,7.315-7.131,15.429
			c2.315,17.984,5.917,54.563,17.946,60.17c15.515,7.232,60.411-20.054,60.411-20.054s1.495-1.831,1.282-5.23
			C610.783,1549.245,608.416,1546.359,608.416,1546.359z"/>
		<path style="fill:#F99746;" d="M527.935,1520.134l3.309,0.716c0,0,6.991-30.263,30.482-30.409
			c-1.528-1.438-3.325-2.593-5.308-3.382C547.809,1489.367,532.861,1496.724,527.935,1520.134z"/>
		<g>
			<path style="fill:#FFFFFF;" d="M561.572,1767.446c-0.087,1.398-0.15,2.746-0.212,4.058c-8.064,1.484-16.003,1.422-21.944,1.023
				c-1.311-0.088-2.521-0.2-3.62-0.313c-0.2-1.311-0.387-2.646-0.586-4.007C541.138,1768.845,551.374,1769.506,561.572,1767.446z"/>
		</g>
		<g>
			<path style="fill:#FFFFFF;" d="M561.11,1777.42c-0.038,1.398-0.075,2.734-0.1,3.994c-7.564,1.249-14.954,1.174-20.559,0.787
				c-1.136-0.075-2.185-0.162-3.158-0.25v-0.013c-0.212-1.298-0.424-2.634-0.637-4.007
				C542.336,1778.519,551.648,1779.08,561.11,1777.42z"/>
		</g>
		<g style="opacity:0.5;">
			<path style="fill:#FFFFFF;" d="M506.012,1763.277c-0.499,1.386-0.961,2.721-1.398,4.02c-7.739,0.25-15.091-0.824-20.634-1.96
				c-1.323-0.274-2.534-0.55-3.632-0.812c0.125-1.311,0.262-2.646,0.387-3.981C486.452,1761.941,496.038,1763.826,506.012,1763.277z
				"/>
		</g>
		<g style="opacity:0.5;">
			<path style="fill:#FFFFFF;" d="M502.691,1773.176c-0.437,1.373-0.836,2.696-1.223,3.97c-6.666-0.063-12.919-0.999-17.763-1.997
				c-1.548-0.324-2.946-0.649-4.169-0.949c0.1-1.298,0.2-2.621,0.312-3.981C484.929,1771.479,493.492,1773.264,502.691,1773.176z"/>
		</g>
	</g>
	<g>
		<path style="fill:#ADC8FE;" d="M2526.744,948.564c-32.767-4.88-69.142-27.161-108.112-66.224
			c-31.13-31.202-63.991-73.133-97.674-124.628c-55.411-84.716-94.978-168.038-97.929-174.303
			c-39.924,0.998-90.749-12.237-151.003-39.358c-48.329-21.753-102.825-52.438-161.976-91.202
			c-100.695-65.991-181.045-133.442-181.845-134.116l0.805-0.955c0.799,0.673,81.1,68.083,181.735,134.034
			c59.094,38.726,113.53,69.378,161.798,91.103c60.285,27.135,111.058,40.341,150.859,39.235l0.41-0.011l0.173,0.372
			c0.401,0.859,40.738,86.95,98.024,174.529c33.634,51.42,66.441,93.283,97.51,124.423c38.775,38.866,74.913,61.026,107.407,65.866
			L2526.744,948.564z"/>
	</g>
	<g>
		<path style="fill:#ADC8FE;" d="M2328.385,934.19c-42.783-6.574-89.065-29.792-137.562-69.008
			c-38.763-31.345-79.026-72.928-119.673-123.594c-67.155-83.709-113.344-165.131-116.43-170.614
			c-81.256-7.699-160.826-26.522-236.502-55.947c-60.621-23.571-118.896-53.961-173.202-90.324
			c-73.993-49.544-125.574-100.868-142.511-121.084l0.957-0.802c16.906,20.178,68.401,71.408,142.287,120.875
			c54.229,36.307,112.418,66.648,172.95,90.183c75.661,29.417,155.22,48.219,236.464,55.887l0.327,0.031l0.159,0.287
			c0.466,0.836,47.356,84.575,116.485,170.741c40.589,50.593,80.787,92.109,119.479,123.396
			c48.319,39.072,94.399,62.199,136.959,68.739L2328.385,934.19z"/>
	</g>
	<g>
		<path style="fill:#ADC8FE;" d="M2153.216,948.571c-57.304-1.85-117.458-22.88-178.793-62.507
			c-49.037-31.682-98.937-75.256-148.314-129.512c-81.653-89.722-135.05-179.642-138.525-185.553
			c-54.947-1.501-121.108-16.455-196.664-44.449c-60.545-22.433-127.228-53.244-198.194-91.577
			c-120.819-65.262-213.4-130.592-214.321-131.245l0.722-1.019c0.92,0.652,93.449,65.945,214.205,131.172
			c70.913,38.304,137.54,69.089,198.029,91.501c75.58,28.003,141.727,42.934,196.603,44.378l0.348,0.009l0.176,0.301
			c0.536,0.923,54.591,93.395,138.562,185.658c49.303,54.173,99.118,97.673,148.063,129.293
			c61.139,39.499,121.075,60.46,178.146,62.301L2153.216,948.571z"/>
	</g>
	<path style="fill:#2E3552;" d="M2834.145,1818.588H228.702c-1.57,0-2.855-1.285-2.855-2.855v-0.743c0-1.57,1.285-2.855,2.855-2.855
		h2605.442c1.57,0,2.855,1.285,2.855,2.855v0.743C2837,1817.303,2835.715,1818.588,2834.145,1818.588z"/>
</g>
</svg>
