<?xml version="1.0" encoding="utf-8"?>
<!-- Generator: Adobe Illustrator 27.5.0, SVG Export Plug-In . SVG Version: 6.00 Build 0)  -->
<svg version="1.1" id="Ñëîé_1" xmlns="http://www.w3.org/2000/svg" xmlns:xlink="http://www.w3.org/1999/xlink" x="0px" y="0px"
	 viewBox="0 0 2100 2000" style="enable-background:new 0 0 2100 2000;" xml:space="preserve">
<rect id="_x35_" style="fill:#FFFFFF;" width="2100" height="2000"/>
<g>
	<g id="_x34_">
		<rect x="669.174" y="226.096" style="fill:#4867AA;" width="683.708" height="1079.376"/>
		<rect x="1803.184" y="207.295" style="fill:#4867AA;" width="14.57" height="1116.977"/>
		<polygon style="fill:#8A9EDD;" points="1803.184,1324.272 1352.882,1305.472 1352.882,226.096 1803.184,207.295 		"/>
		<rect x="696.144" y="254.616" style="fill:#8A9EDD;" width="629.769" height="1022.335"/>
		<polygon style="fill:#4867AA;" points="881.026,1170.689 742.844,1170.689 742.844,922.795 823.485,922.795 823.485,757.404 
			775.965,757.404 775.965,344.163 781.605,344.163 781.605,751.764 829.126,751.764 829.126,928.435 748.484,928.435 
			748.484,1165.05 881.026,1165.05 		"/>
		<polygon style="fill:#4867AA;" points="881.026,1120.462 787.485,1120.462 787.485,974.967 839.326,974.967 839.326,344.163 
			844.966,344.163 844.966,980.607 793.125,980.607 793.125,1114.821 881.026,1114.821 		"/>
		<polygon style="fill:#4867AA;" points="1003.228,1167.87 997.588,1167.87 997.588,928.435 916.947,928.435 916.947,751.764 
			964.468,751.764 964.468,344.163 970.108,344.163 970.108,757.404 922.587,757.404 922.587,922.795 1003.228,922.795 		"/>
		<polygon style="fill:#4867AA;" points="958.587,1117.641 952.947,1117.641 952.947,980.607 901.107,980.607 901.107,344.163 
			906.747,344.163 906.747,974.967 958.587,974.967 		"/>
		<polygon style="fill:#4867AA;" points="1243.692,1043.967 1112.87,1043.967 1112.87,1038.327 1238.052,1038.327 1238.052,780.444 
			1052.45,780.444 1052.45,344.163 1058.09,344.163 1058.09,774.804 1243.692,774.804 		"/>
		<polygon style="fill:#4867AA;" points="1263.853,1071.328 1115.75,1071.328 1115.75,1065.688 1258.212,1065.688 1258.212,758.837 
			1112.929,758.837 1112.929,344.163 1118.569,344.163 1118.569,753.197 1263.853,753.197 		"/>
		<polygon style="fill:#4867AA;" points="1284.013,1098.688 1115.75,1098.688 1115.75,1093.047 1278.372,1093.047 1278.372,740.123 
			1176.291,740.123 1176.291,344.163 1181.931,344.163 1181.931,734.483 1284.013,734.483 		"/>
		<polygon style="fill:#4867AA;" points="1302.733,1127.489 1115.75,1127.489 1115.75,1121.849 1297.092,1121.849 1297.092,685.191 
			1241.092,685.191 1241.092,344.163 1246.732,344.163 1246.732,679.551 1302.733,679.551 		"/>
		<rect x="1036.53" y="424.909" style="fill:#B0C7F5;" width="223.096" height="63.982"/>
		<rect x="762.43" y="424.909" style="fill:#B0C7F5;" width="223.096" height="63.982"/>
		<rect x="864.546" y="1012.563" style="fill:#B0C7F5;" width="292.964" height="210.156"/>
		<polygon style="fill:#B0C7F5;" points="950.484,312.173 950.484,338.343 922.755,338.343 922.755,312.173 887.713,312.173 
			887.713,338.343 859.297,338.343 859.297,312.173 824.255,312.173 824.255,338.343 797.472,338.343 797.472,312.173 
			762.43,312.173 762.43,376.154 797.472,376.154 797.472,349.667 824.255,349.667 824.255,376.154 859.297,376.154 
			859.297,349.667 887.713,349.667 887.713,376.154 922.755,376.154 922.755,349.667 950.484,349.667 950.484,376.154 
			985.526,376.154 985.526,312.173 		"/>
		<polygon style="fill:#B0C7F5;" points="1224.584,312.173 1224.584,338.343 1196.855,338.343 1196.855,312.173 1161.813,312.173 
			1161.813,338.343 1133.397,338.343 1133.397,312.173 1098.355,312.173 1098.355,338.343 1071.572,338.343 1071.572,312.173 
			1036.53,312.173 1036.53,376.154 1071.572,376.154 1071.572,349.667 1098.355,349.667 1098.355,376.154 1133.397,376.154 
			1133.397,349.667 1161.813,349.667 1161.813,376.154 1196.855,376.154 1196.855,349.667 1224.584,349.667 1224.584,376.154 
			1259.626,376.154 1259.626,312.173 		"/>
		<rect x="1036.53" y="650.38" style="fill:#B0C7F5;" width="223.096" height="63.982"/>
		<rect x="1036.53" y="796.574" style="fill:#B0C7F5;" width="180.741" height="32.611"/>
		<rect x="1036.53" y="852.942" style="fill:#B0C7F5;" width="180.741" height="32.611"/>
		<rect x="1036.53" y="909.31" style="fill:#B0C7F5;" width="180.741" height="32.611"/>
		<rect x="762.43" y="650.38" style="fill:#B0C7F5;" width="223.096" height="63.982"/>
		<polygon style="fill:#B0C7F5;" points="950.484,537.644 950.484,563.815 922.755,563.815 922.755,537.644 887.713,537.644 
			887.713,563.815 859.297,563.815 859.297,537.644 824.255,537.644 824.255,563.815 797.472,563.815 797.472,537.644 
			762.43,537.644 762.43,601.626 797.472,601.626 797.472,575.139 824.255,575.139 824.255,601.626 859.297,601.626 
			859.297,575.139 887.713,575.139 887.713,601.626 922.755,601.626 922.755,575.139 950.484,575.139 950.484,601.626 
			985.526,601.626 985.526,537.644 		"/>
		<polygon style="fill:#B0C7F5;" points="1224.584,537.644 1224.584,563.815 1196.855,563.815 1196.855,537.644 1161.813,537.644 
			1161.813,563.815 1133.397,563.815 1133.397,537.644 1098.355,537.644 1098.355,563.815 1071.572,563.815 1071.572,537.644 
			1036.53,537.644 1036.53,601.626 1071.572,601.626 1071.572,575.139 1098.355,575.139 1098.355,601.626 1133.397,601.626 
			1133.397,575.139 1161.813,575.139 1161.813,601.626 1196.855,601.626 1196.855,575.139 1224.584,575.139 1224.584,601.626 
			1259.626,601.626 1259.626,537.644 		"/>
		<path style="fill:#B0C7F5;" d="M920.968,946.677h-93.979c-16.812,0-30.44-13.628-30.44-30.44v-93.979
			c0-16.812,13.628-30.44,30.44-30.44h93.979c16.812,0,30.44,13.629,30.44,30.44v93.979
			C951.408,933.048,937.779,946.677,920.968,946.677z"/>
		<path id="_x36_" style="fill:#FFBB4D;" d="M1626.142,754.545c-21.397-0.802-42.807-1.077-64.216-0.882
			c23.063-34.119,45.139-68.92,63.01-106.173c-39.099,34.009-73.374,73.019-106.134,112.931
			c-8.385,9.704-0.455,26.044,12.514,25.297c21.28,0.614,42.568,0.751,63.853,0.405c-21.005,31.488-41.061,63.713-57.421,97.955
			c27.529-23.663,52.276-50.227,76.232-77.369c8.542-12.135,23.404-21.676,26.728-36.492
			C1641.011,761.866,1634.491,754.85,1626.142,754.545z"/>
		<path style="fill:#B0C7F5;" d="M1751.516,1188.221c-0.046,0-0.092,0-0.137-0.002l-346.961-9.401
			c-2.733-0.073-4.889-2.349-4.814-5.083c0.072-2.687,2.274-4.816,4.946-4.816c0.046,0,0.092,0,0.137,0.002l346.961,9.401
			c2.733,0.073,4.889,2.349,4.814,5.083C1756.39,1186.092,1754.188,1188.221,1751.516,1188.221z"/>
		<path style="fill:#B0C7F5;" d="M1751.516,1150.62c-0.046,0-0.092,0-0.137-0.002l-346.961-9.4
			c-2.733-0.073-4.889-2.349-4.814-5.083c0.072-2.687,2.274-4.816,4.946-4.816c0.046,0,0.092,0,0.137,0.002l346.961,9.4
			c2.733,0.073,4.889,2.349,4.814,5.083C1756.39,1148.491,1754.188,1150.62,1751.516,1150.62z"/>
		<path style="fill:#B0C7F5;" d="M1751.516,1113.02c-0.046,0-0.092,0-0.137-0.002l-346.961-9.401
			c-2.733-0.073-4.889-2.349-4.814-5.083c0.072-2.687,2.274-4.816,4.946-4.816c0.046,0,0.092,0,0.137,0.002l346.961,9.401
			c2.733,0.073,4.889,2.349,4.814,5.083C1756.39,1110.891,1754.188,1113.02,1751.516,1113.02z"/>
		<path style="fill:#B0C7F5;" d="M1404.55,438.17c-2.672,0-4.873-2.129-4.946-4.817c-0.074-2.733,2.082-5.009,4.814-5.083
			l346.961-9.4c2.71-0.076,5.01,2.081,5.083,4.815c0.074,2.733-2.082,5.009-4.814,5.083l-346.961,9.4
			C1404.641,438.169,1404.595,438.17,1404.55,438.17z"/>
		<path style="fill:#B0C7F5;" d="M1404.55,400.569c-2.672,0-4.873-2.129-4.946-4.817c-0.074-2.733,2.082-5.009,4.814-5.083
			l346.961-9.4c2.71-0.068,5.01,2.081,5.083,4.815c0.074,2.733-2.082,5.009-4.814,5.083l-346.961,9.4
			C1404.641,400.569,1404.595,400.569,1404.55,400.569z"/>
		<path style="fill:#B0C7F5;" d="M1404.55,362.968c-2.672,0-4.873-2.129-4.946-4.817c-0.074-2.733,2.082-5.009,4.814-5.083
			l346.961-9.4c2.71-0.088,5.01,2.081,5.083,4.815c0.074,2.733-2.082,5.009-4.814,5.083l-346.961,9.4
			C1404.641,362.968,1404.595,362.968,1404.55,362.968z"/>
	</g>
	<g id="_x33_">
		<path style="fill:#F99370;" d="M871.106,710.452c0,0,42.268-14.079,46.809-26.572c7.783-21.41,9.919-43.101-2.431-41.904
			c-12.35,1.196-42.383,22.674-47.257,28.988C868.227,670.964,868.216,683.612,871.106,710.452z"/>
		<polygon style="fill:#CE3932;" points="928.674,623.588 932.745,626.66 974.705,571.074 972.746,569.595 970.634,568.001 		"/>
		
			<rect x="905.804" y="609.166" transform="matrix(-0.7988 -0.6017 0.6017 -0.7988 1256.2025 1713.2517)" style="fill:#EB5648;" width="17.654" height="74.737"/>
		<path style="fill:#F99370;" d="M904.72,682.61c4.529,2.499,10.123,3.119,14.862,0.464c3.014-1.688,3.607-5.673,1.326-8.899
			c-1.608-2.274-4.216-3.565-6.671-3.537l-3.733,0.051c-0.074,0.001,0.087-0.012,0.057-0.014c-0.192,0.006-0.559-0.216-0.003,0.085
			c-3.715-2.123-8.033-1.191-9.645,2.082C899.301,676.114,901.005,680.487,904.72,682.61z"/>
		<path style="fill:#F99370;" d="M913.609,673.09c5.027,1.397,10.845,1.063,14.828-2.521c2.659-2.491,2.304-6.908-0.793-9.865
			c-3.097-2.957-7.763-3.335-10.422-0.843c0.102-0.134,0.234-0.088-0.131-0.04c-0.886,0.081-1.793-0.207-1.314-0.073
			c-4.038-1.174-7.796,0.862-8.395,4.546C906.784,667.978,909.571,671.916,913.609,673.09z"/>
		<path style="fill:#F99370;" d="M924.887,663.815l7.272-0.859c3.994-0.472,6.334-3.91,5.226-7.679
			c-1.108-3.769-5.245-6.442-9.24-5.969l-7.272,0.859c-3.994,0.472-6.334,3.91-5.226,7.679
			C916.756,661.614,920.893,664.287,924.887,663.815z"/>
		<path style="fill:#F99370;" d="M930.748,653.45l7.272-0.859c3.995-0.472,6.334-3.91,5.226-7.679
			c-1.108-3.769-5.245-6.442-9.24-5.969l-7.272,0.859c-3.994,0.472-6.334,3.91-5.226,7.679
			C922.617,651.25,926.754,653.922,930.748,653.45z"/>
		<path style="fill:#F99370;" d="M886.763,679.9c6.221-14.353,15.041-29.19,28.824-37.216c3.992-2.281,11.512-2.798,9.772-9.172
			c-2.135-6.336-9.837-3.118-14.417-1.883c-17.391,6.266-38.465,18.953-53.316,44.258C846.29,695.201,880.344,697.685,886.763,679.9
			z"/>
		<path style="fill:#F99370;" d="M586.981,682.742c38.667,54.401,73.94,85.928,131.248,121.026
			c36.734,17.327,118.594-95.951,137.287-125.241c11.2-17.187,38.318-2.421,29.992,16.272
			c-25.257,56.1-54.584,112.391-102.109,153.476c-50.981,42.347-93.213,26.625-144.412-5.716
			c-52.201-33.15-97.746-75.642-137.653-122.565C460.954,668.856,547.083,631.024,586.981,682.742z"/>
		<path style="fill:#3A72AA;" d="M882.888,706.076c0,0-1.211,7.378-4.652,19.495c-8.217,28.99-29.228,85.1-77.035,131.964
			c-67.626,66.292-143.88,49.19-194.814,20.162c-35.615-20.296-128.742-113.441-128.742-113.441
			c-0.191-0.21,45.92-131.821,45.92-131.821s53.451,6.454,123.975,93.422c33.851,41.754,74.547,39.113,103.842,21.687
			c19.018-11.306,58.389-36.93,82.364-52.641c11.849-7.769,19.757-13.272,19.757-13.272S859.628,701.462,882.888,706.076z"/>
		<path style="fill:#F99370;" d="M685.927,1792.957H559.723c-11.017-0.443-10.933-11.68-8.902-20.393
			c6.949-31.407-5.335-103.523-7.611-135.823c-0.607-5.914,4.035-11.055,9.981-11.055c93.124-0.946,62.742-8.404,55.526,92.052
			c-5.506,35.089,36.349,41.778,60.213,45.656C684.64,1764.532,710.914,1785.975,685.927,1792.957z"/>
		<path style="fill:#103663;" d="M546.016,1779.864c0.34,6.188,3.409,13.247,10.576,13.093c-0.001,0,130.908,0,130.908,0
			c30.876-11.453-15.388-52.417-75.829-52.174c-23.064,6.33-48.147,3.732-58.802,1.187
			C552.87,1741.972,543.157,1749.019,546.016,1779.864z"/>
		<path style="fill:#E8C0A6;" d="M634.678,1772.633c1.188,0,2.287-0.767,2.658-1.96c4.447-14.377,16.965-21.02,17.092-21.085
			c6.415-12.974-17.487,0.916-22.407,19.441C631.446,1770.777,632.844,1772.661,634.678,1772.633z"/>
		<path style="fill:#E8C0A6;" d="M610.078,1769.609c1.151,0,2.227-0.72,2.628-1.868c5.194-14.93,17.189-23.061,17.311-23.14
			C637.113,1725.432,597.942,1764.484,610.078,1769.609z"/>
		<path style="fill:#0F2E54;" d="M696.661,1779.864H546.016c0.555,4.598,1.825,9.065,4.131,13.094h137.354
			C694.266,1792.967,699.064,1786.186,696.661,1779.864z"/>
		<path style="fill:#F99370;" d="M372.546,1783.839l-2.143-1.118c0,1.5-1.855,6.709-3.354,6.709l-63.359,1.305
			c-1.5,0-2.423-2.824-2.423-4.323l-5.404-1.547c0-9.488,0.781-12.928,4.972-20.27c15.404-20.473-2.985-112.036-2.453-135.957
			c-3.799-6.541,66.721-1.409,67.705-2.954c1.585,0.002,2.832,1.353,2.707,2.932l-8.299,104.624
			C356.772,1753.105,372.016,1765.113,372.546,1783.839z"/>
		<path style="fill:#103663;" d="M305.901,1792.958h55.951c17.48-2.387,15.681-24.744,2.761-39.489
			c-15.735-17.957-46.149-18.167-61.724-0.055C290.176,1768.197,288.536,1790.617,305.901,1792.958z"/>
		<path style="fill:#E8C0A6;" d="M313.818,1757.335c15.542-9.428,39.383-0.932,39.474-0.248
			c16.229-3.497-22.149-17.196-40.881-4.935C309.969,1753.474,311.089,1757.438,313.818,1757.335z"/>
		<path style="fill:#0F2E54;" d="M305.901,1792.958h55.951c7.119,0.008,12.847-5.99,12.408-13.094h-80.767
			C293.061,1786.966,298.784,1792.967,305.901,1792.958z"/>
		<path style="fill:#1D3F70;" d="M635.964,1686.387c-1.288,9.269-2.641,18.133-4.07,26.64
			c-47.489,17.813-106.974,0.404-106.974,0.404c0.273-6.787,0.489-13.649,0.658-20.577c0.056-2.153,0.103-4.305,0.151-6.467
			c4.785-234.12-47.743-497.422-47.762-497.187c-36.247,236.846-66.346,385.034-85.194,493.633
			c-1.645,9.485-3.205,18.246-4.672,26.245c-53.9,23.444-105.601,0-105.601,0s0-9.381,0.15-26.179
			c1.194-133.002,16.327-595.511,42.246-711.433c103.693,51.428,310.833-50.42,310.833-50.42
			C657.997,1343.77,654.172,1555.339,635.964,1686.387z"/>
		<path style="fill:#F99370;" d="M508.354,628.947c2.457-31.71,10.57-89.163-14.309-100.37c-17.445-7.2-39.384,6.751-35.06,27.124
			c1.672-0.922,3.554,56.569-0.923,72.24C410.283,639.336,548.889,693.781,508.354,628.947z"/>
		<path style="fill:#E57D61;" d="M458.655,553.071c0.073,0.877,0.177,1.768,0.331,2.63c1.208-0.704,2.653,31.039,1.367,53.945
			c20.96,11.022,44.563,8.185,49.007,7.535c3.507-34.092,8.72-75.882-15.318-88.603
			C477.655,520.429,456.749,534.591,458.655,553.071z"/>
		<path style="fill:#3A72AA;" d="M620.671,1034.098c0,0,10.515-96.416-0.57-172.508c-15.31-101.369-42.055-166.283-96.532-229.155
			c-0.604-0.173-9.972-3.157-15.189-3.46c1.251,9.276,2.084,36.395-50.307-1.031c-0.191,0.206-14.427-0.132-18.603,2.233
			c-4.189,3.971-100.993,248.337-104.493,322.569C333.555,974.623,554.894,1066.435,620.671,1034.098z"/>
		<path style="fill:#23659B;" d="M439.471,630.177c18.648,25.048,93.297,59.386,84.119,2.28c-0.616-0.209-9.955-3.172-15.207-3.485
			c0.273,1.495,7.349,40.69-50.319-1.036C454.54,627.697,443.609,627.945,439.471,630.177z"/>
		<path style="fill:#E8C0A6;" d="M656.294,1775.241c1.098,0,2.14-0.655,2.578-1.739c5.032-12.413,14.102-16.213,14.486-16.367
			c7.074-11.166-13.485-3.212-19.641,14.28C652.952,1773.191,654.37,1775.277,656.294,1775.241z"/>
		<path style="fill:#8E4A35;" d="M549.71,507.239c0,0-1.288-27.137-10.333-45.599l-15.297,8.081L549.71,507.239z"/>
		<path style="fill:#F99370;" d="M552.561,586.666c-17.884,19.305-46.213,25.492-69.134,21.275
			c-7.151-1.206-13.989-3.489-20.125-7.056l-0.009,0.001c-2.075-1.204-4.044-2.529-5.931-3.998l-0.028,0.004
			c-89.307-84.619,24.079-230.992,81.561-107.991C558.113,523.445,590.287,541.298,552.561,586.666z"/>
		<path style="fill:#C16256;" d="M513.088,517.062c0.82-1.735,0.076-3.805-1.661-4.623c-1.737-0.818-3.81-0.074-4.629,1.661
			c-0.82,1.735-0.076,3.805,1.661,4.623C510.196,519.542,512.268,518.798,513.088,517.062z"/>
		<path style="fill:#C16256;" d="M542.168,511.29c0.82-1.735,0.076-3.805-1.661-4.623c-1.737-0.818-3.81-0.074-4.629,1.661
			c-0.819,1.736-0.076,3.805,1.661,4.623C539.277,513.769,541.349,513.026,542.168,511.29z"/>
		<path style="fill:#C16256;" d="M534.011,541.634c-2.029,0.303-4.112,0.253-5.885-0.257c-0.7-0.199-1.101-0.931-0.9-1.625
			c0.2-0.703,0.941-1.093,1.628-0.9c4.45,1.278,10.63-1.112,11.429-3.133c0.28-0.711-0.685-1.378-1.545-1.809
			c-7.577-3.813-12.996-17.765-13.223-18.355c-0.26-0.679,0.078-1.439,0.758-1.699c0.703-0.271,1.441,0.081,1.7,0.756
			c0.053,0.134,5.28,13.592,11.949,16.948c3.635,1.83,3.175,4.19,2.81,5.12C541.778,539.104,537.991,541.04,534.011,541.634z"/>
		<path style="fill:#E57D61;" d="M534.61,480.408c-19.149-9.361-53.057,0.719-69.842,1.095c0,0,4.436,28.587-23.913,49.907
			c-1.649,26.46-5.641,38.111,22.447,69.475l-0.009,0.001c-2.075-1.204-4.044-2.529-5.931-3.998l-0.028,0.004
			C371.358,516.232,475.745,370.935,534.61,480.408z"/>
		<path style="fill:#8E4A35;" d="M537.957,431.442c-11.466-21-34.736-40.269-61.64-13.061
			c-20.713,20.949-43.752,21.489-42.635,42.856c-48.787,21.708-19.534,67.207-19.534,67.207l21.37-3.189
			c23.901-20.568,22.272-49.685,22.272-49.685l-0.006-0.004c5.472,0.103,11.218-0.306,16.273-1.762
			c15.664-4.512,38.963-7.172,56.964-1.16C549.021,478.655,550.772,454.912,537.957,431.442z"/>
		<path style="fill:#F99370;" d="M411.617,545.823c2.653,10.942,11.949,18.082,20.764,15.946
			c8.815-2.135,13.81-12.736,11.157-23.678c-2.653-10.942-11.949-18.082-20.764-15.946
			C413.959,524.28,408.964,534.881,411.617,545.823z"/>
		<path style="fill:#C16256;" d="M432.232,530.597c-0.347-0.122-8.574-3.015-13.018,1.355c-1.132,1.111-1.865,2.591-2.249,4.385
			c-0.001,0.004-0.001,0.008-0.002,0.012c-0.036,0.167-0.089,0.318-0.118,0.492c0,0.003-0.002,0.005-0.002,0.007
			c0,0.001,0.001,0.002,0,0.002c-0.558,3.335,0.082,7.751,1.928,13.222c0.209,0.61,0.823,0.972,1.443,0.88
			c0.075-0.011,0.15-0.03,0.227-0.054c0.688-0.233,1.059-0.981,0.827-1.668c-1.5-4.435-2.13-8.058-1.941-10.815
			c7.623,1.127,11.682,9.5,11.722,9.59c0.251,0.542,0.827,0.834,1.391,0.75c0.119-0.018,0.239-0.056,0.357-0.11
			c0.662-0.302,0.947-1.082,0.646-1.743c-0.197-0.418-4.618-9.779-13.569-11.152c0.291-0.755,0.667-1.414,1.18-1.918
			c3.264-3.212,10.225-0.779,10.289-0.757c0.694,0.241,1.436-0.117,1.684-0.799C433.27,531.594,432.914,530.844,432.232,530.597z"/>
		<path style="fill:#C16256;" d="M499.125,511.949c-0.028-0.008-0.056-0.017-0.083-0.027c-0.674-0.245-1.023-0.991-0.777-1.665
			c3.665-10.076,13.179-13.457,13.582-13.597c0.678-0.234,1.415,0.124,1.649,0.803c0.235,0.677-0.123,1.417-0.8,1.653
			c-0.087,0.03-8.759,3.146-11.99,12.03C500.471,511.792,499.776,512.138,499.125,511.949z"/>
		<path style="fill:#C16256;" d="M523.776,498.328c-0.422-0.122-0.772-0.456-0.895-0.912c-0.186-0.693,0.225-1.405,0.919-1.591
			c10.549-2.828,18.652,2.304,18.992,2.525c0.601,0.389,0.773,1.191,0.384,1.793c-0.387,0.603-1.198,0.774-1.794,0.389
			c-0.077-0.049-7.51-4.719-16.91-2.198C524.236,498.398,523.995,498.391,523.776,498.328z"/>
		<path style="fill:#EB5648;" d="M407.466,512.908c0,0,37.275-63.025,139.814-59.657c0,0-12.318-52.886-59.926-59.424
			c-20.982-2.882-62.15,4.128-77.2,31.538C391.391,459.537,407.466,512.908,407.466,512.908z"/>
		<path style="fill:#CE3932;" d="M434.92,484.854c0,0,21.513-21.096,43.471-30.323c21.958-9.227,63.074-17.14,80.9-8.855
			c17.826,8.285-12.012,7.575-12.012,7.575S485.226,449.184,434.92,484.854z"/>
		<path style="fill:#CE3932;" d="M468.914,397.093c0,0,43.747,4.84,64.379,48.693c0,0-41.596,7.433-42.713,7.84
			c-1.117,0.407-12.629-39.773-49.06-50.15C441.52,403.476,453.751,393.128,468.914,397.093z"/>
		<path style="fill:#C16256;" d="M532.578,556.984c-14.886,0-21.095-9.85-21.375-10.308c-0.406-0.665-0.197-1.532,0.467-1.939
			c0.665-0.405,1.53-0.197,1.937,0.464c0.277,0.447,6.852,10.711,23.116,8.699c0.771-0.094,1.477,0.453,1.572,1.226
			c0.096,0.773-0.453,1.477-1.226,1.572C535.492,556.895,533.995,556.984,532.578,556.984z"/>
		<path style="fill:#1D3F70;" d="M523.59,632.457c0,0,36.985,64.205,46.468,144.847c0,0-54.93,17.28-111.525,0
			c0,0,2.15-89.77-19.063-147.127c0,0-12.913-6.283-22.823,4.181c0,0,17.231,118.386,10.929,158.546
			c-6.302,40.16-45.696,124.446-96.628,113.944c0,0-6.054,68.219-6.054,64.619c0,0,115.148,118.107,298.659,86.294
			c0,0,16.749-121.93-1.152-213.193c-17.901-91.264-51.813-169.721-79.018-205.854C543.385,638.714,535.8,627.773,523.59,632.457z"
			/>
		<path style="fill:#3A72AA;" d="M591.458,1004.122c-6.873,2.164-13.68,4.185-20.4,6.053
			c-121.335,33.699-216.587,17.121-271.154-101.029c-38.723-83.813-19.666-259.18,116.74-274.786c0,0,16.921,57.55,10.934,123.985
			c-4.623,51.297-13.794,114.013,44.986,158.398c28.913,21.84,65.272,38.723,93.051,46.225c7.512,2.031,14.395,3.365,20.334,3.937
			c0,0-5.339,7.903-3.785,19.685C584.147,1001.624,591.458,1004.122,591.458,1004.122z"/>
		
			<rect x="618.666" y="916.693" transform="matrix(0.9678 0.2517 -0.2517 0.9678 267.536 -134.6214)" style="fill:#CE3932;" width="82.801" height="123.842"/>
		
			<rect x="627.763" y="919.058" transform="matrix(0.9678 0.2517 -0.2517 0.9678 268.4217 -136.8339)" style="fill:#EB5648;" width="82.801" height="123.842"/>
		<path style="fill:#F99370;" d="M625.703,945.978l-3.73,14.345c10.864,3.666,21.813,3.872,21.859,3.934
			c13.24-1.817,26.363-4.305,39.383-7.359c2.019-0.474,4.199-0.27,5.943,0.851c9.804,6.3-36.523,16.808-40.904,18.594
			c0.024,0.113,0.021,0.1,0.045,0.213c13.955,1.031,27.988,1.343,41.962,0.565c2.14-0.119,4.324,0.529,5.816,2.068
			c8.425,8.69-44.833,8.864-49.618,9.257c0.002,0.059,0.002,0.047,0.004,0.106c12.925,3.18,26.224,4.88,39.542,5.225
			c2.109,0.055,4.192,0.897,5.482,2.566c7.559,9.78-45.857,5.405-51.008,4.185c-0.031,0.047-0.061,0.094-0.091,0.141
			c9.661,3.926,19.783,6.71,29.987,8.947c1.95,0.428,3.752,1.5,4.837,3.176c6.438,9.949-35.79,0.638-40.385-0.615
			c-9.435-2.491-27.119-0.76-43.365-8.052c-12.169-5.463-17.52-29.379-4.846-37.743c6.389-4.217,17.603-12.093,21.169-13.324
			C613.692,949.713,619.691,943.507,625.703,945.978z"/>
		<path style="fill:#0F2E54;" d="M635.964,1686.387c-1.288,9.269-2.641,18.133-4.07,26.64
			c-47.489,17.813-106.974,0.404-106.974,0.404c0.357-8.892,0.62-17.917,0.809-27.044
			C525.728,1686.387,577.589,1699.772,635.964,1686.387z"/>
		<path style="fill:#0F2E54;" d="M550.347,1703.72l-24.769-10.866c0.056-2.153,0.103-4.305,0.151-6.467
			c4.785-234.12-44.012-484.365-47.565-496.905c2.077,3.046,24.239,26.574,40.52,106.127
			C535.961,1380.088,555.16,1635.09,550.347,1703.72z"/>
		<path style="fill:#0F2E54;" d="M392.773,1682.833c-1.645,9.485-3.205,18.246-4.672,26.245c-53.9,23.444-105.601,0-105.601,0
			s0-9.381,0.15-26.179C285.545,1684.083,330.224,1701.624,392.773,1682.833z"/>
		<path style="fill:#EB5648;" d="M687.106,924.405l-5.589-0.758c0.078-0.578,2.019-14.303,10.738-28.795
			c8.111-13.479,23.821-30.09,52.605-32.675c103.198-9.269,109.695-53.25,117.22-104.177c4.215-28.528,8.573-58.027,30.326-83.635
			l4.298,3.651c-20.708,24.378-24.946,53.065-29.045,80.808c-7.545,51.068-14.672,99.304-122.295,108.97
			C694.749,872.34,687.176,923.885,687.106,924.405z"/>
		<path style="fill:#23659B;" d="M591.458,1004.122c-6.873,2.164-13.68,4.185-20.4,6.053c-19.285-23.346-5.834-46.559-5.443-47.207
			c7.512,2.031,14.395,3.365,20.334,3.937c0,0-5.339,7.903-3.785,19.685C584.147,1001.624,591.458,1004.122,591.458,1004.122z"/>
		<path style="fill:#23659B;" d="M882.888,706.076c0,0-1.211,7.378-4.652,19.495c-29.266,0.81-44.49-30.667-44.49-30.667
			c11.849-7.769,19.757-13.272,19.757-13.272S859.628,701.462,882.888,706.076z"/>
	</g>
	<g id="_x32_">
		<path style="fill:#1D3F70;" d="M1218.737,1708.597h-141.334c-5.352,0-9.691-4.339-9.691-9.691v-161.911
			c0-5.352,4.339-9.691,9.691-9.691h141.334c5.352,0,9.691,4.339,9.691,9.691v161.911
			C1228.428,1704.258,1224.089,1708.597,1218.737,1708.597z M1087.094,1689.215h121.953v-142.53h-121.953V1689.215z"/>
		<path style="fill:#1D3F70;" d="M1271.467,1792.96h-246.792c-31.826,0-58.604-23.844-62.279-55.457l-16.809-144.558h404.969
			l-16.809,144.558C1330.07,1769.116,1303.293,1792.96,1271.467,1792.96z"/>
		<path style="fill:#0F2E54;" d="M1342.621,1632.532H953.52c-8.319,0-14.745-7.307-13.682-15.558l4.198-32.582
			c0.887-6.88,6.745-12.032,13.682-12.032h380.705c6.937,0,12.796,5.152,13.682,12.032l4.198,32.582
			C1357.366,1625.224,1350.94,1632.532,1342.621,1632.532z"/>
		<rect x="1126.398" y="1610.86" style="fill:#EB5648;" width="43.344" height="43.344"/>
	</g>
	<path id="_x31_" style="fill:#4867AA;" d="M1918.44,1800.586H181.56c-2.632,0-4.767-2.134-4.767-4.767s2.134-4.767,4.767-4.767
		h1736.88c2.633,0,4.767,2.134,4.767,4.767S1921.072,1800.586,1918.44,1800.586z"/>
</g>
</svg>
